<svg width="64" height="32" viewBox="0 0 64 32" fill="none" xmlns="http://www.w3.org/2000/svg">
<path fill-rule="evenodd" clip-rule="evenodd" d="M26.6824 0.90564H17.8554L0 31.6947H8.57647L17.9253 15.7971V31.6213H18.0303L17.9876 31.6947H26.5641L26.6073 31.6213H26.6824V31.4935L38.0677 12.1329L38.7531 15.6454L45.3801 4.40316L44.67 1.08965H44.5618L44.67 0.90564H35.843L26.6824 16.7018V1.08965H26.5742L26.6824 0.90564ZM48.1019 18.4856L41.5932 29.3728L41.9482 31.6212H50.587H50.7053L48.1019 18.4856ZM39.1081 31.6947L50.7886 11.8321L55.0839 31.6213H63.841L57.214 1.08965H57.1058L57.214 0.90564H48.387L30.5316 31.6947H39.1081Z" fill="#FFFBFE"/>
</svg>
