<svg width="102" height="50" viewBox="0 0 102 50" fill="none" xmlns="http://www.w3.org/2000/svg">
<g clip-path="url(#clip0_395_371)">
<rect width="102" height="50" fill="#09090B"/>
<path d="M25.1881 -0.127233L39.3506 -0.127233L39.3506 49.2724L25.1881 49.2724L25.1881 -0.127233Z" fill="white"/>
<rect x="25.3003" y="0.167969" width="14.0504" height="48.9865" fill="white"/>
<path d="M44.1145 -0.127233L58.277 -0.127233L58.277 49.2724L44.1145 49.2724L44.1145 -0.127233Z" fill="white"/>
<path d="M44.2267 0.167969H58.2771V49.1435H44.2267V0.167969Z" fill="white"/>
<path d="M62.6494 -1.37723L61.3994 -1.37723L61.3994 -0.127233L61.3994 49.2724L61.3994 50.5224L62.6494 50.5224L76.8119 50.5224L78.0619 50.5224L78.0619 49.2724L78.0619 -0.127233L78.0619 -1.37723L76.8119 -1.37723L62.6494 -1.37723Z" fill="white" stroke="#09090B" stroke-width="2.5"/>
<path d="M62.7616 0.167969H76.812V49.1545H62.7616L62.7616 0.167969Z" fill="white"/>
</g>
<defs>
<clipPath id="clip0_395_371">
<rect width="102" height="50" fill="white"/>
</clipPath>
</defs>
</svg>
