<svg width="106" height="106" viewBox="0 0 106 106" fill="none" xmlns="http://www.w3.org/2000/svg">
<path fill-rule="evenodd" clip-rule="evenodd" d="M44.1927 28H29.573L0 78.9944H14.2048L29.6888 52.6639V78.8727H29.8626L29.792 78.9944H43.9968L44.0684 78.8727H44.1928V78.6612L63.0496 46.5952L64.1847 52.4127L75.1607 33.7928L73.9847 28.3048H73.8055L73.9847 28H59.365L44.1928 54.1624V28.3048H44.0135L44.1927 28ZM79.6687 57.1167L68.8887 75.1487L69.4767 78.8727H83.7847H83.9807L79.6687 57.1167ZM64.7727 78.9944L84.1186 46.0969L91.2327 78.8727H105.737L94.7607 28.3048H94.5814L94.7607 28H80.141L50.568 78.9944H64.7727Z" fill="#141414"/>
</svg>
