<svg width="1285" height="199" viewBox="0 0 1285 199" fill="none" xmlns="http://www.w3.org/2000/svg">
<path d="M1 63.7624C76.6667 97.4291 284.7 154.662 511.5 114.262C795 63.7624 867 -3.73759 1014 1.26241C1131.6 5.26241 1243 41.2623 1284 58.7622" stroke="#141414"/>
<path d="M1 86.9201C76.6667 120.587 284.7 177.82 511.5 137.42C795 86.9201 867 19.4201 1014 24.4201C1131.6 28.4201 1243 64.42 1284 81.9199" stroke="#141414"/>
<path d="M1 110.078C76.6667 143.745 284.7 200.978 511.5 160.578C795 110.078 867 42.5778 1014 47.5778C1131.6 51.5778 1243 87.5777 1284 105.078" stroke="#141414"/>
<path d="M1 133.236C76.6667 166.902 284.7 224.136 511.5 183.736C795 133.236 867 65.7356 1014 70.7356C1131.6 74.7356 1243 110.735 1284 128.235" stroke="#141414"/>
</svg>
