<svg width="72" height="72" viewBox="0 0 72 72" fill="none" xmlns="http://www.w3.org/2000/svg">
<path d="M15.3197 7.81032C11.2826 7.81032 8.29633 11.3451 8.42964 15.1785C8.55789 18.8606 8.39139 23.6306 7.19045 27.5198C5.9867 31.4213 3.95045 33.8867 0.62439 34.2039V37.7966C3.95045 38.1133 5.9867 40.5793 7.19045 44.4808C8.39139 48.3699 8.55733 53.1399 8.42964 56.8221C8.29576 60.6555 11.2826 64.1897 15.3197 64.1897H56.686C60.723 64.1897 63.7093 60.6549 63.576 56.8221C63.4478 53.1399 63.6143 48.3699 64.8146 44.4808C66.0184 40.5799 68.0496 38.1139 71.3756 37.7966V34.2039C68.0496 33.8873 66.019 31.4213 64.8146 27.5198C63.6143 23.6306 63.4478 18.8606 63.576 15.1785C63.7093 11.3451 60.723 7.81032 56.6854 7.81032H15.3197ZM48.0088 42.5087C48.0088 47.7872 44.0702 50.9872 37.5345 50.9872H25.4846C25.4114 50.9872 25.3411 50.9582 25.2893 50.9064C25.2375 50.8546 25.2085 50.7843 25.2085 50.7111V21.2777C25.2084 21.2414 25.2155 21.2054 25.2293 21.1718C25.2432 21.1383 25.2635 21.1077 25.2891 21.082C25.3148 21.0563 25.3453 21.0359 25.3788 21.022C25.4124 21.0081 25.4483 21.0009 25.4846 21.0009H37.471C42.921 21.0009 46.4974 23.9518 46.4974 28.4822C46.4974 31.662 44.0916 34.5083 41.026 35.0072V35.1737C45.1986 35.631 48.0088 38.5194 48.0088 42.5087ZM36.3212 24.804H29.9773V33.7601H35.3211C39.451 33.7601 41.7285 32.0979 41.7285 29.1263C41.7285 26.3419 39.7705 24.804 36.3212 24.804ZM29.9773 37.314V47.1848H36.5558C40.8561 47.1848 43.1342 45.4601 43.1342 42.2179C43.1342 38.9762 40.7925 37.314 36.279 37.314H29.9773Z" fill="#141414"/>
</svg>
