<svg width="72" height="72" viewBox="0 0 72 72" fill="none" xmlns="http://www.w3.org/2000/svg">
<path d="M66.0938 18.8438L66.2625 18.7313C65.925 18.1125 65.4188 17.55 64.9125 17.2688L37.7437 1.63125C37.2937 1.35 36.675 1.2375 36 1.2375C35.325 1.2375 34.7063 1.40625 34.2563 1.63125L7.25625 17.325C6.3 17.8875 5.625 19.2938 5.625 20.3625V51.6938C5.625 52.3125 5.7375 52.9875 6.13125 53.6063L6.01875 53.6625C6.3 54.1125 6.69375 54.5063 7.0875 54.7313L34.2 70.425C34.65 70.7063 35.2688 70.8188 35.9438 70.8188C36.6188 70.8188 37.2375 70.65 37.6875 70.425L64.6875 54.7313C65.6437 54.1688 66.3188 52.7625 66.3188 51.6938V20.3063C66.375 19.8563 66.3187 19.35 66.0938 18.8438ZM36 49.7813C41.1188 49.7813 45.6188 46.9688 47.9813 42.8063L55.2375 47.0813C51.4125 53.7188 44.2125 58.2188 36 58.2188C23.7375 58.2188 13.7812 48.2625 13.7812 36C13.7812 23.7375 23.7375 13.7813 36 13.7813C44.2687 13.7813 51.4688 18.3375 55.2938 25.0313L47.9813 29.25C45.6188 25.0313 41.1188 22.2188 36 22.2188C28.4062 22.2188 22.2188 28.4063 22.2188 36C22.2188 43.5938 28.4062 49.7813 36 49.7813Z" fill="#141414"/>
</svg>
