<svg width="72" height="72" viewBox="0 0 72 72" fill="none" xmlns="http://www.w3.org/2000/svg">
<path d="M4.9275 0.5625L10.5834 64.0592L35.9623 71.1354L61.4121 64.0333L67.0725 0.5625H4.9275ZM55.3224 15.1099L53.4397 36.2627L53.4454 36.3769L53.4375 36.6396V36.6373L52.0999 51.4277L51.9525 52.7417L36 57.1539V57.1545L35.9876 57.1652L20.0627 52.7282L18.9844 40.5H26.7936L27.3476 46.7179L36.0022 49.0635L36 49.068V49.0669L44.6867 46.6881L45.6047 36.5625H27.4455L27.2897 34.8508L26.9347 30.8407L26.7486 28.6875H46.2949L47.0059 20.8125H17.235L17.0792 19.1019L16.7248 15.0907L16.5381 12.9375H55.5086L55.3224 15.1099Z" fill="#141414"/>
</svg>
