<svg width="72" height="72" viewBox="0 0 72 72" fill="none" xmlns="http://www.w3.org/2000/svg">
<path d="M32.9431 4.01671C32.7903 4.03205 32.3037 4.08895 31.8639 4.12922C25.6133 4.78322 19.4573 7.43053 14.4374 11.6332C13.511 12.4023 11.4006 14.5126 10.6315 15.4389C6.47597 20.4037 4.04656 25.9745 3.1496 32.5675C2.95013 34.0315 2.95013 38.9707 3.1496 40.434C4.04592 47.0264 6.47597 52.5978 10.6315 57.5626C11.4006 58.4896 13.511 60.5992 14.4374 61.3683C19.4023 65.5237 24.9733 67.953 31.5666 68.8499C33.0306 69.05 37.97 69.05 39.4334 68.8499C46.026 67.9536 51.5977 65.5237 56.5626 61.3683C57.4896 60.5992 59.5994 58.4889 60.3685 57.5626C64.524 52.5978 66.9534 47.027 67.8485 40.434C68.0505 38.97 68.0505 34.0309 67.8485 32.5675C66.9534 25.9751 64.524 20.4037 60.3685 15.4389C59.5994 14.5126 57.489 12.4023 56.5626 11.6332C51.6156 7.49318 45.9864 5.03318 39.4807 4.16183C38.7768 4.06401 37.7552 4.02438 35.8596 4.00904C34.4135 3.99177 33.0927 4.002 32.9431 4.01671ZM33.3426 7.47017C33.3426 8.40417 33.4046 10.4346 33.4948 12.3627C33.5421 13.3037 33.5971 14.6552 33.6226 15.359C33.7096 17.8542 33.9743 24.3986 34.0139 24.9836L34.0542 25.5653L33.6943 25.5257C33.4948 25.5104 33.31 25.4631 33.2774 25.4381C33.255 25.4062 33.1975 24.8538 33.1649 24.2068C33.023 21.362 32.5512 10.322 32.5032 8.70911L32.4533 6.9338L32.6784 6.90375C32.7979 6.88585 32.998 6.86348 33.1253 6.85389L33.3426 6.84622V7.47017ZM40.9914 7.27838C40.9991 7.28541 41.024 9.70066 41.0464 12.642C41.079 15.5917 41.1193 18.2359 41.1442 18.5235C41.1666 18.8202 41.1589 19.0752 41.1186 19.0925C41.0867 19.1149 40.8866 19.1149 40.6871 19.0925L40.3201 19.0605L40.2652 16.7329C40.2391 15.6756 40.2093 14.6184 40.1756 13.5613C40.1124 12.1453 40.0555 7.34295 40.1053 7.2234C40.1354 7.1339 40.2249 7.12559 40.5592 7.18312C40.7919 7.23043 40.9844 7.27071 40.9914 7.27838ZM22.5017 9.9551C22.5516 10.0273 22.9262 14.4327 23.3904 20.194C23.5432 22.1541 23.6928 23.9447 23.7177 24.1672C23.7573 24.5738 23.7497 24.5917 23.4927 24.7515C23.3507 24.8385 23.2056 24.9113 23.173 24.9113C23.1506 24.9113 23.1033 24.7036 23.0784 24.4466C22.9659 23.4077 22.5337 18.3886 22.2319 14.76C22.0542 12.6248 21.8944 10.7146 21.872 10.5068C21.8324 10.1552 21.84 10.1226 22.0472 10.0126C22.3016 9.87518 22.4467 9.85281 22.5011 9.9551H22.5017ZM44.5077 11.5636C44.7327 11.6435 44.7551 11.6831 44.8049 12.1376C44.8849 12.9368 44.8599 16.7578 44.773 16.7578C44.5403 16.7578 44.0608 16.4855 44.0211 16.3333C43.9956 16.2381 43.9738 15.1046 43.9738 13.8158C43.9738 11.219 43.9412 11.3711 44.5077 11.5636ZM29.7439 11.9382C29.7439 12.153 29.8014 13.344 29.8635 14.6002C29.9287 15.8532 30.0009 17.4444 30.0335 18.1336C30.0885 19.5247 30.1038 19.4748 29.5687 19.5074C29.3041 19.5144 29.3041 19.5144 29.2894 19.1149C29.274 18.893 29.2344 18.1962 29.1845 17.5569C29.1442 16.9176 29.0496 15.5342 28.9844 14.48C28.9409 13.7035 28.8852 12.9277 28.8175 12.153C28.7696 11.7534 28.7773 11.7381 28.9921 11.6582C29.1219 11.6109 29.3437 11.5712 29.4888 11.5712C29.7439 11.5636 29.7439 11.5636 29.7439 11.9382ZM51.9173 13.0346L52.1897 13.1439L52.2472 14.2153C52.2696 14.7997 52.2869 16.0629 52.2696 17.0154L52.2472 18.7556L51.9103 18.5881L51.5753 18.4283L51.5504 15.7739C51.5357 14.3132 51.5427 13.0742 51.558 13.0167C51.59 12.8971 51.59 12.8971 51.9173 13.0346ZM37.323 14.0805C37.3703 14.1284 37.4828 18.0038 37.4905 19.9715L37.4982 21.1555L37.1235 21.098C36.9062 21.0724 36.731 21.0507 36.724 21.043C36.6984 21.0257 36.4593 15.104 36.4593 14.528V13.936L36.8659 13.9833C37.0986 14.0152 37.2981 14.0555 37.323 14.0805ZM55.7309 14.6475C55.8287 14.76 55.8434 16.5104 55.8683 26.165C55.8907 37.2523 55.8907 37.5399 55.7481 37.5399C55.646 37.5337 55.5481 37.4972 55.4668 37.4351C55.3466 37.3475 55.3313 36.3809 55.2917 26.9091C55.2591 21.1702 55.2188 15.9581 55.1964 15.3271L55.1465 14.1757L55.3786 14.3426C55.5161 14.4404 55.6689 14.5753 55.7309 14.6475ZM48.5609 16.286C48.6012 16.318 48.6408 16.7725 48.6485 17.2948C48.6888 19.0599 48.6958 29.8908 48.6562 29.9234C48.6408 29.9381 48.4964 29.8978 48.3365 29.8358L48.0488 29.7156V16.1179L48.2739 16.1658C48.3941 16.1978 48.5213 16.2457 48.5616 16.286H48.5609ZM26.5 16.7329C26.5224 16.9502 26.562 17.4367 26.587 17.8363C26.6125 18.2288 26.6669 19.1251 26.7148 19.8194C26.812 21.2258 26.7941 21.3153 26.3395 21.3153C26.1004 21.3153 26.0678 21.2898 26.0352 21.0507C25.9553 20.5782 25.6753 16.6453 25.7156 16.5826C25.7552 16.5251 26.1727 16.3832 26.3626 16.3653C26.4124 16.3583 26.4744 16.5251 26.5 16.7329ZM13.2789 18.7729C13.3665 19.6193 13.5411 21.3952 13.6708 22.7135C13.8057 24.0323 13.9183 25.1511 13.9183 25.1984C13.9183 25.2956 13.3013 25.5979 13.2387 25.5353C13.199 25.4957 12.3999 18.4206 12.3999 18.101C12.3999 17.9092 13.0136 17.1024 13.0942 17.19C13.1191 17.2047 13.199 17.9162 13.2789 18.7729ZM44.6202 19.6122L44.8529 19.7465L44.8599 21.4751C44.8676 22.4162 44.8855 23.4729 44.8855 23.815C44.9002 24.5342 44.8126 24.6537 44.3804 24.5041L44.1337 24.4146V23.7274C44.1337 23.3457 44.1081 22.234 44.0761 21.2501L44.0282 19.4748H44.2136C44.3082 19.4748 44.493 19.5394 44.6202 19.6122ZM16.7875 22.7135C16.9326 24.2471 17.1622 26.8369 17.3143 28.4671L17.5867 31.427L17.2747 31.7358L16.9723 32.0484L16.9147 31.4161C16.8828 31.0645 16.7229 29.4363 16.5554 27.7882C16.3747 26.0198 16.1991 24.2508 16.0286 22.4814L15.8036 20.1787L16.1156 19.8916C16.3956 19.627 16.4282 19.6193 16.4832 19.7638C16.5152 19.8443 16.6501 21.1702 16.7875 22.7135ZM10.8016 23.6801C10.9761 25.2559 11.4409 29.4439 11.8405 32.985C12.24 36.526 12.6141 39.9373 12.6869 40.5766C12.7521 41.2159 12.8615 42.1844 12.9267 42.7367C13.0392 43.6701 13.0392 43.7353 12.912 43.8299C12.7195 43.9751 12.6396 43.9578 12.6396 43.7903C12.6396 43.7181 12.5674 43.1107 12.4798 42.4567C12.3347 41.3603 12.0949 39.5051 11.5605 35.342C11.3957 34.1042 11.2359 32.8656 11.081 31.6265C10.9211 30.4176 10.6891 28.6199 10.5593 27.6283C10.4314 26.6368 10.2173 24.9433 10.0798 23.8476C9.93723 22.7608 9.84964 21.7948 9.87266 21.69C9.9302 21.4751 10.3995 20.7233 10.4493 20.7706C10.464 20.793 10.6239 22.0965 10.8009 23.6794L10.8016 23.6801ZM8.35428 27.1239C8.47383 28.0854 8.69887 29.8358 8.85103 31.0243C9.00063 32.2082 9.19306 33.6863 9.28065 34.3038L9.43281 35.4226L9.26531 35.5671C9.17069 35.647 9.07351 35.677 9.04091 35.647C9.01086 35.6144 8.94565 35.2947 8.89834 34.9425C8.68242 33.4225 8.461 31.9033 8.23409 30.385L7.66701 26.4693L7.84986 25.9253C7.94704 25.6306 8.04933 25.3908 8.07426 25.3908C8.10687 25.3908 8.22642 26.1746 8.35428 27.1233V27.1239ZM52.237 26.0774C52.3495 26.1899 52.3668 26.6847 52.3668 30.3549V34.5033H52.1424C51.6552 34.5033 51.6629 34.6228 51.6309 30.0832L51.6079 25.9502H51.8624C51.9973 25.9502 52.175 26.0052 52.237 26.0774ZM34.7408 27.5082C36.5462 27.7805 38.1228 28.2849 39.6808 29.084C40.6871 29.6038 41.1666 29.963 42.2854 31.0339C43.9483 32.6257 44.9724 34.0162 45.9314 35.982C47.3302 38.8434 47.8749 41.3757 48.5609 48.1707C48.8736 51.217 49.2802 56.7385 49.3677 59.0003C49.3933 59.6575 49.4477 60.7367 49.4975 61.3977C49.5851 62.8067 49.6874 62.6143 48.449 63.2133C46.7306 64.0456 45.0747 64.6197 42.8947 65.1567C40.2249 65.8107 38.4968 66.0179 35.8596 66.0281L33.9417 66.0358L33.957 65.1165C33.957 64.6121 34.0043 63.4383 34.0542 62.5196C34.2939 58.067 34.2441 52.4482 33.934 49.3291C33.7569 47.5391 33.4149 45.3655 33.2224 44.886C33.1828 44.7818 33.365 44.6943 34.1565 44.4219C35.6052 43.9175 36.8589 43.2859 37.0507 42.9765C37.3959 42.3845 36.779 41.5355 35.9945 41.5355C35.8603 41.5355 35.4524 41.68 35.0758 41.8475C33.2851 42.6715 29.6966 43.6375 27.6259 43.8549C26.1951 44.0077 23.9722 43.9175 22.4314 43.6375C21.5926 43.4854 20.0889 42.9189 18.8327 42.272C17.3872 41.5202 16.5005 40.5216 16.2358 39.3376C16.0907 38.6983 16.1309 37.4197 16.3157 36.7005C16.5152 35.9091 17.0746 34.7577 17.5867 34.0858C19.8645 31.0895 24.5642 28.492 29.384 27.581C30.9203 27.2934 33.0927 27.2614 34.7415 27.5082H34.7408ZM59.3993 27.7556C59.687 27.8751 59.7189 27.9077 59.7189 28.18C59.7368 30.3626 59.687 35.3497 59.6467 35.5575C59.639 35.6291 59.2247 35.6368 59.0476 35.5741C58.9377 35.5345 58.9198 35.1023 58.9198 31.576C58.9198 29.0514 58.9524 27.6283 58.9997 27.6283C59.04 27.6283 59.2247 27.6859 59.3993 27.7556ZM62.8931 32.1456L63.1808 32.2658L63.1258 38.8831C63.0606 47.3166 63.053 47.5634 62.7487 48.2903C62.2538 49.4813 62.2788 49.721 62.3267 44.4948C62.3414 41.8801 62.381 39.2353 62.3989 38.6184C62.4136 38.0047 62.429 36.2684 62.4386 34.7577C62.4386 32.9345 62.461 32.026 62.5185 32.026C62.5664 32.026 62.7333 32.081 62.8931 32.1456ZM14.8223 34.1357C14.8696 34.7827 14.8523 34.8453 14.6196 35.3568L14.3651 35.9014L14.2705 35.1023C14.1177 33.8237 14.1177 33.7662 14.4201 33.5763C14.5576 33.4791 14.7021 33.4165 14.7251 33.4318C14.75 33.4465 14.7973 33.7662 14.8223 34.1357ZM9.88033 38.956C9.95257 39.61 10.512 43.9578 10.8009 46.093C11.2312 49.3943 11.2632 49.8661 11.0714 49.6667C11.049 49.6411 10.8636 48.53 10.6718 47.1964C9.42514 38.5788 9.43281 38.6363 9.53766 38.5711C9.75247 38.426 9.82535 38.5059 9.87969 38.9553L9.88033 38.956ZM15.6361 42.6166C15.684 42.8167 15.9161 44.9819 15.9161 45.246C15.9161 45.4684 15.6284 45.6781 15.5012 45.5484C15.4616 45.5081 15.3567 44.8291 15.2768 44.0473C15.1892 43.2558 15.1016 42.4318 15.0767 42.217L15.0294 41.8174L15.3094 42.1371C15.4692 42.3116 15.6112 42.5271 15.6361 42.6166ZM22.0868 45.6283C22.1744 45.7082 22.2319 46.0278 22.3016 46.8921C22.4218 48.4501 22.4391 48.3306 22.1117 48.3306C21.7748 48.3306 21.7825 48.3555 21.6725 46.9465C21.56 45.5158 21.56 45.5336 21.7748 45.5336C21.8797 45.5336 22.0146 45.581 22.0868 45.6283ZM28.418 45.7478C28.4327 45.8277 28.4723 46.3072 28.5049 46.8122C28.5305 47.3166 28.6027 48.4501 28.6647 49.3291C28.8898 52.5576 28.8975 52.9673 28.7626 52.9673C28.6098 52.9673 28.5925 52.8478 28.4173 50.5681C28.3395 49.4666 28.2513 48.3659 28.1526 47.2661C28.083 46.3973 28.0331 45.6679 28.058 45.6532C28.1456 45.556 28.3777 45.6283 28.418 45.7478ZM13.3915 47.284C13.4388 47.3563 13.7405 49.9134 14.1177 53.4072C14.2302 54.4607 14.3402 55.4772 14.3651 55.6671L14.4054 56.0123L14.2053 55.8844C14.0532 55.7796 13.9982 55.6773 13.9982 55.4925C13.9982 54.9875 13.6529 51.6715 13.3908 49.6411C13.2387 48.4904 13.1191 47.4765 13.1191 47.3786C13.1191 47.2118 13.3109 47.1466 13.3915 47.284ZM59.5195 50.625L59.4645 53.9666L59.2644 54.2606C58.8079 54.9332 58.8328 55.0597 58.8578 51.3199L58.8725 47.8907L59.1672 47.5858C59.327 47.426 59.4869 47.2917 59.5188 47.2917C59.5444 47.2917 59.5444 48.7947 59.5188 50.625H59.5195ZM52.127 55.9247C52.1673 60.5692 52.1571 60.9291 52.0299 61.071C51.95 61.1586 51.8777 61.2161 51.8553 61.1912C51.7978 61.1286 51.7179 50.9996 51.7824 50.9446C51.8151 50.9127 51.895 50.8973 51.9678 50.905C52.0701 50.9274 52.0951 51.497 52.1277 55.9241L52.127 55.9247ZM26.0205 52.743C26.0749 53.2371 26.275 55.6121 26.3549 56.7309C26.4022 57.4827 26.4022 57.5076 26.227 57.5619C26.1324 57.5952 26.0199 57.5875 25.9879 57.5479C25.9329 57.4903 25.7552 55.7169 25.5404 52.9827L25.4829 52.3281H25.7328C25.963 52.3281 25.9803 52.3434 26.0205 52.743ZM19.7367 55.5399C19.7917 55.5974 19.8319 55.7969 19.8319 55.997C19.8319 56.2041 19.9291 57.2826 20.0314 58.4013C20.3364 61.4635 20.3613 61.8778 20.2238 61.7979C20.0167 61.6777 19.8319 61.4955 19.8722 61.4482C19.8895 61.4162 19.8569 61.016 19.7917 60.5596C19.7271 60.0011 19.6738 59.4414 19.6318 58.8808C19.6018 58.4192 19.5295 57.5702 19.465 57.0032C19.3122 55.6044 19.3224 55.4446 19.4969 55.4446C19.5856 55.4472 19.6704 55.4809 19.7367 55.5399ZM23.5176 60.9189C23.5432 61.0959 23.5905 61.7499 23.6224 62.3745C23.6774 63.5732 23.6525 63.6608 23.3258 63.4134C23.2305 63.3411 23.166 63.0388 23.0707 62.1278C22.9039 60.479 22.8936 60.5442 23.2056 60.5768C23.4377 60.5992 23.4703 60.6318 23.5176 60.9189Z" fill="#141414"/>
<path d="M20.6779 31.0931C19.8276 31.441 19.7636 32.5342 20.5629 32.9212C21.1446 33.1991 21.7322 33.066 22.0361 32.5869C22.608 31.7047 21.676 30.6839 20.6779 31.0931ZM26.2177 31.8378C25.4334 32.2922 25.4334 33.3923 26.2177 33.8497C26.9941 34.2893 28 33.7092 28 32.8264C28 31.9752 26.9706 31.4026 26.2177 31.8378Z" fill="#141414"/>
</svg>
