<svg width="88" height="88" viewBox="0 0 88 88" fill="none" xmlns="http://www.w3.org/2000/svg">
<path d="M39.8306 10.8474C39.6742 10.8674 39.1766 10.9393 38.7263 10.9928C32.3307 11.8374 26.0875 14.7249 21.0532 19.1769C20.124 19.9918 18.0171 22.2159 17.2536 23.1878C13.1274 28.3978 10.7893 34.1817 10.052 40.972C9.88793 42.4798 10.0251 47.5481 10.2704 49.0442C11.3732 55.7841 14.0214 61.4338 18.4233 66.4129C19.2382 67.3428 21.4623 69.449 22.4342 70.2125C27.6441 74.3387 33.4281 76.6769 40.2184 77.4142C41.7262 77.5789 46.7945 77.4417 48.2906 77.1958C55.0305 76.093 60.6801 73.4448 65.6593 69.0429C66.5892 68.2279 68.6954 66.0039 69.4589 65.032C73.5851 59.822 75.9232 54.0381 76.6586 47.2478C76.8252 45.7399 76.6881 40.6716 76.4402 39.1756C75.3387 32.4357 72.6912 26.786 68.2892 21.8068C67.4743 20.8776 65.2502 18.7707 64.2783 18.0073C59.0872 13.8963 53.2427 11.5283 46.5429 10.8148C45.818 10.7339 44.7686 10.7216 42.8231 10.7585C41.3387 10.781 39.9837 10.8281 39.8306 10.8474ZM40.3365 14.38C40.3624 15.3385 40.4824 17.4202 40.6284 19.3963C40.7031 20.3606 40.7971 21.7459 40.8428 22.4674C41.0013 25.0254 41.4547 31.7337 41.5116 32.3328L41.569 32.9286L41.1986 32.898C40.9935 32.8878 40.8026 32.8444 40.7685 32.8197C40.7446 32.7875 40.6702 32.2223 40.6188 31.5593C40.3942 28.644 39.6035 17.3285 39.5095 15.6747L39.4091 13.8543L39.6391 13.8173C39.7613 13.7956 39.966 13.7671 40.0963 13.7537L40.3191 13.7398L40.3365 14.38ZM48.1796 13.9709C48.1877 13.9779 48.2804 16.4556 48.385 19.4733C48.5003 22.4992 48.6151 25.2113 48.6487 25.5058C48.6799 25.8096 48.6791 26.0716 48.6382 26.0904C48.606 26.1142 48.4007 26.1198 48.1954 26.1024L47.818 26.0798L47.6969 23.6928C47.6408 22.6086 47.5809 21.5246 47.517 20.4408C47.4128 18.9895 47.221 14.0631 47.2689 13.9391C47.2972 13.8464 47.3888 13.8354 47.7335 13.8851C47.9736 13.9272 48.1722 13.9632 48.1796 13.9709ZM29.2815 17.231C29.3347 17.3037 29.8414 21.8139 30.4777 27.7129C30.6889 29.72 30.8921 31.5534 30.9239 31.781C30.9758 32.1971 30.9684 32.2157 30.7092 32.3868C30.5659 32.48 30.4191 32.5588 30.3856 32.5597C30.3626 32.5603 30.3083 32.3484 30.2756 32.0854C30.1313 31.0225 29.5485 25.8842 29.1381 22.169C28.8964 19.9829 28.6794 18.0272 28.6507 17.8146C28.6002 17.4549 28.6072 17.4212 28.8167 17.3026C29.074 17.1545 29.2222 17.1275 29.2808 17.231L29.2815 17.231ZM51.9067 18.2705C52.1398 18.3462 52.1639 18.3863 52.2277 18.8513C52.3319 19.6691 52.4124 23.5908 52.3231 23.5932C52.0844 23.5996 51.5848 23.3335 51.5399 23.1785C51.511 23.0814 51.4572 21.9189 51.4214 20.5964C51.3493 17.9317 51.3201 18.0887 51.9067 18.2705ZM36.7678 19.0648C36.7738 19.2852 36.8659 20.5058 36.9644 21.7931C37.0661 23.0771 37.1845 24.7079 37.237 25.4142C37.3321 26.8401 37.3464 26.7885 36.7983 26.8368C36.5269 26.8514 36.5269 26.8514 36.5007 26.4418C36.4788 26.2146 36.4188 25.5006 36.3499 24.846C36.2908 24.1911 36.1553 22.7742 36.0591 21.6942C35.9929 20.8986 35.9142 20.1041 35.8233 19.311C35.763 18.9023 35.7704 18.8863 35.9886 18.7984C36.1205 18.7462 36.347 18.6994 36.4959 18.6954C36.7574 18.6804 36.7574 18.6804 36.7678 19.0648ZM59.5507 19.5742L59.8332 19.6788L59.922 20.7767C59.9611 21.3757 60.0139 22.6715 60.0227 23.6494L60.048 25.4357L59.6977 25.2732L59.3495 25.1185L59.2502 22.3954C59.1945 20.8968 59.1674 19.6253 59.1815 19.5658C59.211 19.4423 59.211 19.4423 59.5507 19.5742ZM44.6043 21.0527C44.6542 21.1006 44.8773 25.0742 44.9398 27.0932L44.9805 28.3079L44.5945 28.2592C44.3707 28.239 44.1904 28.2216 44.183 28.2139C44.1563 28.1969 43.7465 22.1269 43.7305 21.5359L43.714 20.9284L44.1326 20.9656C44.3723 20.992 44.578 21.0278 44.6043 21.0527ZM63.5086 21.1234C63.6121 21.2362 63.6757 23.0319 63.9694 32.9383C64.3002 44.3149 64.3082 44.6101 64.1619 44.614C64.057 44.6104 63.9555 44.5757 63.8704 44.5142C63.7446 44.4277 63.702 43.4363 63.3983 33.7179C63.2055 27.8298 63.0195 22.4825 62.979 21.8356L62.8959 20.6555L63.1386 20.8203C63.2824 20.9169 63.4429 21.051 63.5086 21.1234ZM56.1969 23.0039C56.2391 23.0356 56.2924 23.5009 56.3148 24.0366C56.4051 25.8468 56.7131 36.9607 56.6733 36.9952C56.658 37.0108 56.5086 36.9734 56.3429 36.9142L56.0443 36.7989L55.6668 22.8456L55.899 22.8885C56.0232 22.918 56.1551 22.9636 56.1976 23.0039L56.1969 23.0039ZM33.5724 24.075C33.6014 24.2974 33.6556 24.7955 33.6922 25.2048C33.7294 25.6069 33.81 26.5251 33.8785 27.2362C34.0173 28.6767 34.0014 28.7691 33.535 28.7817C33.2896 28.7883 33.2555 28.763 33.2154 28.5186C33.1202 28.036 32.7237 24.008 32.7633 23.9426C32.8024 23.8824 33.2268 23.7252 33.4211 23.7016C33.4721 23.693 33.5404 23.8625 33.5724 24.075ZM20.0627 26.5354C20.1761 27.4015 20.4045 29.2191 20.5743 30.5681C20.7493 31.9178 20.8959 33.0626 20.8972 33.1112C20.8999 33.2109 20.2752 33.5383 20.2092 33.4758C20.1674 33.4362 19.151 26.1983 19.1421 25.8703C19.1368 25.6735 19.7441 24.8286 19.8292 24.9162C19.8552 24.9306 19.957 25.6585 20.0627 26.5354ZM52.2456 26.5265L52.4881 26.6578L52.5434 28.4315C52.5774 29.3969 52.6251 30.4808 52.6346 30.8318C52.6696 31.5694 52.5831 31.6945 52.1354 31.553L51.8797 31.468L51.8607 30.7628C51.8501 30.3711 51.793 29.231 51.7328 28.2223L51.6343 26.4019L51.8246 26.3968C51.9217 26.3941 52.113 26.4553 52.2456 26.5265ZM23.7723 30.4816C23.9638 32.0513 24.2713 34.7025 24.4727 36.3711L24.8343 39.4008L24.5227 39.7264L24.2211 40.0555L24.1445 39.4083C24.102 39.0484 23.8928 37.382 23.6751 35.6955C23.4406 33.8858 23.2113 32.0755 22.9872 30.2645L22.6924 27.9079L23.0045 27.6046C23.2845 27.3253 23.3178 27.3165 23.3782 27.4632C23.4132 27.545 23.5885 28.9018 23.7723 30.4816ZM17.657 31.6397C17.8798 33.2519 18.473 37.5365 18.9813 41.1591C19.4897 44.7816 19.9682 48.2717 20.0607 48.9257C20.1454 49.5799 20.2844 50.5707 20.3667 51.1357C20.5081 52.0903 20.5099 52.1573 20.382 52.2579C20.1885 52.4121 20.106 52.3966 20.1014 52.2248C20.0994 52.1506 20.0084 51.5294 19.9004 50.8608C19.721 49.7397 19.4235 47.8427 18.7595 43.5856C18.5561 42.3199 18.3577 41.0534 18.1643 39.7861C17.9667 38.5501 17.6787 36.7118 17.518 35.6979C17.3592 34.684 17.0924 32.9522 16.921 31.8316C16.7445 30.7204 16.6278 29.7316 16.6485 29.6233C16.7016 29.4013 17.1622 28.6168 17.2147 28.664C17.2304 28.6865 17.4306 30.0197 17.6563 31.6391L17.657 31.6397ZM15.2414 35.2416C15.3908 36.2249 15.6703 38.0148 15.8594 39.2301C16.0458 40.4409 16.2843 41.9522 16.3913 42.5835L16.5785 43.7273L16.4106 43.8802C16.3158 43.9648 16.2169 43.9984 16.1826 43.9684C16.1509 43.9358 16.0751 43.6096 16.0167 43.2495C15.753 41.6958 15.4836 40.143 15.2086 38.5912L14.518 34.5889L14.6905 34.0256C14.782 33.7204 14.8803 33.4716 14.9059 33.4709C14.9394 33.47 15.0838 34.271 15.2414 35.2409L15.2414 35.2416ZM60.2408 32.9493C60.3594 33.0616 60.3909 33.5689 60.4928 37.335L60.608 41.5919L60.3777 41.5981C59.8778 41.6116 59.889 41.7341 59.7302 37.0766L59.5918 32.8362L59.8529 32.8291C59.9913 32.8254 60.1752 32.8768 60.2408 32.9493ZM42.3275 34.9032C44.1877 35.1325 45.8194 35.6063 47.4403 36.3831C48.4873 36.8885 48.9893 37.2439 50.167 38.3116C51.9175 39.8989 53.007 41.2973 54.0456 43.2879C55.5604 46.1854 56.1897 48.7687 57.0822 55.7224C57.4876 58.8396 58.0582 64.4942 58.2108 66.8128C58.2553 67.4864 58.341 68.5923 58.4106 69.2692C58.5396 70.7126 58.6392 70.5123 57.3851 71.1614C55.6449 72.0632 53.9618 72.6983 51.7397 73.3099C49.0183 74.0551 47.2509 74.3156 44.5451 74.3994L42.5773 74.4605L42.5675 73.5167C42.5535 72.9991 42.5695 71.7934 42.5951 70.8493C42.7175 66.2735 42.5103 60.5093 42.1056 57.3172C41.8741 55.4853 41.4628 53.2643 41.2521 52.7777C41.2085 52.6718 41.393 52.5769 42.1976 52.2755C43.6701 51.7177 44.939 51.0347 45.1272 50.7119C45.465 50.0948 44.8084 49.2408 44.0035 49.2626C43.8657 49.2663 43.4512 49.4259 43.0695 49.6082C41.2549 50.5035 37.5995 51.5944 35.4807 51.8749C34.0168 52.0714 31.7334 52.0407 30.1446 51.7961C29.2797 51.6633 27.721 51.1238 26.414 50.4948C24.9099 49.7635 23.9723 48.7634 23.6678 47.5558C23.5011 46.9038 23.507 45.5907 23.6766 44.8476C23.8593 44.0299 24.4013 42.8329 24.9081 42.1292C27.1623 38.9912 31.9125 36.1954 36.8329 35.1267C38.4013 34.7889 40.6295 34.6957 42.3282 34.9032L42.3275 34.9032ZM67.6367 34.4724C67.9352 34.5871 67.9689 34.6197 67.9765 34.8991C68.0555 37.1383 68.1428 42.2572 68.1072 42.4715C68.1013 42.5452 67.6765 42.5646 67.493 42.5052C67.3791 42.4676 67.3487 42.0246 67.2508 38.406C67.1807 35.8155 67.1746 34.3543 67.2232 34.353C67.2645 34.3518 67.4557 34.4058 67.6367 34.4724ZM71.3437 38.8802L71.6422 38.9956L71.7696 45.7875C71.9368 54.4433 71.9358 54.6968 71.6437 55.4511C71.1691 56.687 71.2013 56.9323 71.1054 51.5681C71.0479 48.8846 71.0151 46.1696 71.0163 45.536C71.0144 44.9059 70.9819 43.1237 70.9498 41.5733C70.8992 39.7024 70.8969 38.7696 70.956 38.768C71.0052 38.7666 71.1779 38.8184 71.3437 38.8802ZM22.0729 42.2571C22.1394 42.9197 22.1235 42.9844 21.8989 43.5157L21.6529 44.0817L21.5336 43.2643C21.3413 41.9565 21.3397 41.8975 21.6448 41.6943C21.7831 41.5907 21.9296 41.5224 21.9537 41.5375C21.9797 41.5519 22.0371 41.8786 22.0729 42.2571ZM17.1358 47.3406C17.2281 48.0097 17.9228 52.4557 18.2786 54.6388C18.8118 58.0145 18.8577 58.4977 18.6554 58.2984C18.6317 58.2727 18.4106 57.1377 18.1768 55.7746C16.6583 46.9662 16.6677 47.0251 16.7735 46.9552C16.9899 46.8004 17.0669 46.8803 17.1351 47.34L17.1358 47.3406ZM23.1435 50.9371C23.1983 51.1411 23.4965 53.3566 23.5039 53.6275C23.51 53.8558 23.2207 54.079 23.0865 53.9493C23.0447 53.9091 22.9183 53.2153 22.8146 52.4153C22.7027 51.6056 22.59 50.7624 22.5584 50.5427L22.4988 50.134L22.795 50.4542C22.9638 50.6289 23.1154 50.846 23.1435 50.9371ZM29.8463 53.8485C29.9384 53.9281 30.0063 54.2545 30.1018 55.1395C30.2684 56.7348 30.2828 56.6117 29.9469 56.6208C29.6012 56.6301 29.6097 56.6555 29.4578 55.2127C29.3026 53.7477 29.3031 53.766 29.5235 53.7601C29.6311 53.7572 29.7708 53.802 29.8463 53.8485ZM36.3461 53.7954C36.3634 53.877 36.4174 54.3679 36.4648 54.8852C36.5051 55.4021 36.6107 56.5632 36.6987 57.4635C37.0193 60.7701 37.0385 61.1904 36.9001 61.1941C36.7433 61.1984 36.7223 61.0762 36.4793 58.7417C36.3688 57.6136 36.2477 56.4866 36.116 55.3608C36.0204 54.4712 35.9489 53.7241 35.9741 53.7083C36.0613 53.6061 36.3014 53.6738 36.3461 53.7954ZM20.9699 55.789C21.0204 55.8618 21.4011 58.4775 21.8851 62.0521C22.0298 63.1301 22.1709 64.1701 22.2017 64.3642L22.2527 64.7173L22.0438 64.5917C21.8847 64.4883 21.8255 64.3849 21.8203 64.1953C21.8063 63.6771 21.36 60.2839 21.0347 58.2077C20.8466 57.0311 20.6957 55.994 20.693 55.8936C20.6884 55.7224 20.8834 55.6502 20.9699 55.789ZM68.3951 57.9365L68.4314 61.367L68.2343 61.6743C67.7845 62.3771 67.8136 62.5063 67.7354 58.668L67.6552 55.1487L67.9492 54.8276C68.1088 54.6592 68.269 54.517 68.3018 54.5161C68.3281 54.5154 68.3698 56.0577 68.3944 57.9365L68.3951 57.9365ZM60.9568 63.5801C61.1271 68.3449 61.1266 68.7145 61 68.8637C60.9204 68.9558 60.8479 69.0168 60.8242 68.9919C60.7634 68.9292 60.4002 58.5376 60.4649 58.4793C60.4975 58.4456 60.579 58.4277 60.654 58.4335C60.7596 58.4536 60.801 59.0375 60.9574 63.5794L60.9568 63.5801ZM34.0803 61.04C34.1497 61.5456 34.421 63.9771 34.5341 65.1229C34.6035 65.8931 34.6042 65.9187 34.426 65.9793C34.3298 66.016 34.2141 66.0113 34.1802 65.9715C34.1222 65.914 33.8906 64.0991 33.5943 61.2993L33.517 60.6292L33.7735 60.6222C34.0097 60.6159 34.0278 60.6311 34.0803 61.04ZM27.71 64.0845C27.768 64.142 27.8149 64.3456 27.8204 64.5509C27.8262 64.7635 27.9559 65.8675 28.0919 67.0126C28.4898 70.1465 28.5269 70.5709 28.3836 70.4927C28.1678 70.3751 27.9731 70.1933 28.0131 70.1436C28.03 70.1103 27.9854 69.7006 27.9058 69.234C27.8241 68.6627 27.7539 68.0898 27.6952 67.5157C27.6515 67.0429 27.5538 66.1738 27.4718 65.5937C27.2762 64.1626 27.2823 63.9983 27.4614 63.9934C27.5524 63.9936 27.6404 64.0259 27.71 64.0845ZM31.739 69.4992C31.7702 69.6802 31.8369 70.35 31.887 70.99C31.9767 72.2185 31.9536 72.3091 31.6115 72.0643C31.5117 71.9928 31.4371 71.6843 31.314 70.7521C31.097 69.0649 31.0883 69.1321 31.4094 69.1569C31.6481 69.1734 31.6825 69.206 31.739 69.4992Z" fill="#141414"/>
<path d="M27.9893 39.2228C27.1458 39.6145 27.1129 40.7748 27.9263 41.1631C28.5181 41.4418 29.104 41.2848 29.3953 40.7688C29.944 39.8185 28.9793 38.762 27.9893 39.2228ZM33.571 39.8615C32.7968 40.3643 32.8283 41.53 33.6287 41.9935C34.4206 42.4382 35.4136 41.7962 35.3883 40.8607C35.3639 39.9587 34.3142 39.3799 33.571 39.8615Z" fill="#141414"/>
</svg>
