<svg width="87" height="87" viewBox="0 0 87 87" fill="none" xmlns="http://www.w3.org/2000/svg">
<path d="M38.9985 1.21687L52.7288 0.845344L54.4485 64.3996C47.4411 65.9284 42.2843 66.603 36.6682 66.755C19.9065 67.2079 10.964 59.8674 10.5708 45.3342C10.192 31.3362 19.2186 21.9917 33.5721 21.6033C35.8013 21.543 37.4999 21.6756 39.5651 22.1547L38.9985 1.21687ZM39.8641 33.2072C38.2451 32.716 36.9027 32.5744 35.2088 32.6202C28.2551 32.8084 24.3581 37.1961 24.5608 44.6851C24.7586 51.9964 28.7015 55.9041 35.7451 55.7135C37.2598 55.6725 38.5058 55.5495 40.4601 55.2301L39.8641 33.2072Z" fill="#141414"/>
<path d="M75.1436 21.4572L76.0049 53.2862C76.3016 64.2527 75.641 69.5343 73.3571 74.1463C71.2462 78.5763 68.3788 81.419 62.3986 84.6144L49.485 78.8973C55.4707 75.8796 58.3447 73.3051 60.1132 69.4188C61.9685 65.4434 62.4706 60.8797 62.1474 48.9325L61.414 21.8288L75.1436 21.4572ZM60.8415 0.6987L74.5718 0.32717L74.953 14.4143L61.2227 14.7859L60.8415 0.6987Z" fill="#141414"/>
</svg>
