<svg width="72" height="72" viewBox="0 0 72 72" fill="none" xmlns="http://www.w3.org/2000/svg">
<path d="M33.4395 0H45.2126V54.495C39.1731 55.6425 34.7389 56.1009 29.9233 56.1009C15.5509 56.1004 8.05893 49.6035 8.05893 37.1419C8.05893 25.1392 16.0099 17.3419 28.3174 17.3419C30.2287 17.3419 31.6811 17.4949 33.4395 17.9533V0ZM33.4395 27.4303C32.0636 26.9719 30.9167 26.8194 29.4643 26.8194C23.5018 26.8194 20.061 30.4886 20.061 36.9101C20.061 43.1792 23.3488 46.6189 29.3884 46.6189C30.6872 46.6189 31.7576 46.5424 33.4395 46.314V27.4303Z" fill="#141414"/>
<path d="M63.9405 18.1806V45.4725C63.9405 54.8758 63.252 59.3859 61.1882 63.2846C59.2768 67.0314 56.754 69.4007 51.5559 72L40.6237 66.8019C45.8224 64.3551 48.3446 62.2159 49.95 58.9269C51.6319 55.5638 52.1679 51.6651 52.1679 41.4208V18.1806H63.9405ZM52.1674 0.062439H63.9405V12.1416H52.1674V0.062439Z" fill="#141414"/>
</svg>
