<svg width="72" height="72" viewBox="0 0 72 72" fill="none" xmlns="http://www.w3.org/2000/svg">
<path d="M27.6019 18.3713C19.5187 16.8975 13.1344 18.4388 10.5862 22.8713C8.685 26.1619 9.23062 30.5269 11.9025 35.19C11.9568 35.2846 12.0292 35.3675 12.1155 35.4341C12.2019 35.5006 12.3005 35.5496 12.4057 35.578C12.511 35.6065 12.6208 35.6139 12.7289 35.6C12.8371 35.586 12.9414 35.5509 13.0359 35.4966C13.1305 35.4423 13.2134 35.3699 13.28 35.2835C13.3466 35.1972 13.3955 35.0986 13.424 34.9933C13.4524 34.8881 13.4599 34.7783 13.4459 34.6701C13.4319 34.562 13.3968 34.4577 13.3425 34.3631C10.935 30.1613 10.4625 26.3925 12.0206 23.6756C14.1356 20.0138 19.8337 18.6131 27.3037 19.9969C27.5201 20.0364 27.7432 19.9884 27.9241 19.8634C28.1051 19.7384 28.2289 19.5466 28.2684 19.3303C28.308 19.114 28.26 18.8908 28.1349 18.7099C28.0099 18.529 27.8182 18.4052 27.6019 18.3656V18.3713ZM16.1044 40.8431C19.7085 44.7057 23.8817 47.9949 28.4794 50.5969C40.2019 57.3469 52.6669 59.175 58.8544 54.9788C59.0356 54.8549 59.1603 54.6642 59.2009 54.4484C59.2415 54.2327 59.1948 54.0097 59.0709 53.8284C58.9471 53.6472 58.7564 53.5225 58.5406 53.4819C58.3249 53.4413 58.1019 53.4881 57.9206 53.6119C52.3744 57.375 40.5 55.6425 29.2894 49.1569C24.8467 46.6389 20.814 43.4579 17.3306 39.7238C17.1814 39.5611 16.9738 39.4645 16.7533 39.455C16.5328 39.4455 16.3176 39.5239 16.155 39.6731C15.9924 39.8223 15.8957 40.03 15.8862 40.2505C15.8767 40.4709 15.9552 40.6861 16.1044 40.8488V40.8431Z" fill="#141414"/>
<path d="M56.8462 39.8306C62.1394 33.5813 63.9844 27.2925 61.4419 22.8938C59.5744 19.6538 55.62 17.9438 50.3662 17.8763C50.1462 17.8763 49.9352 17.9637 49.7796 18.1193C49.624 18.2749 49.5366 18.4859 49.5366 18.7059C49.5366 18.926 49.624 19.137 49.7796 19.2926C49.9352 19.4482 50.1462 19.5356 50.3662 19.5356C55.0913 19.5975 58.4944 21.0713 60.03 23.7263C62.1394 27.3825 60.4912 32.9906 55.6031 38.7675C55.533 38.8506 55.4798 38.9467 55.4468 39.0503C55.4138 39.154 55.4015 39.2631 55.4106 39.3715C55.4198 39.4799 55.4501 39.5854 55.5001 39.682C55.55 39.7787 55.6185 39.8645 55.7016 39.9347C55.7847 40.0049 55.8808 40.058 55.9844 40.091C56.088 40.124 56.1972 40.1363 56.3055 40.1272C56.4139 40.1181 56.5195 40.0877 56.6161 40.0377C56.7127 39.9878 56.7986 39.9194 56.8688 39.8363L56.8462 39.8306ZM43.2506 18.6469C38.0571 19.8255 33.0765 21.7987 28.485 24.4969C16.3856 31.5 8.48812 41.7881 9.5625 49.2581C9.57838 49.3689 9.61593 49.4755 9.67301 49.5718C9.73008 49.6681 9.80556 49.7522 9.89514 49.8193C9.98472 49.8864 10.0866 49.9353 10.1951 49.963C10.3035 49.9907 10.4164 49.9968 10.5272 49.9809C10.638 49.9651 10.7446 49.9275 10.8409 49.8704C10.9372 49.8134 11.0213 49.7379 11.0884 49.6483C11.1555 49.5587 11.2043 49.4568 11.2321 49.3483C11.2598 49.2399 11.2659 49.1271 11.25 49.0163C10.2544 42.3844 17.7356 32.625 29.3119 25.9369C33.7534 23.3173 38.5726 21.3991 43.5994 20.25C43.7057 20.2271 43.8066 20.1835 43.8961 20.1216C43.9856 20.0598 44.062 19.9809 44.1211 19.8895C44.1801 19.798 44.2205 19.6959 44.2401 19.5889C44.2596 19.4818 44.2579 19.372 44.235 19.2656C44.2121 19.1593 44.1685 19.0584 44.1066 18.9689C44.0448 18.8794 43.9659 18.803 43.8745 18.7439C43.783 18.6849 43.6809 18.6445 43.5739 18.6249C43.4668 18.6054 43.357 18.6071 43.2506 18.63V18.6469Z" fill="#141414"/>
<path d="M23.625 54.4388C26.4375 62.1619 30.9375 66.9375 36.0281 66.9375C39.7406 66.9375 43.1719 64.4063 45.8494 59.9513C45.9672 59.764 46.0059 59.5377 45.9568 59.3219C45.9078 59.1062 45.775 58.9188 45.5878 58.8009C45.4006 58.6831 45.1742 58.6444 44.9585 58.6935C44.7428 58.7425 44.5554 58.8753 44.4375 59.0625C42.03 63.0675 39.0769 65.25 36.0337 65.25C31.8037 65.25 27.7706 61.0088 25.2112 53.865C25.1367 53.6584 24.983 53.4899 24.7842 53.3965C24.5853 53.3031 24.3576 53.2926 24.1509 53.3672C23.9443 53.4418 23.7758 53.5954 23.6824 53.7942C23.5891 53.9931 23.5785 54.2209 23.6531 54.4275L23.625 54.4388ZM48.9375 52.9256C50.4339 47.9455 51.1752 42.7693 51.1369 37.5694C51.1369 23.8388 46.3331 12.0094 39.4875 8.96625C39.3878 8.92193 39.2803 8.89769 39.1712 8.8949C39.0621 8.89212 38.9535 8.91085 38.8517 8.95002C38.7498 8.98919 38.6567 9.04805 38.5776 9.12322C38.4985 9.19839 38.4349 9.28841 38.3906 9.38813C38.3011 9.58953 38.2953 9.81823 38.3744 10.0239C38.4535 10.2296 38.6111 10.3955 38.8125 10.485C44.9156 13.1963 49.5 24.4238 49.5 37.5694C49.5374 42.6015 48.8207 47.6109 47.3737 52.4306C47.3412 52.5344 47.3295 52.6436 47.3392 52.7519C47.3489 52.8602 47.3798 52.9656 47.4302 53.062C47.4806 53.1583 47.5495 53.2438 47.633 53.3136C47.7164 53.3833 47.8128 53.4359 47.9166 53.4684C48.0203 53.5009 48.1295 53.5127 48.2378 53.503C48.3462 53.4933 48.4515 53.4624 48.5479 53.412C48.6443 53.3616 48.7298 53.2927 48.7995 53.2092C48.8692 53.1258 48.9219 53.0294 48.9544 52.9256H48.9375ZM64.5244 52.1156C64.5244 51.3313 64.2918 50.5646 63.856 49.9124C63.4203 49.2603 62.8009 48.752 62.0763 48.4519C61.3517 48.1517 60.5544 48.0732 59.7851 48.2262C59.0158 48.3792 58.3092 48.7569 57.7546 49.3115C57.2 49.8661 56.8223 50.5727 56.6693 51.342C56.5163 52.1112 56.5948 52.9086 56.895 53.6332C57.1951 54.3578 57.7034 54.9772 58.3556 55.4129C59.0077 55.8487 59.7744 56.0813 60.5588 56.0813C61.0795 56.0813 61.5952 55.9787 62.0763 55.7794C62.5575 55.5801 62.9946 55.288 63.3629 54.9198C63.7311 54.5515 64.0232 54.1143 64.2225 53.6332C64.4218 53.1521 64.5244 52.6364 64.5244 52.1156ZM62.865 52.1156C62.865 52.5718 62.7297 53.0177 62.4763 53.3969C62.2229 53.7762 61.8627 54.0718 61.4413 54.2463C61.0199 54.4209 60.5562 54.4666 60.1088 54.3776C59.6615 54.2886 59.2505 54.0689 58.928 53.7464C58.6054 53.4239 58.3858 53.0129 58.2968 52.5656C58.2078 52.1182 58.2535 51.6545 58.4281 51.2331C58.6026 50.8117 58.8982 50.4515 59.2775 50.1981C59.6567 49.9446 60.1026 49.8094 60.5588 49.8094C61.1704 49.8094 61.757 50.0524 62.1895 50.4849C62.622 50.9174 62.865 51.504 62.865 52.1156ZM11.4412 56.0813C12.2256 56.0813 12.9923 55.8487 13.6444 55.4129C14.2966 54.9772 14.8049 54.3578 15.105 53.6332C15.4052 52.9086 15.4837 52.1112 15.3307 51.342C15.1777 50.5727 14.8 49.8661 14.2454 49.3115C13.6908 48.7569 12.9842 48.3792 12.2149 48.2262C11.4456 48.0732 10.6483 48.1517 9.92367 48.4519C9.19905 48.752 8.5797 49.2603 8.14395 49.9124C7.7082 50.5646 7.47562 51.3313 7.47562 52.1156C7.47562 53.1674 7.89343 54.1761 8.63713 54.9198C9.38083 55.6634 10.3895 56.0813 11.4412 56.0813ZM11.4412 54.4219C10.9851 54.4219 10.5392 54.2866 10.16 54.0332C9.7807 53.7798 9.48511 53.4196 9.31055 52.9982C9.136 52.5768 9.09033 52.1131 9.17931 51.6657C9.2683 51.2183 9.48795 50.8074 9.81048 50.4849C10.133 50.1623 10.544 49.9427 10.9913 49.8537C11.4387 49.7647 11.9024 49.8104 12.3238 49.9849C12.7452 50.1595 13.1054 50.4551 13.3588 50.8343C13.6122 51.2136 13.7475 51.6595 13.7475 52.1156C13.7475 52.7273 13.5045 53.3139 13.072 53.7464C12.6395 54.1789 12.0529 54.4219 11.4412 54.4219Z" fill="#141414"/>
<path d="M36.0281 13.0106C36.8125 13.0106 37.5792 12.778 38.2313 12.3423C38.8834 11.9066 39.3917 11.2872 39.6919 10.5626C39.992 9.83796 40.0706 9.0406 39.9176 8.27135C39.7645 7.50209 39.3868 6.79549 38.8322 6.24088C38.2776 5.68628 37.571 5.30859 36.8018 5.15558C36.0325 5.00256 35.2352 5.08109 34.5105 5.38124C33.7859 5.68139 33.1666 6.18968 32.7308 6.84182C32.2951 7.49396 32.0625 8.26068 32.0625 9.045C32.0625 10.0968 32.4803 11.1054 33.224 11.8491C33.9677 12.5928 34.9764 13.0106 36.0281 13.0106ZM36.0281 11.3513C35.572 11.3513 35.1261 11.216 34.7468 10.9626C34.3676 10.7092 34.072 10.349 33.8974 9.92757C33.7229 9.50615 33.6772 9.04244 33.7662 8.59508C33.8552 8.14771 34.0748 7.73677 34.3974 7.41424C34.7199 7.0917 35.1308 6.87205 35.5782 6.78307C36.0256 6.69408 36.4893 6.73975 36.9107 6.91431C37.3321 7.08886 37.6923 7.38446 37.9457 7.76372C38.1991 8.14298 38.3344 8.58887 38.3344 9.045C38.3344 9.65666 38.0914 10.2433 37.6589 10.6758C37.2264 11.1083 36.6398 11.3513 36.0281 11.3513ZM36.6356 40.3706C36.0812 40.4947 35.5024 40.4513 34.9727 40.2461C34.4429 40.0408 33.986 39.6828 33.66 39.2176C33.3339 38.7523 33.1533 38.2008 33.1411 37.6327C33.1289 37.0647 33.2856 36.5059 33.5914 36.0271C33.8972 35.5483 34.3383 35.171 34.8587 34.9432C35.3792 34.7153 35.9555 34.6471 36.5148 34.7473C37.074 34.8474 37.5909 35.1113 38 35.5056C38.4091 35.8999 38.6918 36.4067 38.8125 36.9619C38.9734 37.7024 38.8348 38.4765 38.427 39.1151C38.0191 39.7538 37.3751 40.2052 36.6356 40.3706Z" fill="#141414"/>
</svg>
