<svg width="72" height="72" viewBox="0 0 72 72" fill="none" xmlns="http://www.w3.org/2000/svg">
<path d="M71.2519 55.3725C68.6869 56.025 67.1006 55.4006 65.6775 53.2631C62.4825 48.4762 58.9556 43.9087 55.5525 39.2569C55.1138 38.655 54.6581 38.0644 54.09 37.3162C50.0625 42.75 46.0406 47.925 42.2662 53.3081C40.9162 55.2319 39.4987 56.07 36.9787 55.3894L52.1213 35.0662L38.025 16.7119C40.4494 16.2394 42.1256 16.4812 43.6106 18.6525C46.89 23.445 50.5069 28.0069 54.1125 32.8331C57.7406 28.0237 61.3125 23.4562 64.6875 18.7087C66.0431 16.785 67.5 16.0537 69.9356 16.7625C68.0906 19.2094 66.285 21.6169 64.4681 24.0075C62.0156 27.2306 59.6081 30.4931 57.0656 33.6487C56.16 34.7737 56.3062 35.505 57.1162 36.5681C61.8187 42.75 66.465 48.9938 71.2519 55.3725ZM0.748126 34.7288C1.15313 32.6981 1.42313 30.6281 1.98563 28.6369C5.36063 16.5825 19.1981 11.5706 28.7044 19.0406C34.2731 23.4225 35.6569 29.5987 35.3813 36.5625H3.99375C3.52125 49.0556 12.5156 56.5987 23.9794 52.7512C28.0013 51.4012 30.3694 48.2512 31.5562 44.3137C32.1581 42.3394 33.1538 42.03 35.01 42.5925C34.0594 47.52 31.905 51.6375 27.405 54.2137C20.655 58.0725 11.0194 56.8237 5.95125 51.4631C2.95875 48.3131 1.6875 44.3925 1.125 40.1569C1.04063 39.4819 0.866251 38.8181 0.731251 38.1487C0.742501 37.0087 0.748126 35.8687 0.748126 34.7288ZM4.05 33.8906H32.4169C32.2313 24.8569 26.6063 18.4387 18.9169 18.3825C10.4794 18.315 4.41563 24.5812 4.05 33.8906Z" fill="#141414"/>
</svg>
