<svg width="87" height="87" viewBox="0 0 87 87" fill="none" xmlns="http://www.w3.org/2000/svg">
<path d="M84.8442 64.6014C81.8734 65.4433 80.0037 64.7652 78.2766 62.3173C74.3994 56.8355 70.1421 51.62 66.0264 46.3021C65.4957 45.6141 64.9457 44.9396 64.2595 44.0851C59.734 50.5492 55.2068 56.7114 50.9749 63.1086C49.4611 65.3947 47.8345 66.4169 44.874 65.7027L61.8925 41.5232L44.8737 20.5624C47.6862 19.9348 49.6487 20.164 51.4491 22.6494C55.4249 28.1351 59.787 33.3412 64.1443 38.856C68.2238 33.1326 72.2453 27.6931 76.0315 22.0498C77.5518 19.7635 79.2278 18.8647 82.0907 19.6144C80.0162 22.5263 77.9864 25.391 75.9429 28.2364C73.1844 32.0727 70.4797 35.9535 67.6141 39.714C66.5934 41.0546 66.787 41.9028 67.7653 43.1171C73.4446 50.1782 79.0603 57.3133 84.8442 64.6014ZM1.96846 42.7508C2.37671 40.3698 2.62627 37.9471 3.21944 35.6071C6.77509 21.4423 22.7548 15.1606 34.0771 23.5724C40.7098 28.507 42.5185 35.6663 42.4169 43.7964L5.81151 44.7869C5.65471 59.3718 16.3824 67.8851 29.6304 63.0362C34.2783 61.3348 36.9407 57.5865 38.2006 52.9569C38.8402 50.6353 39.9916 50.2431 42.1742 50.8406C41.221 56.6172 38.8384 61.4872 33.6717 64.6337C25.9213 69.347 14.6445 68.1947 8.56465 62.1029C4.97527 58.5236 3.36896 53.9914 2.57929 49.0694C2.45958 48.2848 2.23527 47.5162 2.05671 46.7398C2.03385 45.41 2.00444 44.0803 1.96846 42.7508ZM5.79279 41.6691L38.8754 40.7739C38.3738 30.2443 31.6112 22.9367 22.6417 23.1137C12.7995 23.3013 5.92541 30.8006 5.79279 41.6691Z" fill="#141414"/>
</svg>
