<svg width="73" height="72" viewBox="0 0 73 72" fill="none" xmlns="http://www.w3.org/2000/svg">
<path fill-rule="evenodd" clip-rule="evenodd" d="M30.7765 30.5467H36.4927C36.6548 27.7494 35.4954 22.2521 29.5602 22.6412C22.1413 23.1277 19.344 29.8169 21.8981 33.8304C22.8469 35.3214 23.9299 36.4934 24.8854 37.5274C26.5019 39.2768 27.7533 40.631 27.3711 42.4656C26.7629 45.3845 24.817 43.8034 24.5738 43.1953C24.3792 42.7088 24.3305 41.6953 24.3305 41.2493L18.8575 41.1277C18.5332 43.9656 19.344 49.5439 25.1819 49.1548C32.2528 48.6834 33.0559 45.4202 33.5291 43.4973C33.5443 43.4358 33.5591 43.3756 33.5738 43.3169C34.1819 40.8845 33.1408 36.9926 30.7765 34.8034C26.352 30.7067 27.1278 28.6007 28.2224 27.9926C29.317 27.3845 30.7765 27.9926 30.7765 30.5467ZM13.3846 31.398H19.344C19.3846 28.4385 18.1035 22.544 12.6548 22.6412C5.84402 22.7629 1.83051 28.3575 0.37105 36.0196C-1.08841 43.6818 1.95213 48.6683 6.08727 49.2764C10.2224 49.8845 14.4792 47.0872 15.817 45.3845C16.8873 44.0223 17.9656 40.7629 18.3711 39.3034H19.8305L20.8035 34.8034H11.4386L10.4656 39.3034H12.6548C12.0062 41.0872 10.1738 44.3872 8.03321 43.3169C5.35754 41.9791 5.47916 39.425 6.08727 36.0196C6.69538 32.6142 9.49268 28.1142 11.4386 28.3575C12.9954 28.5521 13.3846 30.4656 13.3846 31.398ZM52.0602 23.1277H43.9116L32.4792 48.6683H38.8035L40.1413 45.7493H45.9792V48.6683H52.0602V23.1277ZM58.8711 23.1277L52.79 48.6683H58.8711L59.4792 45.3845L57.0467 43.6818C61.1008 44.0061 69.6224 43.0007 71.2765 36.3845C73.344 28.1142 71.7629 21.6683 58.8711 23.1277ZM66.7765 48.0602V46.6007C68.3332 46.4061 68.1548 47.1683 67.8711 47.5737L68.2359 48.0602H67.7494L67.2629 47.5737V48.0602H66.7765ZM60.3305 28.7027L63.0062 30.6487L61.4251 37.946L61.5103 37.9242C63.0796 37.5233 65.089 37.01 65.9251 32.3514C66.1893 30.8793 65.5602 28.7027 64.344 28.7027L60.3305 28.7027ZM46.4656 30.0406V40.1351H42.3305L46.4656 30.0406ZM67.2629 47.4325V46.946C67.5062 46.946 67.6278 46.9946 67.6278 47.1892C67.6278 47.3838 67.4251 47.4325 67.2629 47.4325ZM69.2089 47.4324C69.2089 48.3728 68.3921 49.1351 67.3846 49.1351C66.377 49.1351 65.5602 48.3728 65.5602 47.4324C65.5602 46.4921 66.377 45.7297 67.3846 45.7297C68.3921 45.7297 69.2089 46.4921 69.2089 47.4324ZM68.6709 47.4324C68.6709 48.1041 68.095 48.6486 67.3846 48.6486C66.6741 48.6486 66.0982 48.1041 66.0982 47.4324C66.0982 46.7607 66.6741 46.2162 67.3846 46.2162C68.095 46.2162 68.6709 46.7607 68.6709 47.4324Z" fill="#141414"/>
</svg>
