<svg width="72" height="72" viewBox="0 0 72 72" fill="none" xmlns="http://www.w3.org/2000/svg">
<path d="M0.791992 0.792H71.208V71.2086H0.791992V0.792Z" fill="#141414"/>
<path d="M65.4452 54.414C64.9294 51.2016 62.8346 48.5033 56.6297 45.9872C54.4742 44.9966 52.0712 44.2873 51.3551 42.6538C51.1009 41.7032 51.0671 41.1677 51.228 40.5923C51.6898 38.7248 53.919 38.1426 55.6858 38.6781C56.8237 39.0594 57.9009 39.9364 58.5506 41.3353C61.5893 39.3677 61.5831 39.3806 63.7048 38.0284C62.928 36.8241 62.5134 36.2683 62.0049 35.7531C60.1774 33.7118 57.6872 32.6604 53.7047 32.7409L51.6302 33.0092C49.6423 33.5115 47.7478 34.5549 46.6369 35.9539C43.3035 39.7361 44.2541 46.3556 48.3103 49.0798C52.3063 52.0791 58.1766 52.7614 58.9264 55.566C59.6559 58.9995 56.403 60.111 53.1698 59.7161C50.787 59.2206 49.4618 58.0095 48.0291 55.8073C45.3921 57.3334 45.3921 57.3334 42.6808 58.8926C43.3238 60.2983 43.9993 60.9345 45.0771 62.1523C50.1778 67.3262 62.9421 67.0719 65.2314 59.2408C65.3242 58.9719 65.9408 57.1787 65.4452 54.414ZM39.0724 33.1554H32.4861L32.4591 50.1834C32.4591 53.8048 32.6464 57.1247 32.0574 58.1423C31.0939 60.1436 28.5969 59.8956 27.459 59.5074C26.3008 58.9382 25.7119 58.1288 25.0296 56.9846C24.8423 56.6561 24.7016 56.4019 24.6544 56.3822L19.2994 59.6616C20.1898 61.4891 21.5016 63.0754 23.1818 64.1059C25.6916 65.6123 29.0649 66.0741 32.5929 65.2641C34.8891 64.5953 36.8702 63.2098 37.9074 61.101C39.4071 58.3363 39.0853 54.99 39.0718 51.2888C39.1056 45.2503 39.0724 39.213 39.0724 33.1554Z" fill="#FFFBFE"/>
</svg>
