<svg width="72" height="72" viewBox="0 0 72 72" fill="none" xmlns="http://www.w3.org/2000/svg">
<path d="M6 10.5929L17.8611 3L29.7222 10.3009M6 10.5929L17.8611 17.6018M6 10.5929V54.1062L29.7222 69M29.7222 10.3009L17.8611 17.6018M29.7222 10.3009V39.7965M17.8611 17.6018V46.8053M29.7222 69V54.1062M29.7222 69L55.4213 54.1062V39.7965M29.7222 54.1062L17.8611 46.8053M29.7222 54.1062L55.4213 39.7965M17.8611 46.8053L29.7222 39.7965M29.7222 39.7965L42.4306 32.2035M42.4306 32.2035V17.6018M42.4306 32.2035L55.4213 39.7965M42.4306 17.6018L55.4213 10.3009L67 17.6018M42.4306 17.6018L55.4213 25.1947M67 17.6018L55.4213 25.1947M67 17.6018V32.2035L55.4213 39.7965M55.4213 25.1947V39.7965" stroke="#141414" stroke-width="2"/>
</svg>
