<svg width="87" height="87" viewBox="0 0 87 87" fill="none" xmlns="http://www.w3.org/2000/svg">
<path d="M3.26042 11.8513L18.3545 1.77565L33.9613 10.6488M3.26042 11.8513L18.8572 20.3529M3.26042 11.8513L4.75843 67.2116L35.9821 85.3294M33.9613 10.6488L18.8572 20.3529M33.9613 10.6488L34.9768 48.1749M18.8572 20.3529L19.8626 57.5075M35.9821 85.3294L35.4694 66.3806M35.9821 85.3294L68.7396 65.4803L68.247 47.2746M35.4694 66.3806L19.8626 57.5075M35.4694 66.3806L68.247 47.2746M19.8626 57.5075L34.9768 48.1749M34.9768 48.1749L51.1677 38.0695M51.1677 38.0695L50.665 19.4922M51.1677 38.0695L68.247 47.2746M50.665 19.4922L67.2316 9.74852L82.4728 18.6315M50.665 19.4922L67.7443 28.6973M82.4728 18.6315L67.7443 28.6973M82.4728 18.6315L82.9755 37.2088L68.247 47.2746M67.7443 28.6973L68.247 47.2746" stroke="#141414" stroke-width="2"/>
</svg>
