<svg width="72" height="72" viewBox="0 0 72 72" fill="none" xmlns="http://www.w3.org/2000/svg">
<path d="M70.5808 69.0654L69.1093 67.6384C67.7149 65.7866 65.9211 64.1599 64.0384 62.8093C62.5371 61.7316 59.1666 60.2758 58.5399 58.5293L58.4246 58.4196C59.4894 58.2992 60.7326 57.9144 61.7152 57.6506C63.3656 57.2085 64.728 57.3227 66.4324 56.8828C67.2007 56.6634 68.0631 56.4435 68.6256 56.2241V55.7854C68.0631 54.9017 67.2604 53.7317 66.321 52.9318C63.8634 50.8393 61.2354 48.7485 58.4736 47.0048C56.9419 46.0384 55.0755 45.4101 53.4527 44.5905C52.9065 44.3143 51.9609 44.1709 51.5998 43.7119C50.7465 42.6251 50.2903 41.247 49.6322 39.9808C48.2546 37.3275 46.9046 34.4301 45.684 31.6384C44.8515 29.7349 44.3098 27.8584 43.2714 26.1506C38.2877 17.9567 32.9242 13.0118 24.615 8.15063C22.8459 7.11675 20.7174 6.70894 18.4674 6.17456C17.2614 6.102 16.0537 6.02831 14.8466 5.95463C14.1092 5.6475 13.3425 4.74581 12.6517 4.30819C9.89775 2.56894 2.83669 -1.21387 0.797624 3.75975C-0.489938 6.89906 2.72137 9.96131 3.87 11.5526C4.67719 12.6675 5.70937 13.9191 6.28481 15.174C6.6645 15.9992 6.72919 16.8266 7.05375 17.6991C7.85137 19.8489 8.54494 22.1878 9.57769 24.174C10.0991 25.1798 10.674 26.2384 11.3338 27.1373C11.7377 27.6891 12.4307 27.9321 12.5404 28.7837C11.8631 29.7321 11.8243 31.2047 11.4435 32.4062C9.72787 37.8146 10.3759 44.5376 12.8706 48.5404C13.6356 49.77 15.4389 52.4053 17.919 51.3939C20.088 50.5108 19.7336 47.7726 20.3541 45.3572C20.4941 44.8104 20.25 44.4077 20.8125 44.0404V44.1501C21.388 45.4853 22.0037 46.8029 22.6586 48.1011C24.1211 50.4563 26.5337 52.9172 28.7325 54.5777C29.8727 55.4389 30.9375 56.9273 32.0625 57.4313V57.3744H32.1868C31.9016 56.8119 31.4544 56.718 31.0899 56.3597C30.231 55.5182 29.2753 54.4573 28.566 53.4926C26.5658 50.7774 24.7984 47.799 23.1879 44.7053C22.4184 43.2281 21.7496 41.5952 21.1016 40.0922C20.8524 39.5128 20.8553 38.6342 20.3344 38.3344C19.6239 39.4358 18.5782 40.3256 18.0287 41.6267C17.1506 43.7057 17.0376 46.2414 16.7119 48.87C16.5189 48.9386 16.605 48.8914 16.4919 48.9791C14.9631 48.6107 14.4264 47.0374 13.8577 45.6868C12.4206 42.2724 12.1539 36.7751 13.4184 32.8455C13.7458 31.8279 15.2246 28.6262 14.6256 27.6863C14.3398 26.7497 13.3971 26.2069 12.87 25.4908C12.2169 24.6054 11.5656 23.4399 11.1133 22.4173C9.93712 19.7561 9.38869 16.7676 8.15006 14.0766C7.55775 12.7901 6.55706 11.4879 5.73525 10.3449C4.82569 9.07763 3.80644 8.14444 3.1005 6.61275C2.85019 6.06825 2.50931 5.19638 2.88112 4.63669C2.99925 4.25925 3.16631 4.10175 3.53981 3.97856C4.17712 3.4875 5.949 4.14169 6.61275 4.41675C8.37281 5.148 9.84206 5.823 11.3333 6.81075C12.0482 7.2855 12.7727 7.87388 13.6378 8.43638H14.6256C16.1707 8.43638 17.9016 8.56688 19.3455 9.00563C21.8964 9.78131 24.183 10.998 26.2597 12.3092C32.5856 16.3041 37.7578 21.9954 41.2965 28.7781C41.8657 29.8704 42.1121 30.915 42.6133 32.0732C43.6247 34.4093 44.8993 36.8139 45.9056 39.0983C46.9102 41.3781 47.889 43.6781 49.3088 45.5749C50.0552 46.5716 52.9374 47.1071 54.2475 47.6612C55.1661 48.0488 56.6707 48.4538 57.5404 48.9774C59.2014 49.9798 60.8107 51.1734 62.37 52.2709C63.1485 52.8188 65.5425 54.0225 65.6623 55.0148C61.8019 54.909 58.8538 55.269 56.3332 56.3316C55.6172 56.6336 54.4742 56.6421 54.3572 57.5393C54.7509 57.9516 54.8122 58.5681 55.125 59.0754C55.7263 60.0486 56.7427 61.3547 57.6495 62.0387C58.6406 62.7868 59.661 63.5861 60.723 64.2336C62.6124 65.385 64.7207 66.0431 66.5398 67.1968C67.6119 67.8774 68.7662 68.7341 69.8108 69.5014C70.3282 69.8811 70.3119 70.4711 71.4369 70.7091V70.5999C70.875 70.1528 70.9048 69.5351 70.5808 69.0654ZM16.6016 13.1991C15.7967 13.1839 15.1875 13.2874 14.625 13.4179V13.5H14.7364C15.1206 14.0625 15.7984 14.8106 16.2726 15.4901L17.3706 17.8009L17.4791 17.6957C18.1592 17.2159 18.4708 16.452 18.4669 15.282C18.1952 14.9957 18.1541 14.6374 17.919 14.2954C17.6051 13.8403 16.9971 13.5821 16.6016 13.1991Z" fill="#141414"/>
</svg>
