<svg width="87" height="87" viewBox="0 0 87 87" fill="none" xmlns="http://www.w3.org/2000/svg">
<path d="M84.4936 80.5918L82.7325 78.9739C81.0478 76.8583 78.9044 75.0178 76.6661 73.5021C74.8812 72.2925 70.9045 70.7012 70.1186 68.684L69.9806 68.5597C71.2187 68.3857 72.6563 67.8978 73.794 67.5591C75.7048 66.9914 77.2973 67.0816 79.2711 66.5148C80.1603 66.2347 81.159 65.951 81.8081 65.6774L81.7942 65.1657C81.1103 64.1529 80.1373 62.8137 79.0165 61.9105C76.0844 59.5477 72.9535 57.1923 69.6775 55.2458C67.8607 54.1671 65.6642 53.4932 63.7458 52.5886C63.1001 52.2838 61.9928 52.1463 61.5571 51.6224C60.5277 50.3819 59.9522 48.7891 59.1447 47.3332C57.4544 44.2823 55.7885 40.9458 54.2769 37.7285C53.2459 35.5348 52.5549 33.3635 51.2901 31.4046C45.2192 22.0058 38.8081 16.4081 28.9641 11.001C26.8684 9.85113 24.3732 9.44269 21.7323 8.89048C20.3235 8.84392 18.9127 8.79609 17.5026 8.74825C16.6329 8.41334 15.7103 7.38595 14.8909 6.89737C11.6242 4.9559 3.26989 0.767062 1.04881 6.63185C-0.353729 10.3337 3.48807 13.8037 4.87786 15.6233C5.85441 16.898 7.09769 18.325 7.80839 19.7704C8.27724 20.7208 8.37879 21.6838 8.78484 22.691C9.78291 25.1731 10.6656 27.8789 11.9327 30.1627C12.5726 31.3192 13.2764 32.5356 14.0743 33.5631C14.5627 34.1939 15.3786 34.4555 15.5334 35.4452C14.7735 36.5726 14.7747 38.2913 14.3685 39.7045C12.5383 46.0662 13.5062 53.8864 16.5419 58.4758C17.4729 59.8857 19.6592 62.9022 22.5197 61.6444C25.0214 60.546 24.5217 57.3638 25.169 54.5273C25.3151 53.8852 25.0177 53.4232 25.6621 52.9771L25.6656 53.105C26.3789 54.6441 27.1385 56.1613 27.9433 57.6546C29.7232 60.3551 32.6145 63.149 35.2313 65.0162C36.5882 65.9846 37.877 67.6868 39.2049 68.2391L39.2031 68.1728L39.3481 68.1689C38.9977 67.5219 38.4732 67.4264 38.0368 67.02C37.0085 66.0658 35.8605 64.8587 35.0028 63.756C32.5844 60.6526 30.4292 57.2348 28.4534 53.6775C27.5094 51.9791 26.6779 50.0959 25.8747 48.3634C25.5658 47.6956 25.5414 46.6708 24.9244 46.3376C24.1307 47.6445 22.9392 48.7153 22.3393 50.25C21.3809 52.7023 21.3291 55.6632 21.0322 58.739C20.8094 58.8251 20.9082 58.7673 20.7792 58.8732C18.9845 58.4918 18.309 56.6739 17.6032 55.1167C15.8193 51.1801 15.3349 44.7773 16.6856 40.1545C17.0353 38.9575 18.6589 35.1768 17.9306 34.0995C17.5678 33.0163 16.4511 32.413 15.8139 31.5945C15.0243 30.5826 14.2279 29.2439 13.6682 28.0655C12.2125 24.999 11.4785 21.531 9.94909 18.4317C9.21771 16.9501 8.00958 15.463 7.01508 14.1559C5.91431 12.7067 4.69617 11.6505 3.82455 9.88646C3.51544 9.25934 3.09038 8.25328 3.50634 7.58882C3.63219 7.14491 3.82206 6.95595 4.25376 6.8005C4.98152 6.20769 7.0686 6.91472 7.85137 7.21456C9.9271 8.01183 11.6619 8.75267 13.4322 9.85757C14.2809 10.3887 15.1444 11.052 16.1711 11.6807L17.3231 11.6495C19.1251 11.6008 21.1478 11.6984 22.8456 12.1645C25.8451 12.9886 28.5502 14.3354 31.0136 15.799C38.5171 20.2584 44.7287 26.7327 49.0697 34.5312C49.7681 35.7872 50.0884 36.9976 50.7094 38.3325C51.9627 41.025 53.5251 43.7892 54.7707 46.4215C56.0143 49.0486 57.2284 51.7002 58.944 53.8674C59.846 55.0063 63.2243 55.5399 64.7696 56.1447C65.8531 56.5677 67.6207 56.9926 68.6514 57.5759C70.6202 58.6924 72.5348 60.0337 74.3879 61.2644C75.3131 61.8788 78.143 63.2071 78.3141 64.3605C73.8085 64.359 70.3817 64.8719 67.4757 66.1906C66.6501 66.5655 65.3174 66.6114 65.2092 67.6614C65.6815 68.1299 65.7724 68.8469 66.1532 69.4288C66.8852 70.5447 68.1118 72.0359 69.1909 72.805C70.3704 73.6462 71.5856 74.5462 72.8446 75.2677C75.0844 76.551 77.5639 77.252 79.7219 78.54C80.9937 79.3 82.3669 80.2626 83.6093 81.1245C84.2248 81.551 84.2244 82.2396 85.5439 82.4816L85.5405 82.3543C84.871 81.8505 84.8863 81.1293 84.4936 80.5918ZM19.7779 17.1416C18.8387 17.1493 18.1315 17.2892 17.4796 17.4592L17.4822 17.555L17.6121 17.5514C18.0779 18.1953 18.892 19.0464 19.4665 19.8239L20.8199 22.4842L20.9432 22.3581C21.7212 21.777 22.0605 20.8763 22.019 19.512C21.6931 19.1866 21.6339 18.77 21.3489 18.3786C20.9685 17.8578 20.2512 17.5759 19.7779 17.1416Z" fill="#141414"/>
</svg>
