<svg width="87" height="87" viewBox="0 0 87 87" fill="none" xmlns="http://www.w3.org/2000/svg">
<path d="M49.4684 1.13049C48.878 1.14647 48.2912 1.29365 47.7717 1.50465C48.9064 2.19609 49.5235 3.16412 49.8817 4.27047C49.8852 4.40167 49.9544 4.53109 49.9579 4.6623C49.9615 4.7935 50.0306 4.92293 50.0342 5.05413C50.1512 6.95478 49.5679 7.23316 49.2045 8.35903C48.5875 9.82 48.8269 11.3891 49.6479 12.6142C49.717 12.7436 49.788 12.9387 49.9227 13.0663C48.9208 7.57892 53.4916 6.66745 54.2982 4.93875C54.323 3.42815 53.05 2.47786 52.0464 1.78288C51.0464 1.21909 50.2557 1.10919 49.4684 1.13049ZM56.3885 2.12493C56.3371 2.65151 56.3992 2.51853 56.3407 2.78271C56.346 2.97951 56.3513 3.17632 56.291 3.37489C56.2307 3.57347 56.2343 3.70467 56.174 3.90325C56.1138 4.10183 56.0517 4.23481 55.9914 4.43339C55.9294 4.56636 55.8673 4.69934 55.807 4.89792C55.7432 4.96529 55.6812 5.09827 55.6173 5.16565C55.5535 5.23302 55.5553 5.29862 55.4915 5.366C55.3638 5.50075 55.3035 5.69933 55.1759 5.83408L54.7929 6.23834C54.6653 6.37309 54.5376 6.50784 54.4082 6.577C53.9579 6.91743 53.4402 7.19403 52.9898 7.53446C52.8622 7.66921 52.6672 7.74014 52.5395 7.87489C52.4119 8.00964 52.2824 8.0788 52.1548 8.21355L51.7718 8.6178C51.6442 8.75256 51.5165 8.88731 51.4562 9.08589C51.3286 9.22064 51.2683 9.41922 51.1407 9.55397C51.0804 9.75255 51.0183 9.88552 50.8925 10.0859C50.8322 10.2845 50.7701 10.4174 50.7099 10.616C50.6496 10.8146 50.5893 11.0132 50.5928 11.1444C50.5946 11.21 50.5982 11.3412 50.5343 11.4085C50.5361 11.4741 50.5397 11.6054 50.4758 11.6727L50.5007 12.5911C50.506 12.7879 50.5096 12.9191 50.5805 13.1142C50.5858 13.311 50.655 13.4404 50.7259 13.6354C50.7968 13.8305 50.866 13.9599 50.9369 14.1549C51.0061 14.2843 51.0734 14.3482 51.077 14.4794L46.0398 12.7118C45.1799 12.4725 44.3874 12.297 43.5292 12.1233C43.0665 12.0045 42.6055 11.9513 42.1427 11.8326C40.8236 11.6057 39.5063 11.4444 38.1907 11.3487L38.0595 11.3522C36.7439 11.2565 35.4957 11.2246 34.1837 11.2601C33.1997 11.2868 32.2831 11.3772 31.3664 11.4677C30.0562 11.5688 28.7495 11.8011 27.4428 12.0334L26.4641 12.2568C25.8117 12.4058 25.1592 12.5547 24.5085 12.7693C24.1823 12.8438 23.8578 12.9838 23.5316 13.0583C23.2071 13.1984 22.8827 13.3385 22.6238 13.4768C22.365 13.6151 22.1699 13.686 21.9111 13.8243C21.8455 13.8261 21.8455 13.8261 21.7817 13.8934C21.5884 14.03 21.3934 14.1009 21.2001 14.2374C21.1345 14.2392 21.0707 14.3066 21.0707 14.3066C20.8119 14.4449 20.6186 14.5814 20.4236 14.6523C20.2941 14.7215 20.0991 14.7924 19.9697 14.8616C19.9059 14.9289 19.8403 14.9307 19.7764 14.9981C19.5832 15.1346 19.3882 15.2055 19.1949 15.3421C19.0017 15.4786 18.8066 15.5495 18.679 15.6843C18.5513 15.819 18.3563 15.89 18.2286 16.0247C18.2286 16.0247 18.163 16.0265 18.1648 16.0921C18.0354 16.1612 17.9077 16.296 17.7801 16.4307L17.7163 16.4981C17.5868 16.5673 17.5248 16.7002 17.3954 16.7694C17.3298 16.7712 17.3315 16.8368 17.2659 16.8385C17.1365 16.9077 17.0745 17.0407 16.945 17.1098C16.9468 17.1754 16.8812 17.1772 16.8812 17.1772L16.4982 17.5815L16.4344 17.6488L16.0515 18.0531C16.0515 18.0531 16.0532 18.1187 15.9876 18.1205L15.6685 18.4573C15.6047 18.5247 15.5391 18.5265 15.5409 18.5921L15.1579 18.9964C15.1597 19.062 15.0941 19.0637 15.0958 19.1293L14.5852 19.6683L14.5214 19.7357C14.2041 20.1382 13.8193 20.4769 13.4346 20.8155C13.0499 21.1542 12.6651 21.4928 12.2148 21.8333C11.7645 22.1737 11.378 22.4467 10.9259 22.7216C10.4738 22.9964 10.0199 23.2056 9.56599 23.4149C9.11211 23.6241 8.65823 23.8333 8.20258 23.9769C7.28949 24.1986 6.38172 24.6171 5.59629 24.704C5.58741 24.376 5.39238 24.4469 5.19558 24.4522C5.00055 24.5231 4.80375 24.5285 4.67432 24.5976C4.47929 24.6685 4.34987 24.7377 4.15484 24.8086C3.95981 24.8795 3.83038 24.9487 3.63713 25.0852C3.50948 25.22 3.31445 25.2909 3.1868 25.4256C3.05915 25.5604 2.8659 25.6969 2.73824 25.8317C2.61059 25.9664 2.41734 26.103 2.28969 26.2377C2.16204 26.3725 2.03438 26.5072 1.90851 26.7076C1.78263 26.9079 1.65498 27.0427 1.5947 27.2412C1.46705 27.376 1.40678 27.5746 1.2809 27.7749C1.22062 27.9735 1.09475 28.1739 1.03447 28.3724L0.853645 28.9682C0.793369 29.1668 0.796919 29.298 0.736644 29.4965L0.738419 29.5621C0.678143 29.7607 0.685244 30.0231 0.688794 30.1543C0.75262 30.0869 0.75617 30.2181 0.75972 30.3493L0.766821 30.6118C0.770371 30.743 0.839522 30.8724 0.843072 31.0036C0.912224 31.133 0.915774 31.2642 0.984925 31.3936C1.05408 31.5231 1.12323 31.6525 1.25798 31.7801C1.32713 31.9096 1.46188 32.0372 1.53103 32.1666C1.66579 32.2943 1.80054 32.422 1.93352 32.484C2.06827 32.6117 2.20302 32.7393 2.336 32.8014C2.87323 33.2464 3.00798 33.374 3.67464 33.7499C3.80762 33.8119 3.875 33.8757 4.00797 33.9378L4.07358 33.936L4.07713 34.0672C4.08245 34.264 4.1516 34.3935 4.22253 34.5885C4.29345 34.7835 4.36438 34.9785 4.43353 35.108L4.64099 35.4962C4.64276 35.5618 4.70836 35.5601 4.71014 35.6257C4.78106 35.8207 4.91582 35.9484 4.98497 36.0778C5.11972 36.2054 5.19064 36.4005 5.3254 36.5281L5.72965 36.9111L6.13391 37.294L6.19951 37.2922C6.33426 37.4199 6.46724 37.4819 6.60199 37.6096C6.73675 37.7373 6.93532 37.7975 7.0683 37.8596C7.20128 37.9216 7.40163 38.0475 7.60021 38.1078C7.73319 38.1698 7.86616 38.2319 8.06297 38.2266C8.06297 38.2266 8.12857 38.2248 8.13034 38.2904C8.19594 38.2886 8.32892 38.3507 8.39452 38.3489C8.36087 39.5315 8.39105 40.6467 8.5329 41.0368C8.74213 41.4906 9.68887 40.0864 10.5665 38.5527C10.4761 40.0651 10.4584 41.8381 10.6694 42.3576C10.946 42.8753 12.1463 41.1359 13.2774 39.2671C28.5322 35.3093 42.8584 45.5568 44.7737 60.5386C44.4474 58.1841 41.5254 56.9501 40.1567 57.3154C39.5433 58.9076 38.4849 61.037 36.7474 62.3314C36.8395 60.8846 36.7349 59.4431 36.4334 58.007C36.0274 59.9875 35.1605 61.9148 33.8911 63.5247C31.861 63.7109 29.7352 62.7837 28.6447 61.3033C28.5773 61.2395 28.5082 61.11 28.4408 61.0462C28.3717 60.9168 28.3007 60.7217 28.2316 60.5923C28.1624 60.4629 28.0915 60.2679 28.0879 60.1367L28.0755 59.6775L28.0666 59.3494C28.0631 59.2182 28.1234 59.0197 28.1854 58.8867C28.2475 58.7537 28.2421 58.5569 28.3042 58.4239C28.3662 58.291 28.4265 58.0924 28.5542 57.9576C28.9194 56.8974 28.8963 56.0445 28.1623 55.6049L27.7633 55.4187C27.6977 55.4205 27.5648 55.3584 27.4992 55.3602C27.4336 55.362 27.3662 55.2982 27.3006 55.2999C27.1676 55.2379 26.9708 55.2432 26.8378 55.1812C26.7048 55.1191 26.508 55.1244 26.3768 55.128C26.2456 55.1315 26.0471 55.0713 25.9159 55.0748L25.5879 55.0837C25.391 55.089 25.2598 55.0926 25.1304 55.1617C24.9992 55.1653 24.8042 55.2362 24.673 55.2397C24.5436 55.3089 24.3468 55.3142 24.2173 55.3834C24.0879 55.4525 23.9585 55.5217 23.7635 55.5926L23.3752 55.8001C18.4126 59.2168 21.6398 66.876 25.1114 69.0142C23.8064 69.3121 22.5015 69.61 22.115 69.883L22.0512 69.9504C22.9856 70.516 23.982 70.9485 25.0423 71.3138C26.4323 71.7357 27.9518 72.0885 28.6131 72.2675C30.395 72.6132 32.2354 72.6947 34.0687 72.5138C43.6287 71.5986 51.302 64.0383 52.486 54.4215C52.557 54.6165 52.5623 54.8133 52.6332 55.0084C52.7095 55.4002 52.7857 55.792 52.8637 56.2494C52.9347 56.4445 52.94 56.6413 52.9453 56.8381L52.9471 56.9037C52.9524 57.1005 53.0233 57.2955 53.0287 57.4923C53.0358 57.7547 53.1067 57.9497 53.1138 58.2121L53.1884 60.9674C53.1937 61.1642 53.1316 61.2972 53.137 61.494L53.1423 61.6908C53.1476 61.8876 53.0873 62.0862 53.0944 62.3486C53.0342 62.5471 53.0395 62.7439 52.9792 62.9425L52.981 63.0081C52.9207 63.2067 52.926 63.4035 52.8658 63.6021L52.8675 63.6677C52.8073 63.8663 52.8126 64.0631 52.7523 64.2616L52.7541 64.3272L52.5732 64.923L52.575 64.9886C52.5147 65.1872 52.4562 65.4513 52.396 65.6499C52.3357 65.8485 52.2754 66.0471 52.1513 66.313C52.091 66.5116 52.0325 66.7758 51.9067 66.9761C51.8464 67.1747 51.7205 67.3751 51.662 67.6392C51.6017 67.8378 51.4759 68.0382 51.4156 68.2367C51.4174 68.3024 51.3535 68.3697 51.3535 68.3697C51.3535 68.3697 51.3553 68.4353 51.2897 68.4371C49.9884 71.2952 47.9566 73.8449 45.3859 75.8839C45.1926 76.0204 45.065 76.1552 44.8717 76.2917C44.8079 76.3591 44.7423 76.3609 44.744 76.4265C44.6164 76.5612 44.4214 76.6321 44.2937 76.7669L44.3629 76.8963C44.6891 76.8218 44.9515 76.8147 45.2777 76.7403C45.8664 76.6587 46.3876 76.5133 46.9745 76.3661C47.1057 76.3626 47.3007 76.2916 47.4301 76.2225C47.5613 76.2189 47.6252 76.1516 47.7564 76.148C47.8876 76.1445 48.0826 76.0735 48.2138 76.07C48.3432 76.0008 48.4744 75.9973 48.6039 75.9281C50.7545 75.3447 52.8342 74.5663 54.8447 73.6585C51.4957 78.4758 47.0066 82.4049 41.6948 85.0433C44.1823 84.7791 46.6645 84.318 49.0722 83.5307C57.7279 80.7362 64.9154 74.6333 69.0959 66.5767C68.3124 71.5872 66.4739 76.4293 63.6355 80.7076C65.6975 79.2732 67.5555 77.5817 69.2788 75.7626C73.9966 70.5799 77.0353 63.9985 77.8986 57.0819C78.7125 60.4737 79.0707 64.009 78.8368 67.4948C93.9243 45.2254 78.9453 22.9818 72.7485 17.1754C72.7467 17.1098 72.6811 17.1116 72.6793 17.046C72.6864 17.3084 72.6935 17.5708 72.635 17.835C72.5836 18.3616 72.5304 18.8225 72.4773 19.2835C72.3585 19.7463 72.2415 20.2746 72.1227 20.7374C72.0039 21.2001 71.8196 21.6647 71.6352 22.1292C71.4508 22.5937 71.2664 23.0583 71.0147 23.459C70.7629 23.8597 70.5129 24.326 70.2612 24.7267C70.0094 25.1274 69.6921 25.5299 69.3747 25.9324C69.0574 26.3349 68.7382 26.6717 68.3553 27.076C68.1638 27.2781 67.9723 27.4802 67.7135 27.6185C67.5202 27.7551 67.3926 27.8898 67.2011 28.092C66.8164 28.4306 66.4299 28.7037 65.9778 28.9785C65.5913 29.2515 65.1391 29.5264 64.6853 29.7356L63.3236 30.3633C62.8697 30.5725 62.4141 30.7161 61.9584 30.8598C61.5028 31.0034 60.9815 31.1488 60.5241 31.2268C60.001 31.3066 59.5436 31.3847 59.0862 31.4627C58.7582 31.4716 58.3663 31.5478 58.0383 31.5567C57.5135 31.5709 57.0526 31.5177 56.5933 31.5301C56.0668 31.4787 55.6058 31.4256 55.1448 31.3724C54.6182 31.321 54.1555 31.2022 53.6909 31.0178C54.1484 30.9398 54.6732 30.9256 55.1288 30.782C55.6519 30.7022 56.1075 30.5586 56.5632 30.4149C57.0188 30.2713 57.5401 30.1259 57.9284 29.9184L59.29 29.2908C59.7439 29.0815 60.1304 28.8085 60.5825 28.5336C60.969 28.2606 61.4193 27.9202 61.8058 27.6471C62.1906 27.3084 62.5753 26.9698 62.8944 26.6329C63.2792 26.2943 63.5965 25.8918 63.9156 25.5549C64.233 25.1524 64.5504 24.7499 64.8021 24.3492C64.8659 24.2818 64.8642 24.2162 64.928 24.1489C65.1159 23.8155 65.3677 23.4148 65.5556 23.0815C65.8056 22.6152 65.9917 22.2163 66.1761 21.7517C66.3605 21.2872 66.5449 20.8227 66.6636 20.3599L67.02 18.9716C67.0714 18.4451 67.1901 17.9823 67.1777 17.5231C67.2291 16.9965 67.2167 16.5373 67.2043 16.0781C67.1954 15.7501 67.1847 15.3565 67.1103 15.0303C67.0305 14.5072 66.9524 14.0498 66.8744 13.5924C66.7946 13.0693 66.651 12.6137 66.5073 12.158C66.3637 11.7024 66.1545 11.2485 66.0109 10.7928C65.8016 10.3389 65.5924 9.88506 65.3849 9.49678C65.1101 9.04467 64.9027 8.65639 64.6278 8.20428C64.3548 7.81778 64.0161 7.43305 63.7431 7.04654C63.4044 6.66181 63.0675 6.34268 62.7289 5.95795C62.5268 5.76647 62.3246 5.575 62.1243 5.44912C61.119 4.68853 60.1172 4.05915 59.0498 3.43154C58.9168 3.36949 58.7839 3.30744 58.5853 3.24717C57.7129 2.54863 57.0516 2.36958 56.3885 2.12493Z" fill="#141414"/>
</svg>
