<svg width="88" height="88" viewBox="0 0 88 88" fill="none" xmlns="http://www.w3.org/2000/svg">
<path d="M75.3353 21.0509L45.9226 5.0374C44.0701 4.04764 41.6803 4.11231 39.8696 5.20119L11.1395 22.788C9.28674 23.922 8.06195 25.9923 8.12086 28.1696L9.02869 61.7192C9.08761 63.8965 10.4495 65.8974 12.3617 66.9354L20.1748 71.1146C23.9153 72.8332 24.938 72.8055 26.6174 72.7601C32.0846 72.6121 34.8344 69.2297 34.6784 63.464L33.7821 30.3421C33.7701 29.8743 34.0432 29.1704 33.5833 29.1828L29.8953 29.2826C29.4282 29.2953 28.522 30.0163 28.5347 30.4834L29.4309 63.6054C29.5001 66.1612 27.1968 68.7687 22.8178 66.7254L14.7412 62.34C14.4603 62.1966 14.2854 61.8973 14.2768 61.5772L13.3689 28.0276C13.3604 27.7114 13.6555 27.3856 13.9319 27.216L42.5906 9.65997C42.7315 9.58017 42.8897 9.53615 43.0516 9.53177C43.2134 9.52739 43.3739 9.56279 43.5188 9.63485L72.8126 25.6188C73.0933 25.7773 73.0577 26.0861 73.0665 26.4122L73.9743 59.9618C73.983 60.282 74.0518 60.5919 73.7837 60.7535L45.286 78.315C45.0421 78.4706 44.7193 78.4793 44.443 78.3378L36.8992 74.1113C36.672 73.9874 36.4011 73.9482 36.1892 74.074C34.1577 75.2995 33.7788 75.4654 31.8617 76.1888C31.3893 76.3677 30.6938 76.6747 32.1636 77.447L42.0266 82.9271C42.9678 83.4374 44.0269 83.6909 45.0972 83.662C46.1717 83.6346 47.22 83.3241 48.136 82.7617L76.5306 65.1991C78.3843 64.0513 79.2813 61.9971 79.2224 59.8198L78.3146 26.2702C78.255 24.0929 77.2482 22.0883 75.3353 21.0509ZM53.3144 55.2007C45.6214 55.4089 43.8701 53.3325 43.2018 49.5226C43.1238 49.1124 42.7614 48.6292 42.3416 48.6406L38.5826 48.7423C38.1175 48.7549 37.7582 49.3292 37.7707 49.7923C37.9033 54.6901 40.7273 60.5523 53.4499 60.208C62.659 59.9588 67.843 56.2374 67.6717 49.9043C67.5017 43.6249 63.2147 42.0918 54.2512 41.1514C45.1909 40.2024 44.2575 39.6243 44.2002 37.5094C44.153 35.7657 44.8668 33.4191 51.5516 33.2382C57.5239 33.0766 59.7601 34.2989 60.775 38.3003C60.8633 38.6767 61.2164 38.939 61.6067 38.9284L65.3814 38.8263C65.6136 38.82 65.8322 38.7202 65.9904 38.5498C66.1436 38.3671 66.2203 38.1412 66.1934 37.9016C65.42 30.9841 60.7274 27.8779 51.4127 28.1299C43.126 28.3541 38.2783 31.987 38.437 37.8524C38.6091 44.2144 43.5748 45.8394 51.5502 46.4107C61.0909 47.0861 61.8685 48.4568 61.9192 50.3284C62.0071 53.5796 59.435 55.0351 53.3144 55.2007Z" fill="#141414"/>
</svg>
