<svg width="72" height="72" viewBox="0 0 72 72" fill="none" xmlns="http://www.w3.org/2000/svg">
<path d="M63.3814 17.0629L38.5509 2.66006C36.9866 1.76906 34.9374 1.76906 33.3607 2.66006L8.33625 17.0629C6.72244 17.9916 5.625 19.737 5.625 21.6039V50.3713C5.625 52.2383 6.7455 53.9843 8.35988 54.918L14.9574 58.68C18.1226 60.2393 18.9996 60.2393 20.4396 60.2393C25.1274 60.2393 27.5619 57.4048 27.5619 52.461V24.0604C27.5625 23.6593 27.8128 23.0625 27.4185 23.0625H24.2561C23.8556 23.0625 23.0625 23.6593 23.0625 24.0598V52.4604C23.0625 54.6519 21.0285 56.8327 17.3239 54.9804L10.5053 51.0356C10.2679 50.9063 10.125 50.6458 10.125 50.3713V21.6039C10.125 21.3328 10.3854 21.0606 10.6262 20.9216L35.5888 6.54356C35.7114 6.47846 35.848 6.44441 35.9868 6.44441C36.1256 6.44441 36.2622 6.47846 36.3847 6.54356L61.1139 20.9183C61.3507 21.0606 61.3131 21.3244 61.3131 21.6039V50.3713C61.3131 50.6458 61.3648 50.913 61.1314 51.0452L36.3066 65.4317C36.0939 65.5594 35.8172 65.5594 35.5837 65.4317L29.2179 61.6354C29.0261 61.524 28.7949 61.4841 28.6104 61.587C26.8414 62.5899 26.5129 62.7233 24.8535 63.2987C24.4446 63.441 23.8416 63.6879 25.083 64.3838L33.4069 69.3079C34.2015 69.767 35.1031 70.0087 36.0208 70.0088C36.9421 70.0102 37.8475 69.7685 38.6454 69.3079L63.3819 54.918C64.9969 53.9775 65.8131 52.2383 65.8131 50.3713V21.6039C65.8125 19.737 64.9963 17.9961 63.3814 17.0629ZM43.7214 45.8128C37.125 45.8128 35.6726 43.9931 35.1883 40.7132C35.1309 40.3599 34.8317 39.9375 34.4717 39.9375H31.2486C30.8498 39.9375 30.5286 40.4213 30.5286 40.8184C30.5286 45.018 32.8123 50.1064 43.7214 50.1064C51.6178 50.1064 56.1459 47.0379 56.1459 41.6076C56.1459 36.2233 52.5083 34.8103 44.8498 33.7967C37.1087 32.7735 36.3223 32.2566 36.3223 30.4431C36.3223 28.9479 36.9883 26.9539 42.7202 26.9539C47.8412 26.9539 49.7289 28.053 50.5058 31.5051C50.5727 31.8296 50.8691 32.0625 51.2038 32.0625H54.4404C54.6396 32.0625 54.8291 31.9821 54.9686 31.8398C55.1042 31.6868 55.1751 31.4949 55.1576 31.2891C54.6553 25.344 50.7066 22.5737 42.7196 22.5737C35.6141 22.5737 31.3762 25.5741 31.3762 30.6034C31.3762 36.0585 35.5933 37.566 42.4136 38.2404C50.5727 39.0403 51.2072 40.2328 51.2072 41.8376C51.2072 44.6254 48.9696 45.8128 43.7214 45.8128Z" fill="#141414"/>
</svg>
