<svg width="72" height="72" viewBox="0 0 72 72" fill="none" xmlns="http://www.w3.org/2000/svg">
<path fill-rule="evenodd" clip-rule="evenodd" d="M69.3326 43.191C69.0795 41.5496 67.7008 40.4747 66.0971 40.4021C65.5166 40.3757 64.9271 40.4364 64.3483 40.5101C63.6491 40.599 62.9584 40.7565 62.2609 40.8606C61.7788 40.9326 61.29 40.9658 60.8085 41.0153L60.7967 40.9528C61.6956 39.2552 62.6321 37.5761 63.4826 35.8543C64.1346 34.5336 64.6926 33.165 65.2691 31.8077C66.2231 29.5588 66.9853 27.2402 67.6164 24.8839C68.2211 22.6277 68.7386 20.3468 68.9012 18.0062C68.9664 17.0713 69.0114 16.1325 69.0064 15.1965C69.0019 14.4501 68.9214 13.7025 68.8466 12.9583C68.7622 12.1056 68.5046 11.2972 68.148 10.5193C67.6777 9.49444 66.9487 8.6535 66.1815 7.85475C65.5672 7.21519 64.8917 6.63244 64.2217 6.05025C63.2666 5.21944 62.1928 4.55625 61.0774 3.96731C59.8138 3.29587 58.4751 2.77662 57.0892 2.42044C56.2494 2.20612 55.3905 2.04694 54.54 1.87706C54.234 1.81519 53.9274 1.6875 53.6214 1.6875H47.8609C47.6527 1.6875 47.4463 1.79494 47.2365 1.81856C45.8573 1.97213 44.4943 2.232 43.1707 2.64206C42.6758 2.79562 42.2235 2.69888 41.7533 2.65556C41.3927 2.62238 41.0383 2.52563 40.6777 2.50763C39.3041 2.439 37.9288 2.33831 36.5557 2.35294C35.2401 2.36644 33.9379 2.583 32.6644 2.94469C31.5984 3.24731 30.5556 3.61688 29.6004 4.17712C29.1915 4.41675 28.8675 4.37175 28.4445 4.24969C27.0231 3.83962 25.5915 3.45431 24.1476 3.13087C23.2476 2.9295 22.3223 2.82938 21.4031 2.73319C20.5212 2.64153 19.6358 2.58635 18.7493 2.56781C17.8841 2.54925 17.0128 2.54981 16.1516 2.62631C14.7799 2.74556 13.4279 3.03135 12.1252 3.47738C10.6826 3.96997 9.33461 4.70522 8.13938 5.65144C6.92044 6.61613 5.94281 7.794 5.15644 9.13894C4.32787 10.5581 3.75975 12.0774 3.4065 13.6733C3.21525 14.5378 3.09431 15.4266 2.96325 16.3046C2.92219 16.578 3.375 16.8514 2.8125 17.1236V20.9452C3.375 21.1995 2.9295 21.4532 2.96212 21.708C3.04031 22.3206 3.1095 22.9382 3.213 23.5462C3.37669 24.5087 3.57075 25.4683 3.76875 26.4246C4.04368 27.7611 4.33358 29.0945 4.63838 30.4245C4.86113 31.392 5.11481 32.3539 5.38031 33.3107C5.78587 34.7721 6.18525 36.2362 6.64369 37.6813C7.0695 39.024 7.55719 40.3476 8.04094 41.6711C8.71088 43.5021 9.513 45.2739 10.4749 46.9721C11.3068 48.4425 12.2574 49.8195 13.5326 50.9524C14.373 51.6988 15.3084 52.2726 16.3974 52.5594C17.253 52.7844 18.1226 52.8114 18.9984 52.632C19.9963 52.429 20.9284 51.9825 21.7119 51.3321C21.8036 51.2567 21.9043 51.1993 22.0129 51.3377C22.4263 51.8614 22.9798 52.2107 23.5586 52.5128C25.1207 53.3273 26.8228 53.5714 28.5519 53.6709C28.9704 53.6951 29.3934 53.6349 29.8153 53.6231C30.6371 53.6006 31.4359 53.4403 32.2217 53.2131C32.6334 53.0938 33.0356 52.9425 33.4547 52.8013C33.4766 53.2474 33.5048 53.6771 33.5177 54.1069L33.5762 56.4503C33.5869 56.8069 33.6009 57.1646 33.6341 57.5196C33.7191 58.4348 33.8023 59.3505 33.9114 60.2629C33.9874 60.8918 34.0661 61.5257 34.2141 62.1394C34.5106 63.3782 34.9169 64.5883 35.4279 65.7551C35.9172 66.8877 36.6692 67.8875 37.6217 68.6717C38.8704 69.7044 40.3341 70.1449 41.9147 70.2264C42.5683 70.2607 43.2405 70.2287 43.884 70.1117C44.9068 69.9299 45.9184 69.6905 46.9142 69.3945C48.9341 68.7847 50.6801 67.7318 51.9846 66.0302C52.7271 65.0604 53.3368 64.0114 53.7283 62.8532C54.0512 61.8964 54.3555 60.93 54.5974 59.9507C54.7886 59.1789 54.8831 58.383 54.9996 57.5949C55.0766 57.0735 55.1227 56.547 55.1711 56.0216C55.2499 55.1683 55.3303 54.3156 55.3871 53.4606C55.4265 52.8654 55.4248 52.2675 55.4484 51.6712C55.4557 51.4896 55.485 51.309 55.5019 51.1279C55.5176 50.9602 55.602 50.9023 55.773 50.9051C56.3754 50.9141 56.979 50.9299 57.5798 50.9029C58.2531 50.8725 58.9326 50.8438 59.5952 50.7324C60.5394 50.5747 61.4759 50.3745 62.4021 50.1323C63.495 49.8465 64.4974 49.3346 65.4621 48.7513C66.5859 48.0724 67.6103 47.2759 68.4416 46.2499C69.1644 45.3549 69.507 44.3205 69.3326 43.191ZM67.4134 43.7434C67.3763 44.2581 67.1406 44.6991 66.7986 45.0759C65.1847 46.8551 63.1603 47.9346 60.8445 48.4661C59.9647 48.6675 59.0569 48.7721 58.1563 48.8554C57.3869 48.923 56.6139 48.9413 55.8422 48.9099C55.2763 48.8886 54.7149 48.7592 54.1367 48.6759C54.0787 49.2047 54.0236 49.7554 53.9567 50.3049L53.6872 52.4115C53.6057 53.0792 53.5421 53.7491 53.4583 54.4162C53.3762 55.0637 53.2738 55.7089 53.1878 56.3563C53.1073 56.9593 53.0483 57.5651 52.9588 58.167C52.821 59.0895 52.6894 60.0143 52.5094 60.9294C52.2934 62.0235 51.9621 63.0833 51.4215 64.0699C50.7622 65.2742 49.8274 66.1916 48.6377 66.8711C47.4114 67.572 46.071 67.9365 44.712 68.2414C43.7501 68.4574 42.759 68.4928 41.7847 68.4051C40.095 68.2521 38.6527 67.5293 37.5626 66.2192C36.522 64.9688 35.8177 63.5355 35.5658 61.9132C35.4481 61.141 35.356 60.3651 35.2896 59.5868C35.2149 58.7218 35.1589 57.8554 35.1214 56.988C35.0715 55.8877 35.0346 54.7868 35.0106 53.6856C34.9808 52.3322 34.9712 50.9788 34.9521 49.6254L34.9487 49.5737C34.2602 49.9866 33.5835 50.4388 32.8658 50.8112C32.027 51.2451 31.1088 51.504 30.1669 51.5723C29.4255 51.6285 28.6746 51.6797 27.9366 51.6206C26.7266 51.5233 25.5178 51.3337 24.4344 50.7381C23.9951 50.4962 23.5367 50.202 23.2341 49.8156C22.5084 48.8897 22.8561 47.7197 23.9501 47.1566C24.7061 46.7668 25.5313 46.6042 26.3509 46.4147C27.0642 46.2528 27.7701 46.0597 28.4664 45.8359C29.1538 45.6109 29.5875 45.0534 30.0156 44.5067L30.6939 43.6343C30.411 43.6044 30.1444 43.5741 29.8778 43.5493C29.0683 43.4728 28.296 43.2501 27.5574 42.9227C26.9252 42.6431 26.9156 42.6128 26.4521 43.1156C25.6781 43.956 24.9255 44.8161 24.1672 45.6705C23.6093 46.2988 23.0546 46.9311 22.4994 47.5611C21.9493 48.1843 21.4341 48.843 20.8417 49.4229C19.962 50.2841 18.9017 50.8022 17.6366 50.7437C16.8249 50.7066 16.0819 50.4219 15.4136 49.9567C14.0344 48.996 13.1051 47.6522 12.2591 46.2409C11.1752 44.4324 10.3432 42.5059 9.63112 40.5264C9.13837 39.1584 8.64337 37.7893 8.21306 36.4016C7.74563 34.8936 7.33556 33.3664 6.93225 31.8398C6.63099 30.6864 6.35306 29.527 6.09862 28.3624C5.80194 27.0397 5.52741 25.7122 5.27513 24.3804C5.1075 23.481 5.01019 22.5686 4.87463 21.663C4.69181 20.4424 4.65806 19.2105 4.72444 17.9848C4.7835 16.8806 4.94213 15.7792 5.09963 14.6824C5.31787 13.1647 5.81794 11.7326 6.53737 10.3804C6.97781 9.55181 7.52456 8.79862 8.15681 8.09888C9.19463 6.95025 10.4507 6.12 11.8479 5.49675C12.8244 5.06138 13.8561 4.79925 14.9074 4.5945C16.4678 4.29075 18.0422 4.30256 19.6172 4.33519C20.3057 4.34925 20.9914 4.47469 21.6793 4.54275C23.1604 4.69013 24.6122 5.00175 26.0454 5.3865C27.09 5.66663 28.1132 6.02944 29.1493 6.34444C29.2534 6.37594 29.4058 6.37313 29.4908 6.31744C30.8948 5.40112 32.4293 4.79644 34.0611 4.4505C34.6804 4.31944 35.3194 4.26206 35.9528 4.22156C36.7228 4.17263 37.4991 4.12762 38.2674 4.17206C39.1911 4.22494 40.1102 4.36106 41.0282 4.48706C41.4737 4.54781 41.9085 4.7025 42.3551 4.74469C42.5689 4.76494 42.7956 4.60856 43.0217 4.55625C44.1743 4.29019 45.3218 3.99375 46.4844 3.78337C47.3501 3.627 48.2344 3.55331 49.1147 3.50269C50.0963 3.44644 51.0851 3.40538 52.0661 3.45263C53.3083 3.51414 54.5424 3.68791 55.7533 3.97181C57.2591 4.32225 58.7036 4.83131 60.0767 5.53781C61.1027 6.06544 62.0781 6.67744 62.9561 7.43006C63.5316 7.92394 64.1205 8.41162 64.6403 8.96175C65.2815 9.64013 65.9357 10.3191 66.3379 11.1881C66.6405 11.8434 66.8565 12.5218 66.9161 13.2396C66.9904 14.1317 67.0804 15.0272 67.0719 15.9204C67.0641 16.7749 66.9476 17.6287 66.8649 18.4809C66.6771 20.4238 66.2546 22.3245 65.7416 24.1999C65.3125 25.749 64.8267 27.2819 64.2853 28.7955C63.7909 30.1911 63.2205 31.5613 62.6439 32.9259C62.2195 33.9367 61.7583 34.9317 61.2613 35.9089C60.318 37.7573 59.337 39.5865 58.2024 41.3274C58.0067 41.6284 57.8211 41.9366 57.6298 42.2437C58.1248 42.5779 58.6856 42.6954 59.2504 42.7562C59.7876 42.8147 60.3354 42.8496 60.8721 42.8096C61.731 42.7461 62.5871 42.6234 63.441 42.5036C64.287 42.3855 65.1161 42.1448 65.9846 42.2083C66.852 42.2713 67.4724 42.9306 67.4134 43.7434ZM55.0311 41.8573C54.6626 41.3814 54.2869 40.9112 53.9263 40.4297C53.3604 39.6737 52.9538 38.8294 52.5454 37.9811C52.1584 37.1773 51.6836 36.4162 51.2758 35.6214C50.5642 34.2349 49.8398 32.8528 49.1844 31.4392C48.3604 29.6634 47.7107 27.8246 47.5059 25.8576C47.4193 25.0251 47.3974 24.1937 47.5656 23.3691C47.835 22.0522 48.5229 21.0223 49.6794 20.3158C50.7521 19.6605 51.9474 19.449 53.172 19.3826C53.9319 19.3416 54.6953 19.3753 55.4839 19.3753L55.4574 19.242C54.9669 18.2166 54.5085 17.1737 53.9719 16.1724C53.2147 14.7594 52.2461 13.4854 51.1672 12.3041C50.3679 11.4294 49.5023 10.6178 48.5539 9.90056C47.6213 9.19462 46.6386 8.56406 45.5901 8.04825C44.3396 7.43344 43.0374 6.95813 41.6711 6.65494C40.3582 6.36356 39.0369 6.18525 37.6903 6.17063C36.5417 6.15825 35.4004 6.21 34.2816 6.46931C32.5929 6.86025 31.0483 7.5555 29.7045 8.68162C28.961 9.30515 28.2966 10.0173 27.7262 10.8022C27.0534 11.7264 26.5106 12.7243 26.0466 13.7706C25.4098 15.2061 24.9728 16.7001 24.6741 18.2357C24.5244 19.0012 24.4074 19.7736 24.2882 20.5453C24.2466 20.8153 24.2432 21.0915 24.219 21.4009C24.4266 21.2929 24.5762 21.2096 24.7292 21.1354L25.227 20.9121C26.9106 20.142 28.6549 19.6464 30.5297 19.7033C31.3262 19.7274 32.0884 19.8849 32.7966 20.2337C34.155 20.9036 34.9498 22.0427 35.2952 23.4844C35.5337 24.4794 35.6968 25.4942 35.8554 26.5061C35.9798 27.2964 36.1069 28.0952 36.1215 28.8923C36.1423 30.0572 36.0833 31.2244 36.0197 32.3888C35.9651 33.3788 35.7603 34.3549 35.4122 35.2834C34.7822 36.9669 34.0802 38.6229 33.4243 40.2969C33.2078 40.8499 33.0413 41.4225 32.8365 42.0306C33.1526 42.0306 33.4091 42.0283 33.6656 42.0317C33.7657 42.0334 33.8681 42.0362 33.9649 42.0592C34.7186 42.237 35.3722 42.5784 35.9083 43.1584C36.6233 43.9301 36.9984 44.8307 37.0176 45.873C37.0282 46.4507 36.9675 47.0301 36.9703 47.6077C36.9821 50.2999 37.0024 52.992 37.0249 55.6836C37.0288 56.1234 37.0508 56.5639 37.0823 57.0032C37.1481 57.9229 37.2144 58.8431 37.3044 59.7606C37.3674 60.4114 37.4552 61.0611 37.5581 61.7074C37.7038 62.6231 38.1206 63.4382 38.5937 64.2173C39.0009 64.8872 39.5303 65.4564 40.2277 65.8491C41.4129 66.5162 42.6893 66.5719 43.9757 66.3261C44.8447 66.1601 45.6981 65.8935 46.5418 65.6184C47.3716 65.3522 48.1292 64.8992 48.7564 64.2943C49.3476 63.7211 49.7672 63.0225 50.0501 62.2513C50.5991 60.7556 50.7701 59.1806 50.9974 57.618C51.0823 57.033 51.156 56.4463 51.2336 55.8602C51.3219 55.1931 51.4114 54.5265 51.4969 53.8599C51.5599 53.3633 51.6173 52.8654 51.678 52.3687C51.7646 51.6555 51.8563 50.9428 51.939 50.229C52.0026 49.6772 52.0566 49.1231 52.1128 48.5702C52.1854 47.8637 52.2636 47.1572 52.326 46.4496C52.3744 45.9124 52.3547 45.3656 52.4498 44.8386C52.6247 43.8722 53.0814 43.0498 53.9381 42.5182C54.2964 42.2961 54.7009 42.1498 55.0986 41.9619L55.0311 41.8573ZM22.6327 37.8906C22.2055 36.8859 21.9481 35.8172 21.8711 34.7282C21.7991 33.7016 21.9212 32.679 22.0264 31.6569C22.1287 30.6669 22.2137 29.6724 22.2435 28.6779C22.293 27.0433 22.1828 25.4109 22.1046 23.7774C22.0573 22.8049 22.1704 21.8205 22.257 20.8457C22.3352 19.9676 22.4325 19.0873 22.5984 18.2222C22.8769 16.7704 23.2464 15.3394 23.7718 13.9523C24.2708 12.6371 24.8439 11.3563 25.6534 10.2032C26.208 9.41231 26.8374 8.67319 27.4421 7.90031L27.2627 7.83675C25.2951 7.21181 23.2954 6.72356 21.2389 6.51038C20.2663 6.40969 19.2904 6.35063 18.315 6.29269C18.0158 6.27469 17.712 6.31519 17.4116 6.34387C16.668 6.41475 15.9154 6.44287 15.1836 6.58237C13.9382 6.81919 12.7434 7.21744 11.637 7.866C10.6436 8.44819 9.80944 9.20081 9.11081 10.1036C8.33906 11.1004 7.81988 12.2276 7.44694 13.4297C7.0065 14.8477 6.79669 16.3069 6.73988 17.7795C6.69038 19.0704 6.66563 20.3687 6.88838 21.6546C7.05431 22.6119 7.16512 23.5794 7.34794 24.5329C7.59713 25.8328 7.86431 27.1299 8.17312 28.4164C8.61469 30.258 9.05569 32.1024 9.57881 33.9216C10.0794 35.6647 10.6442 37.3922 11.2562 39.0988C11.7568 40.4916 12.3356 41.8584 12.9454 43.2073C13.3425 44.0859 13.8234 44.9314 14.3274 45.7543C14.8635 46.6279 15.4733 47.457 16.3007 48.0909C17.3447 48.8914 18.153 49.0157 19.2139 48.1376C19.6684 47.7613 20.0526 47.2967 20.448 46.854C21.0763 46.1509 21.6827 45.4286 22.3082 44.7233C23.1047 43.8244 23.9113 42.9351 24.7118 42.0407C24.8811 41.8517 25.0436 41.6571 25.2084 41.4658L24.9362 41.2267C23.9476 40.2845 23.1636 39.1489 22.6327 37.8906ZM52.8323 11.133C53.4867 11.8939 54.1077 12.6829 54.6936 13.4978C55.8186 15.0778 56.7174 16.7839 57.3795 18.6092C57.6726 19.4136 57.9066 20.2258 57.8019 21.1061C57.7294 21.7226 57.7356 22.3481 57.681 22.968C57.6354 23.4838 57.5539 23.9968 57.4869 24.5109C57.3868 25.2861 57.2417 26.0589 57.1984 26.8374C57.1573 27.5782 57.2001 28.3269 57.2467 29.0694C57.294 29.8237 57.3958 30.5747 57.465 31.3279C57.5432 32.1817 57.6484 33.0356 57.6726 33.8912C57.6922 34.5938 57.6298 35.3008 57.5685 36.0023C57.4954 36.8471 57.2811 37.665 56.9616 38.4497C56.7371 39.0021 56.4688 39.5376 56.2151 40.0905L56.3169 40.1985L56.4716 40.3183L56.6274 40.0393C57.9432 37.9685 59.1127 35.8083 60.1273 33.5745C60.7765 32.1325 61.393 30.676 61.9762 29.2061C62.8898 26.9201 63.6126 24.57 64.1717 22.1732C64.4226 21.0971 64.6144 20.0048 64.7848 18.9124C64.9176 18.0585 65.0284 17.1945 65.0531 16.3327C65.0796 15.4187 65.0289 14.4973 64.9446 13.5855C64.8816 12.897 64.7117 12.204 64.2803 11.6443C63.5867 10.7432 62.838 9.88144 61.9172 9.19969C61.1421 8.62537 60.3698 8.03644 59.5378 7.55325C58.2188 6.78825 56.7911 6.27863 55.2994 5.93156C53.8436 5.59238 52.3687 5.44613 50.8843 5.41519C50.0091 5.39662 49.1299 5.49056 48.2563 5.57269C47.4649 5.64694 46.6785 5.7735 45.8814 5.87812C46.7364 6.35906 47.5796 6.78656 48.375 7.29056C50.0473 8.34975 51.5458 9.62437 52.8323 11.133ZM31.1057 40.7891C31.6462 39.0606 32.3826 37.4102 33.0958 35.7497C33.6741 34.4031 33.9902 32.9844 34.0954 31.5276C34.1477 30.8092 34.1331 30.0819 34.0976 29.3614C34.0625 28.5597 33.9889 27.7603 33.8771 26.9657C33.7275 25.9526 33.5571 24.939 33.3174 23.9445C33.0576 22.8684 32.4023 22.1192 31.2795 21.843C30.5955 21.6748 29.916 21.6816 29.2247 21.7907C27.5361 22.0567 25.9903 22.6789 24.5503 23.5901C24.2606 23.7735 24.1014 23.9214 24.1515 24.3371C24.2572 25.2174 24.2803 26.1118 24.2764 27.0006C24.2708 28.2583 24.2173 29.5161 24.1695 30.7733C24.1537 31.1828 24.0947 31.59 24.0508 31.9978C23.9833 32.6222 23.8534 33.246 23.8573 33.8693C23.8612 34.5116 23.9271 35.1692 24.0829 35.7913C24.5779 37.764 25.6264 39.3784 27.3448 40.5174C28.4017 41.2178 29.5712 41.571 30.8548 41.6379C30.942 41.3432 31.0196 41.0648 31.1057 40.7891ZM29.0886 23.8652C28.8624 23.3904 28.9918 22.9973 29.5161 22.815C29.6437 22.77 29.7754 22.7222 29.9081 22.7093C30.0904 22.6913 30.276 22.7048 30.4605 22.7048C31.1254 22.7081 31.7649 22.8009 32.3139 23.2239C32.6661 23.4951 32.7606 23.8551 32.5327 24.2246C32.2093 24.7489 31.716 25.0121 31.1102 25.0627C30.1556 25.1421 29.4857 24.6971 29.0886 23.8652ZM55.5486 23.6919C55.6251 23.0597 55.6864 22.4257 55.7646 21.7935C55.7961 21.5392 55.6622 21.4706 55.449 21.4644C54.7785 21.4459 54.108 21.4223 53.4375 21.4099C52.6815 21.3964 51.9457 21.5179 51.246 21.8053C50.4697 22.1248 49.8786 22.6367 49.6373 23.4816C49.4607 24.1046 49.4048 24.7556 49.4724 25.3997C49.5664 26.3956 49.7921 27.3746 50.1435 28.3112C50.6126 29.5605 51.1037 30.8093 51.6904 32.0063C52.4852 33.6268 53.3846 35.1956 54.2289 36.7914C54.4545 37.2172 54.6441 37.6616 54.8792 38.1589C55.3532 37.1703 55.6123 36.0925 55.6391 34.9965C55.6622 34.0909 55.5896 33.1813 55.5368 32.2751C55.5036 31.7205 55.4254 31.1693 55.3714 30.6158C55.296 29.8446 55.1818 29.0739 55.1644 28.3011C55.1469 27.5152 55.2026 26.7249 55.2701 25.9403C55.3337 25.1876 55.458 24.4412 55.5486 23.6919ZM54.036 23.0833C53.7868 23.7712 53.2541 24.1594 52.5634 24.2736C51.9193 24.3793 51.3551 24.1414 50.9355 23.6278C50.6368 23.2622 50.751 22.8291 51.1987 22.5821C51.7129 22.2975 52.2782 22.2255 52.9448 22.1822C53.1259 22.2154 53.3987 22.2429 53.658 22.3172C54.0343 22.4235 54.1733 22.7064 54.036 23.0833ZM34.1111 44.2671C33.7427 43.9661 33.2556 43.9487 32.9051 44.2789C32.4703 44.6895 32.0878 45.1592 31.7053 45.6221C31.2638 46.1571 30.8498 46.7134 30.2799 47.1279C29.4508 47.7304 28.4844 47.9801 27.513 48.2164C26.7407 48.4043 25.965 48.5786 25.1904 48.7592L25.1809 48.8593C25.4109 48.9656 25.6337 49.0984 25.8733 49.1743C27.0546 49.5484 28.2561 49.7346 29.5042 49.6288C30.4054 49.5523 31.2638 49.356 32.0771 48.9701C33.1965 48.4397 34.0577 47.5993 34.7901 46.6217C34.9127 46.4586 34.9684 46.2173 34.983 46.0069C35.0331 45.2638 34.6556 44.7114 34.1111 44.2671ZM63.2211 44.5629C62.2704 44.6647 61.3187 44.7728 60.3652 44.8273C59.9051 44.8538 59.4383 44.766 58.9736 44.7283C58.1946 44.6653 57.4341 44.4921 56.7754 44.0758C56.394 43.8356 56.0773 43.8086 55.6723 43.9448C55.0941 44.1394 54.6221 44.4352 54.4826 45.0619C54.3876 45.4854 54.3532 45.9242 54.315 46.3579C54.3077 46.4344 54.4033 46.575 54.4764 46.5941C54.9225 46.7117 55.3708 46.8506 55.827 46.8917C56.3872 46.9423 56.9576 46.926 57.5218 46.8979C58.131 46.8675 58.7441 46.8281 59.3443 46.7269C60.759 46.4895 62.1276 46.1025 63.3431 45.3004C63.7813 45.0107 64.2156 44.7148 64.6509 44.4217L64.6149 44.3599C64.1503 44.4291 63.6879 44.5134 63.2211 44.5629Z" fill="#141414"/>
</svg>
