<svg width="88" height="88" viewBox="0 0 88 88" fill="none" xmlns="http://www.w3.org/2000/svg">
<path fill-rule="evenodd" clip-rule="evenodd" d="M83.1003 51.3348C82.7533 49.4286 81.1115 48.2185 79.2389 48.1844C78.5611 48.1719 77.8755 48.2614 77.2028 48.3656C76.3902 48.4913 75.5896 48.6968 74.7794 48.8401C74.2195 48.9393 73.6505 48.9935 73.0905 49.0664L73.0747 48.9939C74.0695 46.9857 75.1087 44.998 76.0463 42.9631C76.7649 41.4022 77.3725 39.7885 78.0021 38.1874C79.0437 35.5346 79.8594 32.8064 80.5211 30.0385C81.1551 27.3882 81.6867 24.7117 81.8024 21.9769C81.849 20.8846 81.8718 19.7883 81.8364 18.6968C81.8076 17.8264 81.6902 16.9571 81.5795 16.0916C81.4541 15.0998 81.1282 14.1652 80.6877 13.2692C80.107 12.0888 79.2302 11.1311 78.3102 10.2237C77.5737 9.49723 76.7674 8.83892 75.9677 8.18109C74.8276 7.24231 73.5544 6.50276 72.2349 5.85112C70.7401 5.10793 69.1625 4.54461 67.535 4.17295C66.5488 3.94951 65.5421 3.79096 64.5448 3.61969C64.186 3.55719 63.8244 3.41795 63.4676 3.4276L56.7494 3.60939C56.5066 3.61596 56.2693 3.74777 56.0253 3.78194C54.4216 4.00456 52.8403 4.35065 51.3097 4.87065C50.7372 5.06536 50.2068 4.9668 49.657 4.93113C49.2354 4.9038 48.8191 4.80215 48.398 4.79253C46.7939 4.75585 45.1867 4.68183 43.5859 4.74221C42.0519 4.79948 40.5401 5.09313 39.0663 5.55514C37.8327 5.94171 36.6281 6.40562 35.5319 7.08914C35.0625 7.38151 34.6832 7.33925 34.1861 7.21025C32.5154 6.77687 30.8337 6.37268 29.1395 6.04105C28.0835 5.8346 27.0012 5.74703 25.9263 5.66385C24.8948 5.58479 23.8605 5.54838 22.826 5.55474C21.8165 5.56039 20.8003 5.58854 19.7984 5.70494C18.2024 5.8873 16.6346 6.26326 15.1295 6.82454C13.4626 7.44455 11.9137 8.34457 10.5497 9.4858C9.15853 10.6493 8.05556 12.0539 7.1809 13.6472C6.25938 15.3285 5.64476 17.1183 5.28315 18.9905C5.08739 20.0048 4.97439 21.0452 4.84925 22.0733C4.80999 22.3934 5.3467 22.698 4.69928 23.0332L4.81989 27.4902C5.48392 27.7689 4.97236 28.0788 5.01845 28.375C5.12897 29.0869 5.22915 29.805 5.36905 30.5109C5.59032 31.6282 5.84692 32.7412 6.10802 33.8502C6.47083 35.4002 6.85099 36.9461 7.24843 38.4876C7.53875 39.6089 7.86496 40.7227 8.20479 41.8302C8.72389 43.5217 9.23587 45.2167 9.81612 46.8875C10.3551 48.44 10.9656 49.9682 11.5716 51.4965C12.4106 53.6107 13.402 55.6518 14.5774 57.6019C15.594 59.2905 16.7461 60.8664 18.2691 62.1474C19.2727 62.9914 20.3818 63.631 21.6608 63.9312C22.6657 64.1666 23.6808 64.1706 24.6965 63.9337C25.8538 63.6655 26.9269 63.1153 27.8201 62.3321C27.9246 62.2413 28.0403 62.1712 28.1712 62.3291C28.6699 62.9268 29.3265 63.3167 30.011 63.6507C31.8585 64.5513 33.8513 64.7823 35.871 64.8439C36.3598 64.8589 36.8512 64.7753 37.3429 64.7483C38.3006 64.6961 39.2271 64.4839 40.1363 64.1941C40.6128 64.042 41.077 63.8529 41.5613 63.675C41.601 64.1945 41.6473 64.6948 41.676 65.1956L41.8182 67.9267C41.8419 68.3423 41.8696 68.759 41.9195 69.1719C42.0474 70.2366 42.1734 71.3019 42.3295 72.3625C42.4379 73.0936 42.5497 73.8304 42.7416 74.5414C43.1266 75.9769 43.6385 77.3753 44.2714 78.72C44.8777 80.0254 45.7863 81.1676 46.9219 82.0521C48.4108 83.2172 50.1316 83.6846 51.9776 83.7299C52.741 83.7493 53.5239 83.6907 54.2707 83.5339C55.4577 83.2896 56.63 82.9784 57.782 82.6019C60.1185 81.827 62.1215 80.5439 63.5891 78.5183C64.4244 77.3639 65.1024 76.1212 65.5224 74.7581C65.8688 73.632 66.1932 72.4954 66.4444 71.3456C66.6431 70.4396 66.7282 69.5083 66.8391 68.5856C66.9125 67.975 66.9497 67.3596 66.9895 66.7453C67.0544 65.7477 67.1213 64.7506 67.1606 63.7517C67.1877 63.0564 67.1669 62.3591 67.1756 61.663C67.1784 61.4509 67.2069 61.2394 67.2208 61.0276C67.2339 60.8316 67.3305 60.7614 67.53 60.7593C68.2329 60.7507 68.9373 60.7501 69.637 60.6996C70.4213 60.6429 71.2129 60.588 71.9821 60.4372C73.0783 60.2235 74.1642 59.9604 75.2367 59.6487C76.5023 59.281 77.6551 58.6524 78.7618 57.9416C80.0511 57.1144 81.2205 56.1531 82.1577 54.9303C82.9725 53.8638 83.3393 52.6466 83.1003 51.3348ZM80.8795 52.0396C80.8524 52.641 80.5914 53.1628 80.2045 53.6131C78.3785 55.739 76.0516 57.0617 73.3676 57.7548C72.348 58.0174 71.2925 58.168 70.2448 58.2935C69.3496 58.3967 68.4487 58.4424 67.5477 58.4302C66.8871 58.4231 66.2283 58.29 65.5513 58.2111C65.5004 58.8296 65.4535 59.4736 65.3928 60.1166L65.145 62.5819C65.071 63.3631 65.018 64.1464 64.9413 64.9271C64.866 65.6848 64.7669 66.4405 64.687 67.1982C64.6122 67.904 64.5624 68.6124 64.4771 69.3171C64.3455 70.3974 64.2212 71.48 64.0402 72.553C63.8228 73.8358 63.4698 75.0821 62.8705 76.2498C62.1397 77.6752 61.0784 78.7746 59.7123 79.6046C58.3044 80.4607 56.7526 80.9281 55.1773 81.3265C54.0623 81.6088 52.9076 81.6814 51.7686 81.6098C49.7931 81.4847 48.0883 80.6872 46.7756 79.1938C45.5225 77.7683 44.656 76.119 44.3109 74.2351C44.1493 73.3381 44.0174 72.4361 43.9154 71.5305C43.801 70.5241 43.7083 69.5154 43.6372 68.5051C43.5443 67.2234 43.4665 65.9406 43.4038 64.6571C43.3263 63.0797 43.2724 61.5016 43.2074 59.9239L43.2018 59.8636C42.4119 60.3669 41.637 60.9157 40.8117 61.3726C39.8471 61.9051 38.7845 62.236 37.6882 62.3453C36.8253 62.4343 35.9512 62.5177 35.0886 62.4721C33.6745 62.3968 32.2587 62.2139 30.9764 61.5534C30.4565 61.2852 29.9125 60.9565 29.5474 60.5154C28.6719 59.4585 29.0404 58.083 30.2986 57.3919C31.168 56.9134 32.1252 56.6978 33.075 56.4508C33.9018 56.2396 34.7189 55.9921 35.524 55.709C36.3186 55.4249 36.8067 54.7611 37.2887 54.11L38.0523 53.0711C37.7214 53.0453 37.4095 53.0183 37.0978 52.9978C36.1514 52.9341 35.2436 52.6987 34.372 52.3402C33.6258 52.0341 33.6137 51.999 33.089 52.6001C32.2128 53.6046 31.3622 54.6314 30.5049 55.6518C29.874 56.4022 29.2471 57.1571 28.6195 57.9093C27.9976 58.6535 27.4175 59.438 26.745 60.133C25.7462 61.1651 24.5259 61.8028 23.0487 61.7745C22.1009 61.7568 21.2254 61.4483 20.4313 60.9269C18.7925 59.8499 17.6664 58.312 16.6352 56.6928C15.314 54.6179 14.2829 52.3974 13.39 50.1113C12.7721 48.5315 12.1516 46.9504 11.606 45.3456C11.0133 43.6016 10.4868 41.8334 9.9683 40.0657C9.58056 38.7301 9.21984 37.3868 8.88636 36.0366C8.49862 34.5035 8.13655 32.9639 7.8003 31.4187C7.57643 30.375 7.43415 29.3141 7.24747 28.2622C6.99574 26.8444 6.91751 25.4088 6.95624 23.9772C6.99027 22.6876 7.14051 21.3982 7.28958 20.114C7.49622 18.3372 8.03422 16.6512 8.83058 15.0514C9.31809 14.0712 9.93196 13.1756 10.6472 12.3396C11.8213 10.9672 13.26 9.95932 14.8699 9.18837C15.9949 8.6498 17.1898 8.31155 18.4094 8.03958C20.2196 7.63609 22.0562 7.60018 23.894 7.58853C24.6974 7.5832 25.501 7.70785 26.3055 7.76552C28.0374 7.89066 29.7404 8.20827 31.4241 8.61175C32.6511 8.90548 33.8558 9.29632 35.0742 9.63099C35.1965 9.66444 35.3742 9.65635 35.4715 9.58872C37.08 8.47578 38.8505 7.72214 40.7427 7.2672C41.4608 7.09481 42.2042 7.00773 42.9416 6.94051C43.8381 6.85913 44.742 6.78215 45.6395 6.80973C46.7184 6.84225 47.7946 6.972 48.8692 7.08997C49.3906 7.14676 49.9026 7.31345 50.4248 7.34855C50.6747 7.36542 50.9342 7.1759 51.1962 7.10775C52.532 6.76109 53.8609 6.37916 55.2102 6.09712C56.2149 5.88743 57.2438 5.77359 58.2689 5.68677C59.4119 5.59019 60.5638 5.5111 61.7094 5.53524C63.16 5.56778 64.6048 5.7315 66.0259 6.02438C67.7931 6.38556 69.4938 6.93366 71.1174 7.71428C72.3306 8.29724 73.4875 8.98019 74.5353 9.83023C75.2219 10.388 75.9242 10.9382 76.5477 11.5634C77.317 12.3343 78.1013 13.1055 78.5978 14.1063C78.9714 14.861 79.2447 15.6453 79.3369 16.4805C79.4517 17.5186 79.5849 18.5601 79.6032 19.6022C79.621 20.5989 79.5122 21.5984 79.4426 22.5948C79.2848 24.8666 78.8521 27.0966 78.313 29.2999C77.8615 31.1202 77.3433 32.9232 76.7597 34.7055C76.2271 36.3487 75.6051 37.9647 74.9758 39.5744C74.5127 40.7666 74.0062 41.9416 73.4574 43.0968C72.4156 45.2823 71.3293 47.4466 70.061 49.5127C69.8422 49.8699 69.6355 50.2352 69.4221 50.5994C70.01 50.9735 70.6677 51.0929 71.3283 51.1459C71.9566 51.1972 72.5967 51.2206 73.2212 51.157C74.221 51.0558 75.2155 50.8858 76.2076 50.7191C77.1905 50.5546 78.1499 50.2477 79.1647 50.2944C80.1783 50.3405 80.9227 51.0898 80.8795 52.0396ZM66.3792 50.2308C65.9345 49.6874 65.4814 49.1508 65.0457 48.6007C64.3619 47.7368 63.861 46.765 63.358 45.7886C62.8812 44.8634 62.3036 43.9908 61.8029 43.0767C60.9293 41.4821 60.0407 39.8932 59.2319 38.2653C58.2148 36.2203 57.399 34.0963 57.0982 31.8087C56.9709 30.8405 56.9191 29.8716 57.0892 28.9046C57.3618 27.3604 58.1316 26.1375 59.4581 25.2771C60.6884 24.479 62.0758 24.1946 63.5018 24.0785C64.3868 24.0067 65.2781 24.0219 66.1978 23.9971L66.1628 23.8424C65.5584 22.662 64.9908 21.4602 64.3334 20.3095C63.4058 18.6854 62.2359 17.2302 60.9404 15.8866C59.9806 14.8917 58.9454 13.9724 57.8168 13.1659C56.7068 12.3721 55.5409 11.6677 54.3018 11.0992C52.8241 10.4217 51.2904 9.90842 49.6874 9.59795C48.1471 9.29957 46.6005 9.13331 45.0295 9.15875C43.6896 9.18056 42.3602 9.27693 41.0635 9.61466C39.1065 10.1239 37.3271 10.9834 35.7954 12.3392C34.948 13.0898 34.1957 13.9414 33.5551 14.8748C32.7997 15.9738 32.1981 17.1547 31.69 18.3895C30.9927 20.0838 30.5301 21.8399 30.2302 23.6403C30.0799 24.5378 29.9678 25.4422 29.8531 26.346C29.813 26.6622 29.8178 26.9844 29.7994 27.346C30.038 27.2135 30.2099 27.1117 30.386 27.0203L30.9595 26.7441C32.8987 25.7929 34.9173 25.1599 37.1056 25.167C38.0352 25.1701 38.9291 25.3297 39.766 25.7141C41.3714 26.4525 42.3343 27.7559 42.7826 29.4263C43.0922 30.5793 43.3144 31.7576 43.5314 32.9327C43.7013 33.8505 43.8747 34.778 43.917 35.7071C43.978 37.0651 43.9459 38.4281 43.9086 39.7881C43.8761 40.9445 43.6681 42.0893 43.2914 43.1831C42.6098 45.1664 41.8434 47.1199 41.1313 49.0928C40.8962 49.7445 40.7201 50.4176 40.5005 51.1332C40.8691 51.1232 41.1682 51.1125 41.4675 51.1084C41.5843 51.1072 41.7038 51.1072 41.8173 51.1311C42.702 51.3146 43.4751 51.6921 44.1185 52.3516C44.9767 53.2291 45.4426 54.2675 45.4978 55.4825C45.5285 56.1559 45.476 56.8335 45.4975 57.5071C45.5962 60.6464 45.7048 63.7854 45.816 66.9237C45.8344 67.4366 45.8739 67.9495 45.9245 68.4609C46.0303 69.5314 46.1368 70.6025 46.2707 71.6696C46.3647 72.4267 46.4875 73.1816 46.628 73.9321C46.8268 74.9955 47.3386 75.9329 47.9149 76.8265C48.411 77.595 49.0462 78.2422 49.8721 78.678C51.2754 79.4187 52.7656 79.4433 54.2581 79.1161C55.2664 78.8951 56.2532 78.5572 57.2285 78.2098C58.1878 77.8732 59.0571 77.321 59.7694 76.5957C60.4408 75.9086 60.9082 75.0806 61.2138 74.1722C61.8069 72.4106 61.9566 70.5683 62.1723 68.7388C62.2529 68.0539 62.3203 67.3673 62.3924 66.6813C62.4743 65.9005 62.5576 65.1203 62.6362 64.3402C62.694 63.759 62.7452 63.1766 62.8004 62.5954C62.8789 61.7609 62.9634 60.9268 63.0373 60.0917C63.094 59.4462 63.1395 58.7983 63.1876 58.1517C63.25 57.3254 63.3189 56.499 63.3694 55.6718C63.4088 55.0438 63.3686 54.4067 63.4628 53.7891C63.6364 52.6565 64.1431 51.683 65.1254 51.036C65.5363 50.7656 66.0033 50.5823 66.4612 50.3506L66.3792 50.2308ZM28.4698 46.627C27.9398 45.4688 27.606 44.2306 27.4818 42.9629C27.3654 41.768 27.4755 40.5715 27.5659 39.3762C27.6541 38.2184 27.7217 37.0559 27.7251 35.8951C27.7313 33.9872 27.5512 32.0869 27.4084 30.1844C27.3226 29.0516 27.4234 27.9 27.4937 26.7604C27.5572 25.7339 27.6429 24.7042 27.8091 23.69C28.088 21.9881 28.4738 20.3075 29.0428 18.6732C29.5832 17.1237 30.2112 15.6119 31.1188 14.2415C31.7407 13.3017 32.4514 12.4198 33.1323 11.4994L32.921 11.4309C30.6066 10.7642 28.259 10.2579 25.8539 10.0741C24.7165 9.98741 23.5765 9.94933 22.4371 9.91254C22.0876 9.90099 21.7346 9.95781 21.3852 10.0007C20.5202 10.1069 19.6433 10.1634 18.7943 10.3492C17.3493 10.6647 15.9685 11.1668 14.6986 11.9581C13.5585 12.6685 12.6094 13.5725 11.8231 14.6475C10.9545 15.8343 10.3846 17.1653 9.98758 18.579C9.51867 20.2467 9.32003 21.955 9.30024 23.6742C9.28325 25.1813 9.29536 26.6962 9.59572 28.1888C9.81945 29.3001 9.97922 30.4249 10.2225 31.5311C10.5541 33.0392 10.9067 34.5436 11.3074 36.0341C11.8805 38.168 12.453 40.3051 13.1205 42.4101C13.7594 44.4273 14.4725 46.4241 15.2401 48.3951C15.8679 50.0036 16.5861 51.5794 17.3398 53.1333C17.8307 54.1455 18.4182 55.1163 19.032 56.0601C19.6847 57.062 20.422 58.0097 21.407 58.7229C22.6498 59.6234 23.5964 59.7429 24.8059 58.6854C25.3241 58.2322 25.7575 57.6782 26.2047 57.1494C26.9153 56.3096 27.5997 55.4482 28.3069 54.6058C29.2075 53.5323 30.1201 52.4697 31.0254 51.4014C31.2169 51.1756 31.4003 50.9435 31.5865 50.7153L31.2614 50.4451C30.0788 49.3774 29.1286 48.0777 28.4698 46.627ZM62.8453 14.4682C63.6325 15.3349 64.3817 16.2355 65.0906 17.1674C66.4525 18.9746 67.5546 20.9359 68.3844 23.0438C68.7515 23.9726 69.0501 24.9125 68.9558 25.9424C68.8907 26.6637 68.9176 27.393 68.8735 28.1177C68.8367 28.7207 68.7578 29.3215 68.6959 29.9232C68.6036 30.8304 68.4587 31.7363 68.4328 32.6456C68.4083 33.5108 68.4818 34.3826 68.5597 35.2471C68.6386 36.1253 68.781 36.9979 68.8855 37.8741C69.0036 38.8674 69.1532 39.86 69.2084 40.857C69.2535 41.6757 69.203 42.5023 69.1537 43.3223C69.0951 44.3099 68.8709 45.2705 68.5231 46.1957C68.2788 46.847 67.9827 47.48 67.7043 48.1329L67.8265 48.2556L68.0107 48.3904L68.1836 48.0601C69.6527 45.6036 70.9485 43.0474 72.0612 40.4102C72.7728 38.708 73.4458 36.9899 74.0797 35.2573C75.0729 32.5624 75.8417 29.7988 76.4182 26.9859C76.6768 25.723 76.866 24.443 77.0303 23.1636C77.1582 22.1636 77.2602 21.1525 77.2618 20.1467C77.2638 19.0799 77.1757 18.0069 77.0485 16.9462C76.9533 16.1452 76.7333 15.3424 76.2125 14.7033C75.3752 13.6742 74.4749 12.6928 73.3795 11.9268C72.4574 11.2815 71.5381 10.619 70.5526 10.0818C68.9901 9.23122 67.3091 8.68193 65.5584 8.32424C63.8499 7.97461 62.1252 7.85059 60.3931 7.86136C59.3717 7.86733 58.3493 8.00463 57.3331 8.12797C56.4125 8.23954 55.4994 8.41196 54.5731 8.55913C55.5854 9.09304 56.5823 9.565 57.5258 10.1277C59.5095 11.3102 61.2974 12.7494 62.8453 14.4682ZM38.4428 49.74C39.0186 47.707 39.8253 45.7591 40.6047 43.8C41.2366 42.2113 41.5605 40.5468 41.6372 38.8445C41.6755 38.0051 41.6355 37.1573 41.5714 36.3181C41.5051 35.3843 41.3941 34.4543 41.2387 33.5311C41.0322 32.3544 40.8014 31.1776 40.4906 30.0253C40.1536 28.7786 39.3657 27.9255 38.0476 27.6388C37.2445 27.4642 36.4523 27.4936 35.6495 27.6426C33.6886 28.0062 31.9055 28.7805 30.2549 29.8887C29.9228 30.1117 29.7418 30.2893 29.8133 30.7725C29.9644 31.7958 30.0195 32.8381 30.043 33.8748C30.0761 35.3418 30.0535 36.8103 30.0374 38.278C30.032 38.7561 29.9759 39.2329 29.9376 39.7099C29.8786 40.4402 29.7468 41.1718 29.771 41.8985C29.7959 42.6476 29.8934 43.4124 30.0947 44.133C30.7343 46.418 32.008 48.2677 34.0481 49.5418C35.3028 50.3252 36.6778 50.7003 38.177 50.7379C38.2693 50.3913 38.3511 50.0642 38.4428 49.74ZM35.5562 30.0663C35.2775 29.5198 35.416 29.0571 36.0216 28.828C36.1691 28.7715 36.3211 28.7116 36.4755 28.6923C36.6875 28.6656 36.9044 28.6755 37.1196 28.6697C37.8951 28.6526 38.6439 28.7407 39.2975 29.2167C39.7168 29.5217 39.8383 29.9386 39.5843 30.3768C39.2236 30.9984 38.6566 31.321 37.9517 31.3991C36.841 31.5218 36.0456 31.024 35.5562 30.0663ZM66.4095 29.0292C66.4787 28.2895 66.5302 27.5482 66.6015 26.8084C66.6302 26.5109 66.4719 26.4351 66.223 26.4346C65.4405 26.4341 64.6578 26.4277 63.8754 26.4344C62.9933 26.4425 62.1391 26.6075 61.3321 26.9648C60.4369 27.3619 59.7636 27.9775 59.5088 28.9704C59.3226 29.7026 59.2779 30.4637 59.3771 31.2126C59.5181 32.3711 59.8122 33.5058 60.2516 34.587C60.8382 36.0292 61.4503 37.47 62.1723 38.8475C63.1503 40.7124 64.2488 42.5136 65.2838 44.348C65.5603 44.8375 65.7954 45.3498 66.0853 45.9223C66.607 44.7544 66.8751 43.4893 66.8718 42.2102C66.8701 41.1533 66.7568 40.0948 66.6665 39.0397C66.6103 38.3939 66.5018 37.7535 66.4213 37.1097C66.3091 36.2126 66.1516 35.3175 66.1069 34.4167C66.0617 33.5008 66.1017 32.5774 66.1557 31.6601C66.2061 30.7803 66.3275 29.9059 66.4095 29.0292ZM64.6262 28.3672C64.3573 29.1773 63.7483 29.6468 62.9464 29.8018C62.1986 29.9454 61.5331 29.6857 61.0275 29.1C60.6676 28.683 60.7871 28.1743 61.3015 27.8722C61.8921 27.524 62.5491 27.4222 63.3251 27.3507C63.5374 27.3837 63.8565 27.4072 64.1612 27.4856C64.6034 27.5977 64.7744 27.9233 64.6262 28.3672ZM42.0576 53.7013C41.6184 53.3619 41.0497 53.357 40.6515 53.7531C40.1573 54.2457 39.7261 54.8056 39.2946 55.3575C38.7965 55.9953 38.3312 56.6572 37.6798 57.1586C36.7318 57.8874 35.6127 58.2092 34.4872 58.5153C33.5924 58.7588 32.6933 58.9867 31.7957 59.2217L31.7877 59.3388C32.0593 59.4555 32.3233 59.6033 32.6052 59.6843C33.9946 60.0832 35.4017 60.2625 36.854 60.0997C37.9026 59.9821 38.8974 59.7261 39.8339 59.2504C41.1226 58.5964 42.1004 57.5892 42.9237 56.4259C43.0615 56.2318 43.1189 55.9486 43.1293 55.7028C43.1642 54.8346 42.7066 54.2023 42.0576 53.7013ZM76.0161 53.1277C74.9106 53.2764 73.8041 53.4324 72.6938 53.5261C72.1581 53.5715 71.6108 53.4839 71.0678 53.4546C70.1572 53.4057 69.2648 53.2277 68.4835 52.763C68.0311 52.4949 67.6609 52.4734 67.1929 52.645C66.5247 52.8902 65.9836 53.2501 65.8407 53.9853C65.7432 54.4823 65.717 54.9951 65.6861 55.5021C65.68 55.5915 65.796 55.7525 65.8818 55.7725C66.4058 55.8955 66.933 56.0434 67.4663 56.0769C68.1213 56.1183 68.786 56.0813 69.4431 56.0307C70.1526 55.976 70.8664 55.9107 71.5631 55.7737C73.2055 55.4522 74.7894 54.9577 76.1817 53.9839C76.6836 53.6322 77.1807 53.2734 77.6792 52.9179L77.6353 52.8469C77.0956 52.9422 76.559 53.0552 76.0161 53.1277Z" fill="#141414"/>
</svg>
