<svg width="72" height="72" viewBox="0 0 72 72" fill="none" xmlns="http://www.w3.org/2000/svg">
<path d="M27.7481 34.875H44.1501C48.7159 34.875 52.3125 31.0117 52.3125 26.4268V10.7904C52.3125 6.33994 48.582 2.99644 44.1253 2.25394C41.3049 1.78425 38.3906 1.5705 35.5826 1.584C32.7758 1.59694 30.1759 1.836 27.8173 2.25394C20.8676 3.48075 19.6875 6.05137 19.6875 10.7904V16.875H36V19.125H13.374C8.60176 19.125 4.42238 21.9982 3.1157 27.4562C1.60763 33.7112 1.5407 37.5356 3.1157 44.0668C4.28288 48.9279 7.07007 52.3125 11.8429 52.3125H17.4375V44.973C17.4375 39.5522 22.1783 34.875 27.7481 34.875ZM26.7143 12.8756C25.0121 12.8756 23.6329 11.4812 23.6329 9.75656C23.6329 8.02462 25.0116 6.61725 26.7143 6.61725C28.4102 6.61725 29.7962 8.02462 29.7962 9.75656C29.7956 11.4812 28.4096 12.8756 26.7143 12.8756ZM68.7831 27.4562C67.6029 22.7042 65.3501 19.125 60.5711 19.125H54.5625V26.4268C54.5625 32.0799 49.6159 36.5625 44.1501 36.5625H27.7481C23.2549 36.5625 19.6875 40.6834 19.6875 45.1834V60.8209C19.6875 65.2702 23.4816 67.8881 27.8224 69.165C33.021 70.6933 37.944 70.9695 44.1636 69.165C48.2974 67.9674 52.3125 65.5588 52.3125 60.8209V54.5625H36V52.3125H60.5711C65.3434 52.3125 67.1226 49.0635 68.7831 44.0662C70.497 38.9222 70.4233 34.0543 68.7831 27.4562ZM45.1834 58.7346C46.8861 58.7346 48.2653 60.129 48.2653 61.8547C48.2653 63.585 46.8866 64.9929 45.1834 64.9929C43.4874 64.9929 42.102 63.5856 42.102 61.8547C42.102 60.129 43.4874 58.7346 45.1834 58.7346Z" fill="#141414"/>
</svg>
