<svg width="72" height="72" viewBox="0 0 72 72" fill="none" xmlns="http://www.w3.org/2000/svg">
<path d="M36 42.4125C39.5415 42.4125 42.4125 39.5415 42.4125 36C42.4125 32.4585 39.5415 29.5875 36 29.5875C32.4585 29.5875 29.5875 32.4585 29.5875 36C29.5875 39.5415 32.4585 42.4125 36 42.4125Z" fill="#141414"/>
<path d="M60.3563 25.425C59.1188 24.975 57.825 24.525 56.475 24.1313C56.8125 22.7813 57.0938 21.4312 57.3188 20.1375C58.5 12.7125 57.2063 7.48125 53.6063 5.45625C52.5375 4.8375 51.3563 4.55625 50.0063 4.55625C46.0688 4.55625 41.0625 7.48125 36 12.375C30.9375 7.48125 25.9313 4.55625 21.9938 4.55625C20.6438 4.55625 19.4625 4.8375 18.3938 5.45625C14.7938 7.5375 13.5 12.7688 14.6813 20.1375C14.9063 21.4312 15.1875 22.7813 15.525 24.1313C14.175 24.525 12.8813 24.9187 11.6438 25.425C4.61251 28.125 0.787506 31.8375 0.787506 36C0.787506 40.1625 4.66876 43.875 11.6438 46.575C12.8813 47.025 14.175 47.475 15.525 47.8687C15.1875 49.2187 14.9063 50.5687 14.6813 51.8625C13.5 59.2875 14.7938 64.5187 18.3938 66.5437C19.4625 67.1625 20.6438 67.4437 21.9938 67.4437C25.9875 67.4437 30.9938 64.5187 36 59.625C41.0625 64.5187 46.0688 67.4437 50.0063 67.4437C51.3563 67.4437 52.5375 67.1625 53.6063 66.5437C57.2063 64.4625 58.5 59.2312 57.3188 51.8625C57.0938 50.5687 56.8125 49.2187 56.475 47.8687C57.825 47.475 59.1188 47.0812 60.3563 46.575C67.3875 43.875 71.2125 40.1625 71.2125 36C71.2125 31.8375 67.3875 28.125 60.3563 25.425ZM52.0313 8.26875C54.3375 9.61875 55.125 13.7812 54.1688 19.6875C54 20.8687 53.7188 22.1062 53.3813 23.4C50.4563 22.725 47.3625 22.275 44.1 21.9937C42.1875 19.2937 40.2188 16.875 38.25 14.6813C42.4125 10.575 46.6313 7.7625 50.0625 7.7625C50.7938 7.7625 51.4688 7.93125 52.0313 8.26875ZM45.7313 41.625C44.7188 43.425 43.5375 45.225 42.3 47.025C40.2188 47.1937 38.1375 47.25 36 47.25C33.8063 47.25 31.725 47.1937 29.7 47.025C28.4625 45.225 27.3375 43.425 26.325 41.625C25.2563 39.7687 24.2438 37.8562 23.3438 36C24.2438 34.1437 25.2563 32.2312 26.325 30.375C27.3375 28.575 28.5188 26.775 29.7563 24.975C31.8375 24.8063 33.9188 24.75 36.0563 24.75C38.25 24.75 40.3313 24.8063 42.3563 24.975C43.5938 26.775 44.7188 28.575 45.7313 30.375C46.8 32.2312 47.8125 34.1437 48.7125 36C47.7563 37.8562 46.8 39.7125 45.7313 41.625ZM50.4 39.7687C51.2438 41.7375 51.9188 43.65 52.5375 45.5625C50.625 46.0125 48.6 46.35 46.4625 46.6312C47.1375 45.5625 47.8688 44.4375 48.4875 43.2562C49.1625 42.075 49.7813 40.8937 50.4 39.7687ZM36 55.0125C34.65 53.55 33.3563 51.975 32.1188 50.3437C33.4125 50.4 34.7063 50.4562 36 50.4562C37.2938 50.4562 38.5875 50.4 39.8813 50.3437C38.6438 51.975 37.35 53.55 36 55.0125ZM25.5375 46.575C23.4 46.2938 21.375 45.9562 19.4625 45.5062C20.0813 43.65 20.7563 41.6812 21.6 39.7125C22.2188 40.8375 22.8375 42.0187 23.5125 43.1437C24.1875 44.3812 24.8625 45.45 25.5375 46.575ZM21.6 32.2312C20.7563 30.2625 20.0813 28.35 19.4625 26.4375C21.375 25.9875 23.4 25.65 25.5375 25.3687C24.8625 26.4375 24.1313 27.5625 23.5125 28.7437C22.8375 29.925 22.2188 31.1062 21.6 32.2312ZM36 16.9875C37.35 18.45 38.6438 20.025 39.8813 21.6562C38.5875 21.6 37.2938 21.5437 36 21.5437C34.7063 21.5437 33.4125 21.6 32.1188 21.6562C33.3563 20.025 34.65 18.45 36 16.9875ZM48.4875 28.8L46.4625 25.425C48.6 25.7062 50.625 26.0437 52.5375 26.4937C51.9188 28.35 51.2438 30.3188 50.4 32.2875C49.7813 31.1063 49.1625 29.925 48.4875 28.8ZM17.8313 19.6875C16.875 13.7812 17.6625 9.61875 19.9688 8.26875C20.5313 7.93125 21.2063 7.7625 21.9375 7.7625C25.3125 7.7625 29.5313 10.5188 33.75 14.6813C31.7813 16.8188 29.8125 19.2937 27.9 21.9937C24.6375 22.275 21.5438 22.7812 18.6188 23.4C18.2813 22.1062 18.0563 20.8687 17.8313 19.6875ZM3.93751 36C3.93751 33.3562 7.14376 30.5437 12.7688 28.4625C13.8938 28.0125 15.1313 27.6187 16.3688 27.2812C17.2688 30.0938 18.3938 33.075 19.7438 36.0562C18.3938 39.0375 17.2125 41.9625 16.3688 44.775C8.60626 42.525 3.93751 39.15 3.93751 36ZM19.9688 63.7312C17.6625 62.3812 16.875 58.2187 17.8313 52.3125C18 51.1312 18.2813 49.8937 18.6188 48.6C21.5438 49.275 24.6375 49.725 27.9 50.0062C29.8125 52.7062 31.7813 55.125 33.75 57.3187C29.5875 61.425 25.3688 64.2375 21.9375 64.2375C21.2063 64.2375 20.5313 64.0687 19.9688 63.7312ZM54.1688 52.3125C55.125 58.2187 54.3375 62.3812 52.0313 63.7312C51.4688 64.0687 50.7938 64.2375 50.0625 64.2375C46.6875 64.2375 42.4688 61.4812 38.25 57.3187C40.2188 55.1812 42.1875 52.7062 44.1 50.0062C47.3625 49.725 50.4563 49.2188 53.3813 48.6C53.7188 49.8937 53.9438 51.1312 54.1688 52.3125ZM59.2313 43.5375C58.1063 43.9875 56.8688 44.3812 55.6313 44.7188C54.7313 41.9062 53.6063 38.925 52.2563 35.9438C53.6063 32.9625 54.7875 30.0375 55.6313 27.225C63.3938 29.475 68.0625 32.85 68.0625 36C68.0625 38.6437 64.8 41.4562 59.2313 43.5375Z" fill="#141414"/>
</svg>
