<svg width="87" height="90" viewBox="0 0 87 90" fill="none" xmlns="http://www.w3.org/2000/svg">
<path d="M43.3708 52.3655C47.5011 52.2537 50.7555 48.6953 50.6398 44.4175C50.524 40.1398 47.0819 36.7625 42.9517 36.8743C38.8214 36.9861 35.567 40.5445 35.6827 44.8223C35.7985 49.1 39.2406 52.4773 43.3708 52.3655Z" fill="#141414"/>
<path d="M71.2209 31.0778C69.763 30.5733 68.2395 30.0706 66.6522 29.6376C67.0016 27.9963 67.2855 26.3568 67.5056 24.787C68.6406 15.7811 66.9608 9.50313 62.6961 7.17076C61.4295 6.45711 60.0427 6.15466 58.4682 6.19727C53.8762 6.32152 48.1333 10.0126 42.3892 16.0835C36.3251 10.3321 30.391 6.95701 25.799 7.08127C24.2245 7.12387 22.8561 7.50087 21.6299 8.28198C17.4995 10.9095 16.1616 17.2691 17.7801 26.1325C18.0848 27.6881 18.4569 29.3099 18.8946 30.9299C17.3331 31.4481 15.8371 31.9645 14.4105 32.6151C6.29859 36.0983 1.95906 40.7033 2.09511 45.7311C2.23116 50.759 6.87897 55.1208 15.1017 58.162C16.5597 58.6665 18.0832 59.1692 19.6705 59.6022C19.321 61.2435 19.0371 62.883 18.817 64.4528C17.6821 73.4587 19.3619 79.7367 23.6265 82.069C24.8932 82.7827 26.28 83.0851 27.8544 83.0425C32.5121 82.9165 38.255 79.2254 43.9335 73.1563C49.9975 78.9077 55.9316 82.2828 60.5237 82.1585C62.0981 82.1159 63.4665 81.7389 64.6927 80.9578C68.8232 78.3303 70.161 71.9707 68.5426 63.1073C68.2379 61.5517 67.8657 59.9299 67.428 58.3099C68.9896 57.7917 70.4855 57.2753 71.9122 56.6247C80.0241 53.1415 84.3636 48.5365 84.2275 43.5087C84.0915 38.4808 79.5093 34.1172 71.2209 31.0778ZM60.9512 10.6177C63.685 12.1755 64.7395 17.1785 63.8173 24.3428C63.6591 25.775 63.3715 27.2786 63.0202 28.852C59.5869 28.1289 55.9641 27.683 52.1501 27.4463C49.8314 24.2453 47.4563 21.3858 45.0886 18.7982C49.8088 13.7069 54.637 10.1766 58.6386 10.0683C59.4915 10.0452 60.2842 10.2277 60.9512 10.6177ZM54.6941 51.1072C53.5722 53.3133 52.2534 55.5248 50.869 57.7381C48.4473 58.0076 46.0219 58.1412 43.529 58.2087C40.9706 58.2779 38.5415 58.2756 36.1744 58.1357C34.6723 56.0006 33.3015 53.8619 32.0618 51.7196C30.7547 49.5112 29.5114 47.233 28.4011 45.0193C29.39 42.7487 30.5084 40.4067 31.6941 38.1308C32.8161 35.9247 34.1349 33.7132 35.5193 31.4999C37.941 31.2304 40.3664 31.0968 42.8592 31.0293C45.4177 30.9601 47.8467 30.9624 50.2139 31.1023C51.7159 33.2375 53.0868 35.3762 54.3264 37.5184C55.6335 39.7268 56.8769 42.005 57.9871 44.2187C56.9326 46.491 55.8781 48.7634 54.6941 51.1072ZM60.0784 48.7177C61.1267 51.0691 61.9764 53.3579 62.7606 55.6485C60.5448 56.2524 58.1942 56.7239 55.7106 57.1311C56.4629 55.8189 57.2789 54.4369 57.9619 52.9906C58.7105 51.5425 59.3935 50.0961 60.0784 48.7177ZM43.7827 67.5849C42.1605 65.861 40.6002 63.9994 39.1037 62.0681C40.6143 62.0952 42.125 62.1223 43.6338 62.0815C45.1426 62.0406 46.6496 61.9319 48.1566 61.8231C46.7667 63.8325 45.3094 65.7758 43.7827 67.5849ZM31.3052 57.7235C28.8032 57.4513 26.4305 57.1075 24.1853 56.6243C24.8463 54.3626 25.5691 51.9633 26.4888 49.5586C27.2472 50.898 28.0074 52.3053 28.8314 53.6428C29.6591 55.1163 30.4812 56.3859 31.3052 57.7235ZM26.2443 40.5221C25.1959 38.1707 24.3462 35.8819 23.5621 33.5913C25.7778 32.9874 28.1284 32.5158 30.6121 32.1087C29.8598 33.4209 29.0437 34.8029 28.3607 36.2492C27.6121 37.6973 26.9291 39.1437 26.2443 40.5221ZM42.5399 21.6549C44.1621 23.3788 45.7224 25.2404 47.219 27.1717C45.7083 27.1446 44.1977 27.1175 42.6888 27.1583C41.18 27.1991 39.673 27.3079 38.166 27.4167C39.5559 25.4073 41.0133 23.464 42.5399 21.6549ZM57.4894 35.529L55.0175 31.5163C57.5195 31.7885 59.8922 32.1323 62.1373 32.6155C61.4764 34.8772 60.7535 37.2765 59.8338 39.6812C59.0736 38.2739 58.3134 36.8666 57.4894 35.529ZM21.439 25.4895C20.1308 18.3856 20.9131 13.3329 23.5587 11.6295C24.2036 11.2041 24.9853 10.9789 25.8381 10.9558C29.7742 10.8493 34.7844 14.0455 39.8405 18.9402C37.6143 21.5842 35.3992 24.6358 33.257 27.9575C29.4613 28.4002 25.8698 29.1093 22.4788 29.949C22.0429 28.3969 21.7401 26.9093 21.439 25.4895ZM5.76876 45.6317C5.68235 42.4384 9.32969 38.94 15.8218 36.2485C17.1191 35.6695 18.5494 35.1548 19.9816 34.7081C21.1232 38.0769 22.5326 41.6424 24.2045 45.2008C22.7275 48.8445 21.4455 52.4148 20.5534 55.8387C11.4269 53.3659 5.87172 49.4366 5.76876 45.6317ZM25.3714 78.6221C22.6377 77.0643 21.5832 72.0613 22.5054 64.897C22.6636 63.4648 22.9511 61.9612 23.3024 60.3878C26.7358 61.1109 30.3585 61.5568 34.1726 61.7935C36.4913 64.9945 38.8663 67.854 41.2341 70.4416C36.5138 75.5329 31.6857 79.0632 27.684 79.1715C26.8312 79.1946 26.0385 79.0121 25.3714 78.6221ZM64.8836 63.7503C66.1919 70.8542 65.4095 75.9069 62.764 77.6103C62.119 78.0357 61.3373 78.2609 60.4845 78.2839C56.5484 78.3905 51.5383 75.1943 46.4822 70.2996C48.7083 67.6556 50.9235 64.604 53.0657 61.2823C56.8613 60.8396 60.4528 60.1305 63.8439 59.2908C64.2797 60.8429 64.5826 62.3305 64.8836 63.7503ZM70.5009 52.9913C69.2036 53.5703 67.7732 54.085 66.341 54.5317C65.1995 51.1629 63.79 47.5974 62.1182 44.0389C63.5952 40.3953 64.8772 36.825 65.7693 33.4011C74.8957 35.8739 80.4509 39.8032 80.5539 43.6081C80.6403 46.8014 76.9274 50.3016 70.5009 52.9913Z" fill="#141414"/>
</svg>
