<svg width="72" height="72" viewBox="0 0 72 72" fill="none" xmlns="http://www.w3.org/2000/svg">
<path d="M49.8881 49.5619C44.8256 59.9119 35.9606 66.8756 24.2325 69.165C22.4343 69.6056 20.5882 69.821 18.7369 69.8063C11.9869 69.8063 5.79937 66.9938 2.79562 62.3869C-1.23751 56.25 -2.61 43.2394 10.6875 33.615C10.9575 35.0831 11.5087 37.0969 11.8744 38.2894C9.26399 40.2287 7.1273 42.7346 5.62499 45.6188C3.14999 50.4788 3.42562 55.3331 6.35624 59.8219C8.38124 62.8481 11.5875 64.6875 15.7106 65.25C20.8605 65.9018 26.085 64.9179 30.645 62.4375C37.7944 58.68 42.5587 54.1913 45.675 48.0544C44.7938 47.1438 44.2723 45.9448 44.2069 44.6794C44.1598 43.3214 44.6533 42.0003 45.5792 41.0058C46.5051 40.0113 47.7878 39.4248 49.1456 39.375H49.3369C50.6576 39.3684 51.9303 39.8697 52.8917 40.7753C53.8531 41.6809 54.4296 42.9215 54.5018 44.2402C54.5741 45.559 54.1366 46.8551 53.2799 47.8603C52.4232 48.8655 51.2129 49.5029 49.8994 49.6406L49.8881 49.5619ZM66.015 38.1994C72.8831 45.9844 73.0687 55.1475 70.4137 60.4631C67.9387 65.3175 61.4137 70.1775 52.6387 70.1775C48.5424 70.0939 44.5127 69.1249 40.8262 67.3369C42.1144 66.42 43.9425 64.9519 44.9494 64.035C47.7922 65.2666 50.8515 65.9205 53.9494 65.9588C59.6306 65.9588 63.9337 63.3038 66.4987 58.4494C68.1469 55.2431 68.2425 51.4856 66.6844 47.6381C64.7725 42.7972 61.3703 38.6898 56.97 35.91C51.1969 32.0183 44.3911 29.9437 37.4287 29.9531H35.7806C35.3963 30.8409 34.7711 31.6033 33.9758 32.1541C33.1805 32.7048 32.2468 33.0219 31.2806 33.0694H31.1062C29.7698 33.0529 28.4925 32.5162 27.5455 31.5731C26.5985 30.63 26.0564 29.3549 26.0344 28.0185C26.0125 26.6822 26.5123 25.39 27.4278 24.4163C28.3433 23.4425 29.6023 22.8641 30.9375 22.8038H31.1231C32.0535 22.8044 32.9658 23.0615 33.7596 23.5468C34.5535 24.032 35.1982 24.7266 35.6231 25.5544H37.0912C48.7912 25.5544 59.0625 30.0431 66.015 38.1994ZM19.4681 51.1369C19.3718 50.2028 19.5981 49.2639 20.1094 48.4763C14.9794 39.5888 12.2344 28.3219 16.4475 16.5938C19.4681 7.77938 27.0731 1.8225 35.3194 1.8225C44.1169 1.8225 53.28 9.52313 54.3769 24.3619C53.0044 23.9063 51.0019 23.2369 49.7981 22.9894C49.5 18.135 45.3994 6.04125 35.685 6.22125C32.2031 6.31688 27.0731 7.965 24.435 11.3513C21.1717 15.3935 19.2734 20.3659 19.0125 25.5544C18.3941 32.6687 20.0633 39.7947 23.7769 45.8944C23.9819 45.8195 24.2004 45.7888 24.4181 45.8044H24.5981C25.9587 45.7798 27.2733 46.2966 28.2528 47.2413C29.2322 48.1859 29.7963 49.481 29.8209 50.8416C29.8455 52.2021 29.3287 53.5167 28.384 54.4962C27.4394 55.4757 26.1443 56.0398 24.7837 56.0644H24.5981C23.2708 56.0597 21.9965 55.5429 21.0408 54.6218C20.0851 53.7007 19.5217 52.4463 19.4681 51.12V51.1369Z" fill="#141414"/>
</svg>
