<svg width="72" height="72" viewBox="0 0 72 72" fill="none" xmlns="http://www.w3.org/2000/svg">
<path fill-rule="evenodd" clip-rule="evenodd" d="M0.685684 31.5877C0.685684 31.9832 0.802122 32.2442 0.867372 32.4979C1.29262 34.1477 2.20668 35.5635 3.29118 36.855C4.83581 38.6955 6.7275 40.1771 8.66531 41.5704C10.3461 42.7787 12.0611 43.9599 13.7486 45.1592C14.0383 45.3651 14.3122 45.6019 14.6267 45.8544C14.3561 46.0007 14.1311 46.1295 13.8971 46.2482C11.6702 47.3777 9.52762 48.6439 7.55269 50.1778C6.36243 51.1026 5.21156 52.0852 4.39875 53.3694C3.09093 55.4349 2.628 57.6354 3.60281 59.985C3.88743 60.6712 4.32168 61.2641 4.93425 61.7023C5.13281 61.8441 5.35556 61.9847 5.58787 62.0398C6.183 62.1799 6.78937 62.2716 7.39181 62.3824L9.09787 62.3813C10.9845 62.2131 12.7018 61.5667 14.2537 60.4957C16.6792 58.8217 18.3133 56.5774 19.0159 53.6968C19.5266 51.6032 19.5474 49.5073 18.9456 47.4232C18.888 47.2302 18.8215 47.0398 18.7464 46.8529C18.6733 46.6656 18.5872 46.4833 18.486 46.2499L22.3537 44.0257L22.4117 44.0753C22.3414 44.3053 22.2666 44.5348 22.203 44.7671C21.7434 46.4456 21.438 48.1534 21.5477 49.8954C21.6647 51.7517 22.1827 53.4893 23.2695 55.0401C24.1481 56.2944 26.2417 56.3411 27.1755 55.0823C27.5068 54.6351 27.828 54.1676 28.0693 53.6687C28.6999 52.3665 29.2837 51.0413 29.8862 49.725L29.9914 49.4842C29.9481 50.1075 29.8974 50.6548 29.8744 51.2027C29.8384 52.0583 29.8884 52.9088 30.1809 53.7227C30.4312 54.4191 30.8571 54.9394 31.6547 55.0311C32.2003 55.0935 32.6351 54.8437 33.0362 54.5271C33.6575 54.0361 34.1725 53.4238 34.5499 52.7276C35.6192 50.7639 36.7172 48.8121 37.6864 46.7989C38.7349 44.6214 39.6517 42.3804 40.6254 40.1659L40.7863 39.7733C41.0164 40.6772 41.1767 41.5626 41.472 42.4007C41.8151 43.3732 42.2398 44.3227 42.7022 45.2458C42.921 45.6817 42.8957 45.9647 42.5925 46.3303C41.3235 47.8603 40.0764 49.4089 38.8283 50.9557C38.5521 51.2972 38.277 51.6448 38.0469 52.0177C37.9074 52.2533 37.8156 52.514 37.7769 52.785C37.7382 53.0345 37.7976 53.2893 37.9426 53.496C38.0877 53.7027 38.3071 53.8452 38.5549 53.8937C39.055 54.0014 39.5678 54.0379 40.0781 54.0023C41.8202 53.874 43.4019 53.2626 44.8003 52.2264C46.6121 50.8843 47.1938 49.0528 46.755 46.8821C46.6363 46.2932 46.4265 45.7206 46.2223 45.153C46.1306 44.8971 46.1244 44.7176 46.2915 44.4791C47.7399 42.4108 48.9774 40.2165 50.1283 37.9716C50.1739 37.8832 50.2206 37.7949 50.3004 37.7004C50.6734 39.6411 51.2348 41.5114 52.2405 43.2084C51.7275 43.7029 51.2196 44.1512 50.76 44.6451C49.7481 45.7329 48.8706 46.9142 48.4127 48.3547C48.2158 48.9757 48.0645 49.6069 48.1522 50.2701C48.2884 51.3 49.1321 51.9694 50.1452 51.7348C52.3131 51.2331 54.1845 50.2116 55.5519 48.402C56.4722 47.1836 56.556 45.8246 56.1707 44.4009C56.0649 44.0139 55.9395 43.6331 55.8045 43.1893C56.3394 43.0234 56.8609 42.8242 57.4003 42.7011C60.201 42.0621 62.9713 42.1734 65.6702 43.1848C67.2458 43.7754 68.5187 44.7638 69.2736 46.3185C70.1955 48.2192 69.6859 50.0226 67.8943 51.2241C67.7272 51.336 67.536 51.4243 67.3976 51.5644C67.3533 51.6157 67.3202 51.6758 67.3003 51.7407C67.2804 51.8056 67.2743 51.8739 67.2823 51.9412C67.2941 52.0104 67.4769 52.0971 67.5821 52.0959C68.1711 52.0914 68.6486 51.7826 69.1071 51.4654C70.2557 50.6706 71.0938 49.6012 71.2744 48.1933L71.3098 48.0876L71.2665 47.1707C71.2491 47.1178 71.2794 47.0655 71.2755 47.0256C71.0314 44.9753 69.9362 43.3851 68.3432 42.1386C66.4982 40.6958 64.3196 40.1017 62.0156 40.0078C60.147 39.9274 58.2808 40.2146 56.5228 40.8532C56.0183 41.0361 55.5182 41.2526 55.0108 41.4568C54.9427 41.3336 54.8696 41.2155 54.8094 41.0934C54.2886 40.0269 53.6574 39.0077 53.5179 37.7848C53.4189 36.9163 53.2974 36.0489 53.5039 35.19C53.7024 34.3637 53.9612 33.5514 54.2048 32.7364C54.3302 32.3168 54.2419 32.0816 53.8414 31.8926C53.7018 31.823 53.5529 31.7741 53.3993 31.7475C52.4149 31.6046 51.444 31.6862 50.4906 31.9635C50.1531 32.0619 49.9078 32.2509 49.833 32.6244C49.7903 32.8388 49.7031 33.0441 49.6423 33.2556C49.3931 34.1347 49.2165 35.0308 48.8138 35.8684C47.8046 37.9693 46.6526 39.9909 45.4736 41.9979C45.3459 42.2145 45.2115 42.4271 45.0506 42.6898C44.6366 41.8236 44.1951 41.0462 44.0612 40.1349C43.9099 39.1044 43.7906 38.0756 44.0471 37.053C44.2378 36.2903 44.487 35.5416 44.7165 34.7889C44.8251 34.4312 44.775 34.2433 44.451 34.0549C44.2873 33.9598 44.1022 33.8754 43.9177 33.8479C42.9084 33.6941 41.8771 33.7785 40.9061 34.0942C40.6007 34.1933 40.4404 34.3907 40.347 34.7057C40.0725 35.6349 39.8385 36.5867 39.4532 37.4704C37.8928 41.0479 36.2874 44.6068 34.6838 48.1652C34.3491 48.9082 33.957 49.6254 33.5796 50.3488C33.4839 50.5322 33.3444 50.6936 33.2252 50.8657C33.1296 50.7527 33.0924 50.6751 33.093 50.5974C33.0958 50.1401 33.0412 49.6693 33.1284 49.2272C33.3962 47.89 33.6921 46.5587 34.0161 45.234C34.2804 44.1394 34.5881 43.0549 34.8812 41.9676C34.9796 41.6036 34.9813 41.2633 34.7197 40.9573C34.2804 40.4449 33.3624 40.3324 32.8179 40.7272L32.5772 40.8634L32.6239 40.4753C32.7386 39.6433 32.7617 38.8142 32.5333 37.9946C32.2487 36.9731 31.5197 36.3853 30.4599 36.4179C29.9661 36.4331 29.4474 36.5175 28.9901 36.6975C27.0669 37.4512 25.5881 38.7861 24.3292 40.392C24.2125 40.5411 24.0679 40.6661 23.9034 40.7599C22.2761 41.6621 20.6437 42.5531 19.0119 43.4475L17.1956 44.4426C16.7085 43.9779 16.2658 43.4959 15.7635 43.0869C14.2296 41.8359 12.6709 40.6159 11.1262 39.3789C9.75712 38.2826 8.43075 37.1407 7.416 35.6889C6.66112 34.6089 6.17456 33.4271 6.12787 32.0917C6.06881 30.3902 6.55143 28.8354 7.41769 27.3881C8.52581 25.5364 10.0372 24.0502 11.6989 22.7042C13.4567 21.2811 15.3579 20.0728 17.3284 18.9697C20.0852 17.4268 22.9207 16.0611 25.9611 15.1594C29.0784 14.2346 32.2414 13.7053 35.5039 14.0743C36.7864 14.2194 38.0317 14.5131 39.1753 15.1403C40.0511 15.6201 40.7694 16.2484 41.1036 17.2305C41.4332 18.1969 41.4231 19.1762 41.1947 20.1577C40.7306 22.1456 39.6422 23.7842 38.2725 25.2484C36.0259 27.6486 33.2854 29.2826 30.2001 30.3621C28.4261 30.9835 26.5804 31.3772 24.7072 31.5338C23.1722 31.6626 21.6692 31.5264 20.2157 30.9926C19.2532 30.6388 18.4151 30.0977 17.7412 29.3124C17.6209 29.1718 17.4667 29.0194 17.2423 29.151C17.0224 29.2804 16.9836 29.4896 17.0572 29.7017C17.1804 30.0538 17.2941 30.4206 17.4859 30.7356C17.9679 31.5259 18.6711 32.0991 19.4451 32.5907C20.9317 33.5362 22.5934 33.8541 24.3163 33.9278C26.9308 34.0408 29.4817 33.6504 31.9967 32.949C35.5871 31.9478 38.709 30.1793 41.2127 27.3893C43.2973 25.0661 44.7862 22.4443 45.1052 19.2786C45.261 17.7334 45.0951 16.2197 44.3717 14.8101C43.587 13.2829 42.3394 12.1472 40.8476 11.3648C38.6752 10.2257 36.3307 9.5625 33.9109 9.5625H31.4865C28.5559 9.5625 25.7226 10.4023 22.9686 11.4041C20.8839 12.1629 18.8398 13.0584 16.8553 14.0496C12.5336 16.209 8.50893 18.8128 5.20312 22.3931C3.55612 24.1768 2.16168 26.145 1.35956 28.4625C1.11746 29.1544 0.908907 29.8576 0.734622 30.5696M16.3941 50.8269C16.2067 53.3351 15.0699 55.3686 13.212 57.0156C12.1669 57.9414 10.9682 58.6007 9.57206 58.8324C9.06581 58.9163 8.54775 58.9365 8.05668 58.7267C7.35637 58.4274 7.19943 57.8059 7.18593 57.1438C7.16512 56.0886 7.53468 55.1346 8.0415 54.2267C8.703 53.0432 9.67275 52.1409 10.7083 51.2983C12.3396 49.9702 14.1092 48.8464 15.9216 47.7855L16.0582 47.7292C16.3384 48.7642 16.4717 49.7863 16.3941 50.8269ZM30.5454 39.9263C30.4132 40.7273 30.2479 41.5288 30.0139 42.3051C29.205 44.9921 28.1661 47.5959 27.0427 50.1649C26.8352 50.6402 26.5331 51.0739 26.2704 51.5244C26.2257 51.5937 26.1722 51.6569 26.1112 51.7123C25.7861 52.0335 25.4779 52.0166 25.3136 51.5964C25.1224 51.1082 25.0048 50.5856 24.9036 50.0687C24.8355 49.7216 24.8518 49.3571 24.8304 49.0016C24.8524 46.4737 25.6236 44.1765 26.9319 42.0379C27.4714 41.1559 28.0586 40.3155 28.9558 39.7575C29.2349 39.584 29.5369 39.4503 29.853 39.3604C30.3311 39.2259 30.6248 39.447 30.5454 39.9263ZM40.2002 52.227L43.6702 48.1753C43.8148 49.68 41.2571 52.6838 40.2002 52.227ZM51.2831 49.5006C51.0379 49.6412 50.7707 49.7424 50.5192 49.8724C50.2892 49.9916 50.2132 49.8713 50.2065 49.6732C50.2031 49.5362 50.2208 49.3994 50.2588 49.2677C50.7274 47.6151 51.5897 46.2043 52.8728 45.0568L52.9627 45.0107C53.5731 46.7179 52.8677 48.5927 51.2831 49.5006Z" fill="#141414"/>
</svg>
