<svg width="72" height="72" viewBox="0 0 72 72" fill="none" xmlns="http://www.w3.org/2000/svg">
<path d="M60.3821 1.13175L56.493 1.37418L56.7962 9.46125C56.8119 9.90843 56.2961 10.1694 55.9446 9.89212L53.3402 7.839L50.2549 10.1801C50.1754 10.2405 50.0804 10.2769 49.981 10.2853C49.8816 10.2936 49.7819 10.2735 49.6935 10.2272C49.6051 10.1809 49.5317 10.1105 49.4819 10.024C49.4321 9.93761 49.408 9.83879 49.4122 9.73912L49.7593 1.79493L11.1786 4.2075C10.2608 4.26468 9.40178 4.67837 8.78486 5.36024C8.16794 6.0421 7.84202 6.93812 7.87668 7.857L10.0479 65.7034C10.0811 66.5872 10.4454 67.4262 11.0686 68.0539C11.6917 68.6815 12.5281 69.0518 13.4117 69.0913L60.4434 71.2029C60.9189 71.2239 61.3936 71.1486 61.8392 70.9813C62.2847 70.8141 62.6918 70.5585 63.036 70.2298C63.3803 69.9012 63.6543 69.5061 63.8415 69.0685C64.0287 68.6309 64.1251 68.1599 64.125 67.6839V4.6485C64.1252 4.16718 64.0268 3.69093 63.8357 3.24917C63.6446 2.80741 63.365 2.40954 63.0141 2.08012C62.6635 1.75053 62.2491 1.49632 61.7964 1.3332C61.3437 1.17008 60.8624 1.10152 60.3821 1.13175ZM37.0609 13.0494C46.2341 13.0494 51.2437 17.9561 51.2437 27.2914C50.004 28.2549 40.77 28.9114 40.77 27.5406C40.9646 22.3093 38.6229 22.0804 37.3219 22.0804C36.0855 22.0804 34.0037 22.4527 34.0037 25.2551C34.0037 32.1671 51.8293 31.7942 51.8293 45.7436C51.8293 53.5905 45.4534 57.9246 37.3219 57.9246C28.9294 57.9246 21.5961 54.5293 22.4241 42.7579C22.7492 41.3758 33.4181 41.7043 33.4181 42.7579C33.2887 47.6151 34.3941 49.0438 37.1908 49.0438C39.3379 49.0438 40.3144 47.8609 40.3144 45.8679C40.3144 38.7686 22.7492 38.52 22.7492 25.5049C22.7492 18.0321 27.8893 13.0494 37.0614 13.0494H37.0609Z" fill="#141414"/>
</svg>
