<svg width="88" height="88" viewBox="0 0 88 88" fill="none" xmlns="http://www.w3.org/2000/svg">
<path d="M71.3347 2.56593L66.8067 2.9714L67.4155 12.3933C67.448 12.9143 66.8547 13.235 66.4359 12.9227L63.3338 10.6104L59.8095 13.4381C59.7187 13.511 59.6091 13.5565 59.4934 13.5693C59.3778 13.5822 59.2608 13.5619 59.1563 13.5107C59.0517 13.4596 58.9639 13.3797 58.9031 13.2805C58.8423 13.1812 58.811 13.0667 58.8129 12.9504L58.9669 3.6746L14.0486 7.70574C12.9801 7.80139 11.9913 8.31095 11.2934 9.12564C10.5954 9.94033 10.2436 10.9956 10.313 12.0661L14.6707 79.4603C14.7373 80.49 15.1886 81.4571 15.9352 82.1694C16.6817 82.8817 17.6689 83.2872 18.7006 83.3053L73.6175 84.2838C74.1726 84.2933 74.7239 84.1904 75.2383 83.9813C75.7526 83.7722 76.2193 83.4612 76.6104 83.0671C77.001 82.6726 77.3078 82.2032 77.5123 81.687C77.7167 81.1708 77.8146 80.6186 77.8 80.0636L75.8108 6.54919C75.7959 5.98786 75.666 5.43554 75.4293 4.92637C75.1925 4.41721 74.8538 3.96201 74.4341 3.58891C74.0149 3.21558 73.5235 2.93219 72.9904 2.75624C72.4573 2.58029 71.8938 2.51552 71.3347 2.56593ZM44.5127 17.2008C55.2109 16.9113 61.2081 22.4756 61.5027 33.3627C60.0873 34.5256 49.3389 35.5825 49.2957 33.9838C49.3576 27.8768 46.6194 27.6837 45.102 27.7248C43.6601 27.7638 41.244 28.2638 41.3324 31.532C41.5505 39.5931 62.3277 38.5956 62.7679 54.864C63.0156 64.0153 55.7165 69.2711 46.2332 69.5277C36.4455 69.7925 27.786 66.0643 28.3801 52.3098C28.7157 50.6878 41.1686 50.7342 41.2019 51.9629C41.2043 57.6316 42.5384 59.263 45.8001 59.1747C48.3041 59.107 49.4056 57.6966 49.3427 55.3723C49.1186 47.0928 28.6256 47.3572 28.2149 32.1784C27.979 23.4633 33.8164 17.4902 44.5133 17.2008L44.5127 17.2008Z" fill="#141414"/>
</svg>
