<svg width="72" height="72" viewBox="0 0 72 72" fill="none" xmlns="http://www.w3.org/2000/svg">
<path d="M61.3016 9.52653C54.8287 -0.0426834 42.0428 -2.8788 32.8017 3.20405L16.5666 13.8915C14.3703 15.3141 12.4858 17.1939 11.033 19.4119C9.58032 21.6298 8.59205 24.1363 8.13122 26.771C7.92589 27.9534 7.8214 29.1592 7.81947 30.3687C7.82944 33.6487 8.60791 36.8774 10.0883 39.7793C8.70035 41.9573 7.75286 44.4031 7.30336 46.9692C6.84293 49.6512 6.90741 52.4312 7.4914 55.0759C8.07594 57.7382 9.16888 60.2531 10.7068 62.4739C17.1793 72.0425 29.9937 74.8786 39.2062 68.7963L55.4245 58.1083C57.6195 56.6841 59.5018 54.802 60.9509 52.5818C62.3995 50.3616 63.3828 47.8529 63.8373 45.217C64.0457 44.0318 64.1504 42.8298 64.149 41.6249C64.145 38.3512 63.3764 35.1275 61.9083 32.2261C63.2958 30.0498 64.2433 27.6063 64.6937 25.0425C64.8949 23.8562 64.9973 22.6547 65 21.4503C65.0009 17.1782 63.7077 13.0129 61.3016 9.53777V9.52653V9.52653Z" fill="#141414"/>
<path d="M31.179 63.5695C30.1046 63.8553 29.009 63.9996 27.9102 64.0001C25.8125 64.0007 23.7458 63.4761 21.8872 62.4704C20.0291 61.4654 18.4345 60.0099 17.2402 58.2287C15.782 56.1234 14.9986 53.5994 15 51.0109C15.0009 50.2812 15.0621 49.5535 15.1826 48.8393C15.2807 48.3019 15.4128 47.7749 15.5775 47.2631L15.8861 46.2955L16.7202 46.9504C18.6573 48.4183 20.8217 49.5361 23.1208 50.2556L23.727 50.4443L23.67 51.0698V51.3944C23.6686 52.1768 23.9046 52.9411 24.3443 53.5779C24.6995 54.1206 25.1779 54.566 25.7376 54.8742C26.3109 55.1862 26.93 55.3477 27.556 55.3484C27.8864 55.3497 28.216 55.3062 28.5389 55.2186C28.8892 55.1239 29.2276 54.9711 29.5451 54.7642L45.8843 43.9466C46.3742 43.6259 46.7777 43.1823 47.0567 42.6571C47.3352 42.1319 47.4803 41.5421 47.4785 40.9427C47.474 40.1603 47.232 39.3989 46.7869 38.7649C46.4262 38.2289 45.945 37.7916 45.3849 37.489C44.8113 37.1836 44.1934 37.0274 43.5692 37.0301C43.2388 37.0289 42.9092 37.0726 42.5863 37.1604C42.2376 37.2529 41.901 37.4056 41.5865 37.6142L35.3572 41.7217C34.3089 42.4033 33.1923 42.9093 32.0368 43.2265C30.9685 43.5109 29.8706 43.6559 28.7676 43.657C26.6703 43.657 24.6045 43.1324 22.7464 42.1285C20.8883 41.1246 19.2932 39.6708 18.0976 37.8919C16.6412 35.7854 15.8578 33.262 15.8574 30.674C15.8583 29.946 15.9195 29.2197 16.04 28.5024C16.3198 26.907 16.917 25.3893 17.7949 24.0454C18.6723 22.701 19.8109 21.5599 21.1381 20.6948L37.4946 9.93606C38.5209 9.26187 39.6403 8.75198 40.815 8.42508C41.8833 8.14237 42.9812 8.00017 44.0838 8.00017C46.1861 7.9945 48.2583 8.51573 50.1227 9.51908C51.9872 10.5219 53.5878 11.9779 54.788 13.7603C56.2357 15.8718 57.0091 18.3969 56.9999 20.9838C56.9989 21.7156 56.9376 22.4453 56.8169 23.1616C56.7189 23.6988 56.587 24.2256 56.4224 24.7372L56.1138 25.7048L55.2797 25.0737C53.344 23.6035 51.1792 22.4857 48.8792 21.7684L48.2729 21.5741L48.3299 20.9481V20.624C48.3299 19.8393 48.0944 19.0745 47.6556 18.4343C47.2954 17.8989 46.8156 17.4621 46.2559 17.1596C45.6835 16.854 45.0667 16.6973 44.4435 16.699C44.1163 16.7063 43.7907 16.7578 43.4725 16.8525C43.1214 16.9434 42.7827 17.0964 42.4667 17.3069L26.1101 28.0656C25.7221 28.3154 25.379 28.6605 25.1017 29.0797C24.843 29.4712 24.6619 29.9324 24.573 30.4264C24.5327 30.6316 24.5078 30.841 24.4986 31.0519C24.4981 31.8326 24.7337 32.5941 25.1729 33.2297C25.5326 33.7651 26.0129 34.2025 26.5721 34.5045C27.1446 34.81 27.7614 34.9666 28.3846 34.9645C28.7151 34.9657 29.0447 34.922 29.3675 34.8342C29.7184 34.7424 30.0571 34.5896 30.3737 34.3804L36.6145 30.2491C37.6623 29.5664 38.779 29.0603 39.9348 28.7444C41.0092 28.4589 42.1048 28.3146 43.2036 28.3138C45.3018 28.3138 47.3685 28.8378 49.2275 29.8418C51.0865 30.8457 52.683 32.3 53.8795 34.0795C55.3359 36.1854 56.1193 38.7088 56.1197 41.2974C56.1211 42.0333 56.0581 42.7681 55.9312 43.4922C55.6532 45.0882 55.056 46.6065 54.1786 47.9509C53.3007 49.2948 52.1616 50.4352 50.8331 51.2998L34.5053 62.0586C33.4557 62.7433 32.3372 63.2515 31.1795 63.5695H31.179Z" fill="#FFFBFE"/>
</svg>
