<svg width="87" height="87" viewBox="0 0 87 87" fill="none" xmlns="http://www.w3.org/2000/svg">
<path d="M73.192 11.4098C64.9831 0.463785 49.2752 -2.42118 38.1789 4.97833L18.6844 17.9791C16.0464 19.7107 13.8037 21.9654 12.0992 24.6001C10.3946 27.2347 9.26648 30.1905 8.78671 33.2785C8.57321 34.6642 8.48362 36.074 8.51943 37.4846C8.63511 41.3095 9.68793 45.0492 11.5878 48.3846C9.96116 50.9706 8.88095 53.8542 8.41285 56.8618C7.93506 60.0049 8.10156 63.2449 8.89838 66.3099C9.69643 69.3955 11.1109 72.2924 13.0596 74.8315C21.2679 85.7769 37.0106 88.6609 48.0721 81.263L67.5461 68.2621C70.1824 66.5285 72.4222 64.2713 74.1223 61.6342C75.8218 58.997 76.9438 56.0387 77.4158 52.9497C77.633 51.5606 77.7229 50.1552 77.6832 48.7501C77.5749 44.9323 76.5344 41.1981 74.6495 37.8629C76.2757 35.279 77.3559 32.398 77.8252 29.393C78.0335 28.0028 78.1207 26.5982 78.086 25.1936C77.9523 20.2112 76.2412 15.3962 73.1924 11.4229L73.192 11.4098Z" fill="#141414"/>
<path d="M38.1037 74.9298C36.8037 75.2932 35.4733 75.495 34.1347 75.5318C31.579 75.6016 29.0448 75.0675 26.7493 73.9743C24.4544 72.8817 22.4664 71.2634 20.9561 69.2579C19.1142 66.889 18.0814 64.0173 18.0026 61.0455C17.981 60.2078 18.0329 59.3704 18.1576 58.5465C18.2605 57.9263 18.405 57.3169 18.5898 56.724L18.9357 55.603L19.9722 56.3273C22.3777 57.9487 25.0494 59.1606 27.8727 59.9108L28.6172 60.1074L28.5671 60.8273L28.5772 61.2C28.5998 62.0983 28.9111 62.9679 29.4665 63.6845C29.9161 64.2959 30.5128 64.7913 31.2043 65.1267C31.9124 65.4661 32.6717 65.631 33.4343 65.6111C33.837 65.6018 34.2372 65.541 34.6278 65.4298C35.0516 65.3095 35.4592 65.1229 35.8395 64.875L55.4096 51.9174C55.9965 51.5332 56.4744 51.0106 56.7979 50.3985C57.1209 49.7864 57.2794 49.1045 57.2586 48.4164C57.2287 47.5184 56.9103 46.6522 56.3483 45.9391C55.8922 45.3357 55.2924 44.8494 54.6006 44.5206C53.8923 44.1888 53.1346 44.0299 52.3743 44.0536C51.9717 44.0631 51.5715 44.1241 51.1809 44.2356C50.7589 44.3532 50.3536 44.5397 49.9769 44.7895L42.5153 49.7103C41.2593 50.5273 39.9147 51.145 38.5168 51.5473C37.2242 51.909 35.891 52.1117 34.5473 52.1494C31.9921 52.2185 29.4591 51.6843 27.1642 50.5931C24.8693 49.5018 22.8808 47.8854 21.3688 45.8826C19.5292 43.5124 18.4963 40.6413 18.4154 37.6702C18.3939 36.8344 18.4459 35.9986 18.5704 35.1712C18.8618 33.3304 19.5421 31.5683 20.57 29.9966C21.5972 28.4242 22.9489 27.0768 24.5389 26.0398L44.132 13.1494C45.3613 12.3416 46.7093 11.7193 48.1302 11.3053C49.4229 10.9455 50.7562 10.7461 52.0994 10.7097C54.6605 10.6339 57.2012 11.164 59.5039 12.2544C61.8065 13.3441 63.8018 14.9629 65.3194 16.9695C67.1486 19.3459 68.1693 22.2193 68.2385 25.1893C68.26 26.0295 68.2079 26.8692 68.0831 27.6955C67.9805 28.3155 67.8361 28.9246 67.6515 29.5173L67.3056 30.6384L66.2698 29.9413C63.8659 28.3173 61.1937 27.1054 58.3693 26.3578L57.6247 26.1547L57.6747 25.4342L57.6647 25.0621C57.6403 24.1613 57.3295 23.291 56.7751 22.5705C56.3197 21.9678 55.7215 21.4821 55.0303 21.1533C54.3234 20.8214 53.567 20.6617 52.8079 20.6842C52.4095 20.7034 52.0144 20.7733 51.6296 20.8925C51.2047 21.0084 50.7968 21.1953 50.4184 21.4473L30.8254 34.3377C30.3604 34.6373 29.9531 35.0447 29.6282 35.5352C29.3253 35.9931 29.119 36.5286 29.026 37.0987C28.9833 37.3356 28.9595 37.5768 28.9548 37.8192C28.9785 38.7154 29.2891 39.5818 29.8439 40.2971C30.2988 40.8999 30.8975 41.3862 31.5882 41.7144C32.2951 42.0463 33.0515 42.2057 33.8106 42.1828C34.2133 42.1733 34.6135 42.1122 35.0041 42.0008C35.4287 41.8839 35.8367 41.6973 36.2158 41.4466L43.6906 36.4981C44.9461 35.6798 46.2908 35.062 47.6891 34.6612C48.9892 34.2981 50.3195 34.0963 51.658 34.0591C54.2143 33.9899 56.7485 34.5234 59.0445 35.6147C61.3405 36.7059 63.3307 38.3229 64.8437 40.3264C66.6834 42.6959 67.7162 45.567 67.7972 48.5387C67.8217 49.3835 67.7678 50.2292 67.6357 51.0646C67.3465 52.906 66.6662 54.6688 65.639 56.2411C64.6111 57.8128 63.2589 59.1596 61.6672 60.1959L42.1092 73.0855C40.8517 73.9062 39.5049 74.5264 38.1042 74.9297L38.1037 74.9298Z" fill="#FFFBFE"/>
</svg>
