<svg width="88" height="88" viewBox="0 0 88 88" fill="none" xmlns="http://www.w3.org/2000/svg">
<path d="M43.3206 18.8107C32.1244 19.1137 25.2808 24.8987 22.7826 36.1706C26.8283 30.4606 31.6713 28.2295 37.3056 29.4773C40.5226 30.1872 42.8688 32.4425 45.4672 34.9417C49.696 39.0071 54.5908 43.7137 64.9945 43.4321C76.19 43.1292 83.0342 37.3435 85.5323 26.0689C81.4861 31.7822 76.6438 34.0134 71.0088 32.7656C67.7925 32.0549 65.4489 29.8003 62.8472 27.3012C58.621 23.2357 53.7275 18.5291 43.3206 18.8107ZM23.0099 44.5682C11.8144 44.8712 4.97014 50.6569 2.47201 61.9314C6.51764 56.2181 11.3599 53.987 16.9949 55.2348C20.2119 55.9454 22.5581 58.2 25.1565 60.6992C29.3853 64.7646 34.2801 69.4712 44.6838 69.1897C55.8792 68.8867 62.7235 63.1016 65.2217 51.8297C61.1754 57.5397 56.3331 59.7709 50.6981 58.5231C47.4818 57.8131 45.1382 55.5578 42.5365 53.0587C38.3103 48.9932 33.4168 44.2866 23.0099 44.5682Z" fill="#141414"/>
</svg>
