<svg width="72" height="72" viewBox="0 0 72 72" fill="none" xmlns="http://www.w3.org/2000/svg">
<path d="M36.0022 14.4011C26.4021 14.4011 20.4041 19.1993 18.0023 28.7994C21.6011 24.0008 25.8024 22.2013 30.6011 23.4011C33.3411 24.084 35.2991 26.0708 37.4676 28.2724C40.9967 31.8538 45.0816 36 54.0023 36C63.6019 36 69.6004 31.2013 72.0023 21.5989C68.4028 26.4004 64.2021 28.1998 59.4028 27C56.6634 26.3166 54.7076 24.3304 52.5364 22.1288C49.0095 18.5473 44.9257 14.4011 36.0022 14.4011ZM18.0023 36C8.40263 36 2.40413 40.7987 0.00225067 50.4011C3.60113 45.5996 7.80188 43.8002 12.6011 45C15.3411 45.6834 17.2991 47.6696 19.4676 49.8713C22.9967 53.4527 27.0816 57.5989 36.0022 57.5989C45.6019 57.5989 51.6004 52.8008 54.0023 43.2006C50.4028 47.9993 46.2021 49.7987 41.4028 48.5989C38.6634 47.916 36.7076 45.9293 34.5364 43.7276C31.0095 40.1462 26.9258 36 18.0023 36Z" fill="#141414"/>
</svg>
