<svg width="72" height="72" viewBox="0 0 72 72" fill="none" xmlns="http://www.w3.org/2000/svg">
<path d="M12.7519 26.4375H68.8162V67.8769H12.7519V26.4375Z" fill="#FFFBFE"/>
<path d="M0.84375 35.9494V71.1056H71.1562V0.793121H0.84375V35.9494ZM57.5044 33.1369C59.1884 33.5277 60.719 34.4085 61.9031 35.6681C62.555 36.3467 63.1217 37.1023 63.5906 37.9181C63.5906 38.0081 60.5531 40.0612 58.7025 41.2087C58.635 41.2537 58.365 40.9612 58.0669 40.5169C57.729 39.9339 57.249 39.4461 56.6716 39.0989C56.0942 38.7516 55.4383 38.5564 54.765 38.5312C52.6331 38.385 51.2606 39.5044 51.2719 41.3437C51.2542 41.8017 51.3591 42.2561 51.5756 42.66C52.0425 43.6331 52.9144 44.2125 55.6481 45.3937C60.6825 47.5594 62.8369 48.9881 64.1756 51.0187C65.6719 53.2687 66.0038 56.9025 64.9912 59.5912C63.8662 62.5162 61.11 64.5019 57.2119 65.16C55.4315 65.3639 53.6326 65.345 51.8569 65.1037C49.1353 64.6551 46.6283 63.3484 44.7019 61.3744C44.055 60.66 42.795 58.7981 42.8737 58.6631C43.0791 58.5107 43.2953 58.3734 43.5206 58.2525L46.125 56.8125L48.1444 55.6425L48.5662 56.2669C49.2782 57.2853 50.1843 58.1532 51.2325 58.8206C53.4825 60.0019 56.5537 59.8387 58.0725 58.4719C58.5824 57.971 58.9005 57.3071 58.9715 56.5959C59.0424 55.8847 58.8616 55.1711 58.4606 54.5794C57.8981 53.7975 56.7731 53.1394 53.6287 51.7669C50.0006 50.2031 48.4369 49.2356 47.0081 47.6944C46.1162 46.6773 45.4577 45.4774 45.0788 44.1787C44.7961 42.6951 44.7543 41.1757 44.955 39.6787C45.7031 36.1744 48.33 33.7275 52.1662 33.0019C53.9429 32.782 55.7425 32.8314 57.5044 33.1481V33.1369ZM41.0006 36.0844V38.9644H31.8713V64.9687H25.3969V38.9587H16.245V36.1462C16.2165 35.1764 16.239 34.2056 16.3125 33.2381C16.3575 33.1875 21.9375 33.1875 28.6875 33.1875H40.9669L41.0006 36.0844Z" fill="#141414"/>
</svg>
