<svg xmlns="http://www.w3.org/2000/svg" version="1.1" xmlns:xlink="http://www.w3.org/1999/xlink" xmlns:svgjs="http://svgjs.dev/svgjs" width="1000" height="1000"><g clip-path="url(#SvgjsClipPath1335)"><rect width="1000" height="1000" fill="#ffffff"></rect><g transform="matrix(7.758620689655173,0,0,7.758620689655173,50,50)"><svg xmlns="http://www.w3.org/2000/svg" version="1.1" xmlns:xlink="http://www.w3.org/1999/xlink" xmlns:svgjs="http://svgjs.dev/svgjs" width="116" height="116"><svg width="116" height="116" viewBox="0 0 116 116" fill="none" xmlns="http://www.w3.org/2000/svg">
<rect width="116" height="116" fill="#FFFBFE"></rect>
<path fill-rule="evenodd" clip-rule="evenodd" d="M50.8259 35.421L38.5649 35.421L13.7632 78.1881H25.6762L38.662 56.1057V78.086H38.8078L38.7486 78.1881H50.6616L50.7216 78.086H50.826V77.9086L66.6405 51.016L67.5925 55.895L76.7977 40.2792L75.8114 35.6766H75.661L75.8113 35.421L63.5503 35.421L50.826 57.3624V35.6766H50.6756L50.8259 35.421ZM80.5783 59.8401L71.5375 74.9629L72.0307 78.0861H84.0302H84.1946L80.5783 59.8401ZM68.0856 78.1881L84.3102 50.5982L90.2766 78.086H102.441L93.2354 35.6766H93.0851L93.2354 35.421L80.9744 35.421L56.1726 78.1881H68.0856Z" fill="#141414"></path>
</svg></svg></g></g><defs><clipPath id="SvgjsClipPath1335"><rect width="1000" height="1000" x="0" y="0" rx="200" ry="200"></rect></clipPath></defs></svg>